<svg width="1194" height="835" viewBox="0 0 1194 835" fill="none" xmlns="http://www.w3.org/2000/svg">
<g clip-path="url(#clip0_1_692)">
<path d="M721.328 417.913C721.328 406.1 711.758 396.54 699.954 396.54C699.548 396.54 699.145 396.553 698.744 396.567C698.776 396.087 698.798 395.607 698.798 395.127C698.798 383.313 689.229 373.753 677.426 373.753C665.621 373.753 656.052 383.313 656.052 395.127C656.052 395.993 656.11 396.847 656.212 397.7C655.346 397.993 654.505 398.34 653.693 398.74C649.796 393.513 643.568 390.127 636.548 390.127C626.022 390.127 617.281 397.74 615.509 407.767C612.669 406.367 609.473 405.58 606.094 405.58C594.29 405.58 584.722 415.14 584.722 426.953C584.722 429.82 585.29 432.553 586.314 435.047C577.79 437.86 571.636 445.887 571.636 455.353C571.636 467.153 581.205 476.713 593.009 476.713C603.534 476.713 612.276 469.113 614.048 459.087C616.888 460.487 620.084 461.273 623.462 461.273C626.86 461.273 630.07 460.473 632.922 459.073C636.818 464.3 643.048 467.673 650.068 467.673C657.901 467.673 664.746 463.46 668.468 457.18C672.189 463.46 679.034 467.673 686.869 467.673C698.673 467.673 708.241 458.113 708.241 446.3C708.241 443.433 707.672 440.7 706.648 438.207C715.172 435.393 721.328 427.38 721.328 417.913Z" fill="#8ECDDD"/>
<path d="M850.706 445.433C850.579 435.367 842.377 427.233 832.273 427.233C830.039 427.233 827.899 427.634 825.919 428.354C826.579 426.46 826.942 424.42 826.942 422.3C826.942 412.113 818.686 403.86 808.503 403.86C798.319 403.86 790.065 412.113 790.065 422.3C790.065 423.313 790.15 424.314 790.309 425.287C787.417 423.407 783.965 422.3 780.255 422.3C772.798 422.3 766.379 426.727 763.475 433.1C760.379 430.74 756.521 429.354 752.334 429.354C742.151 429.354 733.895 437.607 733.895 447.793C733.895 457.967 742.151 466.233 752.334 466.233C755.889 466.233 759.206 465.22 762.021 463.474C761.886 464.38 761.817 465.287 761.817 466.233C761.817 476.407 770.071 484.66 780.255 484.66C790.438 484.66 798.694 476.407 798.694 466.233C798.694 465.873 798.681 465.527 798.662 465.18C801.989 469.994 807.542 473.14 813.834 473.14C818.147 473.14 822.11 471.66 825.251 469.18C828.107 475.66 834.589 480.193 842.131 480.193C852.315 480.193 860.57 471.94 860.57 461.767C860.57 454.673 856.57 448.527 850.706 445.433Z" fill="#8ECDDD"/>
<path d="M505.103 386.233C505.103 374.433 495.534 364.86 483.73 364.86C483.29 364.86 482.854 364.874 482.421 364.9C483.267 362.594 483.73 360.113 483.73 357.513C483.73 345.713 474.162 336.14 462.358 336.14C450.554 336.14 440.985 345.713 440.985 357.513C440.985 357.673 440.993 357.834 440.997 357.994C440.255 357.914 439.503 357.874 438.741 357.874C430.815 357.874 423.902 362.194 420.211 368.607C416.774 366.247 412.613 364.86 408.129 364.86C396.325 364.86 386.755 374.433 386.755 386.233C386.755 387.94 386.962 389.607 387.341 391.194C386.415 391.074 385.471 391.007 384.513 391.007C372.709 391.007 363.139 400.567 363.139 412.38C363.139 424.18 372.709 433.754 384.513 433.754C396.317 433.754 405.885 424.18 405.885 412.38C405.885 410.66 405.678 409.007 405.299 407.407C406.226 407.54 407.169 407.607 408.129 407.607C416.055 407.607 422.969 403.287 426.658 396.874C430.095 399.234 434.257 400.62 438.741 400.62L438.986 400.607C438.825 401.674 438.741 402.754 438.741 403.86C438.741 409.06 440.598 413.82 443.681 417.527C444.537 428.54 453.743 437.22 464.981 437.22C476.785 437.22 486.354 427.647 486.354 415.847C486.354 412.913 485.763 410.127 484.695 407.58C496.051 407.073 505.103 397.713 505.103 386.233Z" fill="#8ECDDD"/>
<path d="M537.021 311.86L535.942 335.46L573.68 332.007L572.773 294.98L537.021 311.86Z" fill="#FFC0BB"/>
<path d="M536.68 319.327C544.416 321.073 557.651 323.46 573.363 319.073L572.773 294.98L537.021 311.86L536.68 319.327Z" fill="#F99893"/>
<path d="M607.881 225.74C606.224 234.487 610.557 242.647 617.56 243.967C624.562 245.3 631.584 239.287 633.242 230.54C634.9 221.807 630.566 213.647 623.564 212.313C616.561 210.993 609.54 217.007 607.881 225.74Z" fill="#F99893"/>
<path d="M617.981 261.38C619.745 250.207 619.463 238.78 618.447 228.98C618.229 226.873 618.134 224.767 618.078 222.647C617.853 214.1 616.047 205.367 612.283 196.767C600.173 169.1 570.737 152.367 540.733 156.153C500.311 161.26 473.755 199.3 481.627 238.1C476.927 236.62 472.07 237.033 468.271 239.74C460.979 244.94 460.343 256.527 466.849 265.633C473.354 274.727 484.538 277.887 491.829 272.7C492.842 271.967 493.711 271.113 494.466 270.167C504.535 302.513 536.805 322.513 569.195 315.407C593.925 309.98 614.074 289.38 617.981 261.38Z" fill="#FFC0BB"/>
<path d="M548.883 242.78C549.596 246.02 547.543 249.22 544.299 249.94C541.054 250.647 537.844 248.594 537.131 245.367C536.418 242.127 538.471 238.914 541.715 238.207C544.96 237.487 548.17 239.54 548.883 242.78Z" fill="#333333"/>
<path d="M597.236 236.434C597.949 239.674 595.897 242.874 592.652 243.594C589.406 244.3 586.198 242.247 585.484 239.02C584.77 235.767 586.824 232.567 590.068 231.86C593.314 231.14 596.522 233.194 597.236 236.434Z" fill="#333333"/>
<path d="M553.414 229.593C550.277 229.047 547.319 228.687 544.419 228.647C541.526 228.607 538.727 228.927 536.061 229.66C533.415 230.42 530.79 231.42 528.382 233.007C526.965 233.82 528.121 233.073 524.717 235.473C523.494 236.353 522.397 237.407 521.029 238.313C521.606 236.847 522.297 235.38 523.147 234.02C524.137 232.767 525.001 231.34 526.287 230.3C528.611 227.953 531.709 226.353 534.939 225.46C538.191 224.567 541.647 224.527 544.843 225.26C548.025 226.033 551.057 227.393 553.414 229.593Z" fill="#752911"/>
<path d="M574.488 227.033C576.004 224.193 578.426 221.913 581.186 220.153C583.97 218.433 587.249 217.34 590.614 217.127C593.961 216.927 597.414 217.433 600.374 218.9C601.928 219.46 603.212 220.54 604.553 221.393C605.802 222.407 606.93 223.567 607.954 224.767C606.366 224.353 604.986 223.727 603.541 223.287L601.394 222.66C601.037 222.567 600.702 222.42 600.345 222.353L599.274 222.14C596.481 221.42 593.673 221.327 590.924 221.46C588.164 221.633 585.41 222.247 582.689 223.22C579.958 224.207 577.276 225.487 574.488 227.033Z" fill="#752911"/>
<path d="M562.651 232.287C562.345 235.62 562.586 238.967 563.219 242.274C563.541 243.94 563.991 245.58 564.637 247.207C565.314 248.82 566.135 250.447 567.621 251.86L568.242 252.34L568.794 252.753C569.03 252.953 569.349 253.1 569.533 253.327C569.987 253.727 570.323 254.207 570.539 254.727C571.039 255.767 570.82 257.087 570.29 258.34C569.106 260.914 566.385 262.834 563.399 264.26C566.686 264.1 570.309 262.78 572.451 259.567C573.501 258.007 574.065 255.807 573.381 253.727C573.214 253.22 573.003 252.727 572.695 252.287C572.43 251.82 572.07 251.447 571.71 251.074C571.363 250.66 570.923 250.433 570.526 250.113C570.278 249.94 570.231 249.873 570.102 249.78L569.756 249.5C568.832 248.66 568.066 247.34 567.385 245.994C566.671 244.634 566.183 243.127 565.607 241.633C564.565 238.607 563.651 235.473 562.651 232.287Z" fill="#F99893"/>
<path d="M620.448 181.247C620.448 181.247 631.286 178.727 634.083 173.74C634.083 173.74 621.283 180.487 613.02 166.007C604.756 151.54 587.552 138.313 565.696 137.1C543.842 135.9 489.532 148.1 477.734 164.007C465.934 179.913 462.922 194.007 467.004 212.273C471.087 230.54 466.678 239.127 461.19 240.153C461.19 240.153 468.468 241.78 474.946 236.807C474.946 236.807 475.672 245.007 468.786 248.513C468.786 248.513 485.947 244.22 488.079 233.127C488.079 233.127 491.112 253.26 487.342 258.513C487.342 258.513 500.354 250.66 498.768 216.993C498.768 216.993 552.203 186.767 557.843 159.207C557.843 159.207 553.972 186.54 545.551 192.047C545.551 192.047 569.646 189.567 578.848 164.407C578.848 164.407 598.435 175.033 604.436 183.313C610.228 191.313 617.055 212.647 617.33 214.207L621.076 188.153C621.076 188.153 627.93 191.993 636.002 187.113C636.002 187.113 623.274 185.7 620.448 181.247Z" fill="#752911"/>
<path d="M539.142 268.674C544.885 276.54 550.521 278.754 557.782 279.06C561.031 279.167 563.37 278.527 565.375 278.354C563.086 279.514 560.886 280.5 557.883 280.82C549.729 282.167 541.314 276.46 539.142 268.674Z" fill="#F99893"/>
<path d="M586.372 331.94C586.372 331.94 649.052 331.18 672.544 316.207C696.033 301.234 649.089 366.78 649.089 366.78C649.089 366.78 608.722 388.033 605.47 389.047C602.217 390.047 574.448 389.793 574.448 387.287C574.448 384.793 586.372 331.94 586.372 331.94Z" fill="#F2ABA7"/>
<path d="M707.074 351.9C710.111 350.967 712.965 349.367 715.858 347.527C731.706 337.5 736.551 315.767 731.758 303.367C725.269 286.58 700.299 289.14 684.777 297.207C683.33 297.954 681.971 298.807 680.705 299.754C670.849 307.1 660.015 313.14 648.254 316.713C646.903 317.127 645.026 316.18 643.167 315.233C640.847 314.047 638.553 312.86 637.337 314.313C626.317 327.527 624.385 343.274 629.178 355.674C635.669 372.46 655.027 379.474 670.549 371.407C671.995 370.66 673.355 369.807 674.621 368.86C684.478 361.514 695.314 355.473 707.074 351.9Z" fill="#F4A640"/>
<path d="M711.526 338.553C714.562 337.62 717.527 336.18 720.309 334.194C731.113 326.447 735.393 311.994 730.599 299.594C724.11 282.807 704.751 275.794 689.229 283.86C687.782 284.607 686.423 285.46 685.157 286.407C675.301 293.754 664.467 299.793 652.706 303.38C649.669 304.3 646.702 305.74 643.918 307.74C633.117 315.474 628.837 329.94 633.629 342.327C640.119 359.114 659.479 366.127 675.001 358.06C676.447 357.314 677.806 356.46 679.073 355.513C688.93 348.167 699.765 342.127 711.526 338.553Z" fill="#FEB546"/>
<path d="M710.099 296.993C710.563 300.74 706.835 304.3 701.773 304.927C696.71 305.553 692.23 303.007 691.766 299.26C691.302 295.5 695.029 291.953 700.093 291.327C705.154 290.7 709.635 293.233 710.099 296.993Z" fill="#ED972F"/>
<path d="M693.459 302.54C692.558 301.647 691.954 300.567 691.778 299.353C691.778 299.353 691.778 299.353 691.777 299.34C691.777 299.34 691.775 299.327 691.774 299.327C691.774 299.313 691.773 299.313 691.771 299.3C691.771 299.3 691.77 299.3 691.77 299.287C691.769 299.287 691.767 299.273 691.766 299.26C691.741 299.047 691.727 298.847 691.726 298.647C691.713 295.127 695.306 291.913 700.093 291.327C700.125 291.327 700.157 291.313 700.189 291.313C700.19 291.313 700.191 291.313 700.193 291.313C700.215 291.313 700.237 291.313 700.258 291.313C700.719 291.26 701.174 291.233 701.622 291.233C706.027 291.233 709.682 293.62 710.099 296.993L710.106 297.113C708.547 295.58 706.083 294.633 703.318 294.633C702.818 294.633 702.309 294.66 701.793 294.727C696.785 295.353 693.089 298.833 693.459 302.54Z" fill="#EB8C28"/>
<path d="M711.806 312.153C712.021 313.887 710.298 315.527 707.958 315.82C705.618 316.1 703.547 314.927 703.333 313.193C703.119 311.46 704.841 309.82 707.181 309.527C709.521 309.247 711.591 310.42 711.806 312.153Z" fill="#ED972F"/>
<path d="M704.115 314.713C703.735 314.34 703.469 313.887 703.365 313.394V313.38C703.363 313.38 703.362 313.367 703.361 313.367C703.359 313.367 703.358 313.353 703.357 313.353C703.357 313.34 703.355 313.34 703.355 313.34C703.351 313.314 703.347 313.3 703.343 313.274C703.341 313.26 703.339 313.247 703.338 313.233C703.337 313.22 703.334 313.207 703.333 313.194C703.322 313.1 703.315 313.007 703.315 312.913C703.309 311.287 704.969 309.807 707.181 309.527C707.418 309.5 707.653 309.487 707.882 309.487C707.883 309.487 707.886 309.487 707.889 309.487C707.895 309.487 707.903 309.487 707.911 309.487C709.938 309.5 711.614 310.593 711.806 312.153L711.809 312.207C711.089 311.5 709.949 311.06 708.67 311.06C708.439 311.06 708.205 311.073 707.967 311.1C705.653 311.393 703.945 312.993 704.115 314.713Z" fill="#EB8C28"/>
<path d="M672.539 330.207C672.754 331.94 671.031 333.58 668.691 333.874C666.351 334.167 664.281 332.994 664.066 331.26C663.853 329.527 665.575 327.887 667.915 327.594C670.254 327.3 672.325 328.474 672.539 330.207Z" fill="#ED972F"/>
<path d="M664.849 332.78C664.462 332.393 664.193 331.94 664.093 331.42C664.09 331.407 664.089 331.407 664.087 331.394C664.087 331.394 664.086 331.38 664.085 331.38C664.083 331.38 664.083 331.367 664.082 331.367C664.081 331.353 664.078 331.34 664.077 331.34C664.077 331.327 664.077 331.327 664.075 331.327C664.074 331.314 664.074 331.313 664.073 331.3C664.071 331.3 664.071 331.3 664.071 331.287C664.07 331.287 664.067 331.274 664.066 331.26C664.055 331.167 664.049 331.073 664.049 330.98C664.042 329.353 665.703 327.86 667.915 327.594C668.153 327.567 668.386 327.553 668.617 327.553C668.618 327.553 668.621 327.553 668.622 327.553C668.63 327.553 668.638 327.553 668.646 327.553C670.671 327.553 672.347 328.66 672.539 330.207L672.543 330.26C671.822 329.554 670.683 329.127 669.405 329.127C669.174 329.127 668.938 329.14 668.701 329.167C666.386 329.447 664.679 331.06 664.849 332.78Z" fill="#EB8C28"/>
<path d="M685.117 298.153C685.295 299.593 683.871 300.94 681.937 301.18C680.003 301.42 678.291 300.46 678.114 299.02C677.937 297.593 679.361 296.234 681.295 295.994C683.229 295.754 684.941 296.727 685.117 298.153Z" fill="#ED972F"/>
<path d="M681.415 295.98C681.571 295.967 681.725 295.954 681.875 295.954C681.725 295.954 681.57 295.967 681.415 295.98Z" fill="#FCA83C"/>
<path d="M678.761 300.273C678.457 299.98 678.242 299.62 678.15 299.22C678.149 299.22 678.149 299.22 678.149 299.22C678.147 299.207 678.145 299.207 678.143 299.193C678.142 299.18 678.141 299.18 678.139 299.167C678.138 299.167 678.138 299.167 678.138 299.167C678.137 299.153 678.134 299.153 678.133 299.14C678.127 299.113 678.122 299.087 678.118 299.047C678.117 299.047 678.115 299.033 678.114 299.02C678.105 298.94 678.099 298.86 678.099 298.78C678.094 297.447 679.466 296.22 681.295 295.993C681.313 295.993 681.331 295.993 681.35 295.98C681.371 295.98 681.394 295.98 681.415 295.98C681.57 295.967 681.725 295.953 681.875 295.953C681.877 295.953 681.879 295.953 681.881 295.953C681.894 295.953 681.906 295.953 681.919 295.953C683.585 295.967 684.959 296.873 685.117 298.153L685.119 298.207C684.525 297.62 683.582 297.26 682.526 297.26C682.335 297.26 682.141 297.273 681.945 297.287C680.031 297.527 678.619 298.86 678.761 300.273Z" fill="#EB8C28"/>
<path d="M667.982 344.887C668.486 347.167 666.406 349.553 663.338 350.233C660.269 350.913 657.373 349.62 656.869 347.34C656.365 345.073 658.443 342.674 661.513 341.994C664.581 341.314 667.478 342.607 667.982 344.887Z" fill="#ED972F"/>
<path d="M658.098 349.26C657.546 348.807 657.135 348.247 656.933 347.594C656.929 347.58 656.926 347.567 656.923 347.553C656.919 347.54 656.916 347.527 656.913 347.513C656.912 347.513 656.91 347.513 656.91 347.513C656.908 347.5 656.903 347.487 656.901 347.474C656.899 347.474 656.899 347.474 656.898 347.474C656.895 347.46 656.893 347.447 656.89 347.433C656.889 347.433 656.889 347.433 656.888 347.433C656.885 347.42 656.882 347.407 656.88 347.394C656.88 347.394 656.878 347.393 656.878 347.38C656.874 347.367 656.871 347.354 656.869 347.34C656.817 347.114 656.793 346.887 656.793 346.647C656.797 344.593 658.756 342.607 661.513 341.994C661.552 341.98 661.589 341.98 661.627 341.967C662.138 341.86 662.643 341.807 663.133 341.807C663.135 341.807 663.14 341.807 663.144 341.807C663.149 341.807 663.155 341.807 663.162 341.807C665.558 341.82 667.57 343.02 667.982 344.887L667.993 344.953C667.091 344.22 665.803 343.807 664.378 343.807C663.851 343.807 663.306 343.86 662.755 343.98C659.718 344.66 657.655 347.007 658.098 349.26Z" fill="#EB8C28"/>
<path d="M690.649 313.38C691.058 316.7 687.757 319.847 683.273 320.394C678.787 320.954 674.819 318.7 674.409 315.38C673.997 312.06 677.299 308.913 681.783 308.353C686.269 307.807 690.237 310.047 690.649 313.38Z" fill="#ED972F"/>
<path d="M675.909 318.287C675.129 317.527 674.599 316.593 674.431 315.54C674.431 315.54 674.43 315.54 674.43 315.527C674.427 315.513 674.426 315.5 674.423 315.5C674.423 315.487 674.422 315.487 674.421 315.473C674.419 315.46 674.418 315.447 674.417 315.447C674.415 315.433 674.415 315.433 674.414 315.42C674.413 315.407 674.41 315.393 674.409 315.38C674.386 315.193 674.375 315.02 674.374 314.833C674.362 311.713 677.545 308.873 681.783 308.353C682.239 308.3 682.691 308.273 683.134 308.273C683.135 308.273 683.137 308.273 683.138 308.273C683.158 308.273 683.178 308.273 683.199 308.273C687.075 308.3 690.281 310.407 690.649 313.38L690.654 313.487C689.273 312.127 687.089 311.287 684.639 311.287C684.198 311.287 683.746 311.313 683.29 311.367C678.854 311.913 675.581 315.007 675.909 318.287Z" fill="#EB8C28"/>
<path d="M654.478 313.047C655.77 315.26 654.403 318.46 651.427 320.207C648.45 321.94 644.99 321.567 643.698 319.354C642.407 317.154 643.772 313.954 646.75 312.207C649.726 310.46 653.186 310.847 654.478 313.047Z" fill="#ED972F"/>
<path d="M645.628 320.94C644.809 320.634 644.13 320.1 643.7 319.353C642.408 317.153 643.773 313.954 646.75 312.207C648 311.474 649.334 311.113 650.558 311.113C650.568 311.113 650.577 311.113 650.588 311.113C650.592 311.113 650.596 311.113 650.6 311.113C652.24 311.113 653.676 311.753 654.432 312.98C654.448 312.993 654.464 313.02 654.478 313.047L654.514 313.127C653.92 312.9 653.25 312.78 652.544 312.78C651.314 312.78 649.973 313.127 648.716 313.874C645.77 315.594 644.406 318.74 645.628 320.94Z" fill="#EB8C28"/>
<path d="M704.889 325.753C706.181 327.967 704.814 331.167 701.837 332.9C698.861 334.647 695.401 334.273 694.11 332.06C692.818 329.86 694.185 326.66 697.161 324.913C700.138 323.167 703.597 323.553 704.889 325.753Z" fill="#ED972F"/>
<path d="M696.038 333.646C695.271 333.353 694.627 332.873 694.194 332.207C694.193 332.193 694.193 332.193 694.191 332.193C694.186 332.18 694.181 332.18 694.175 332.167C694.173 332.167 694.17 332.167 694.169 332.167C694.163 332.153 694.159 332.14 694.155 332.14C694.153 332.14 694.15 332.127 694.147 332.127C694.143 332.113 694.139 332.113 694.135 332.1C694.133 332.1 694.131 332.1 694.129 332.1C694.122 332.087 694.115 332.073 694.11 332.06C693.782 331.5 693.625 330.873 693.622 330.233C693.615 328.327 694.939 326.206 697.161 324.913C697.219 324.873 697.278 324.847 697.335 324.807C697.337 324.807 697.338 324.807 697.338 324.807C698.539 324.14 699.81 323.82 700.978 323.82C700.985 323.82 700.991 323.82 700.998 323.82C701.011 323.82 701.023 323.82 701.037 323.82C702.699 323.833 704.15 324.5 704.889 325.753L704.926 325.833C704.331 325.593 703.662 325.473 702.954 325.473C701.726 325.473 700.383 325.833 699.126 326.567C696.182 328.3 694.817 331.446 696.038 333.646Z" fill="#EB8C28"/>
<path d="M727.426 315.513C728.413 317.207 727.37 319.647 725.098 320.98C722.826 322.3 720.186 322.02 719.199 320.327C718.214 318.647 719.257 316.207 721.527 314.874C723.801 313.54 726.441 313.833 727.426 315.513Z" fill="#ED972F"/>
<path d="M719.217 320.367C719.215 320.367 719.215 320.367 719.214 320.353C719.215 320.367 719.217 320.367 719.217 320.367Z" fill="#FCA83C"/>
<path d="M720.671 321.54C720.067 321.313 719.563 320.927 719.231 320.38C719.231 320.38 719.231 320.38 719.23 320.38C719.226 320.38 719.221 320.367 719.217 320.367C719.217 320.367 719.215 320.367 719.214 320.353C719.21 320.353 719.205 320.34 719.199 320.327C718.949 319.9 718.83 319.433 718.827 318.927C718.822 317.473 719.833 315.873 721.527 314.873C721.546 314.86 721.563 314.86 721.581 314.847C722.519 314.313 723.518 314.047 724.435 314.033C724.442 314.033 724.45 314.033 724.457 314.033C724.467 314.033 724.477 314.033 724.488 314.033C725.725 314.047 726.807 314.527 727.383 315.447C727.385 315.447 727.386 315.447 727.388 315.46C727.401 315.473 727.414 315.5 727.426 315.513L727.454 315.58C727.001 315.393 726.489 315.313 725.949 315.313C725.011 315.313 723.987 315.58 723.027 316.14C720.781 317.46 719.741 319.86 720.671 321.54Z" fill="#EB8C28"/>
<path d="M653.637 332.3C655.282 335.113 653.541 339.194 649.749 341.407C645.955 343.634 641.546 343.154 639.899 340.34C638.254 337.527 639.995 333.447 643.789 331.233C647.582 329.007 651.99 329.487 653.637 332.3Z" fill="#ED972F"/>
<path d="M639.899 340.34C638.254 337.527 639.995 333.447 643.787 331.233C645.393 330.287 647.109 329.833 648.678 329.833C647.109 329.833 645.393 330.287 643.789 331.233C639.995 333.447 638.254 337.527 639.899 340.34Z" fill="#FCA83C"/>
<path d="M642.358 342.354C641.349 341.967 640.507 341.327 639.954 340.433C639.953 340.433 639.953 340.434 639.951 340.42C639.943 340.407 639.937 340.407 639.929 340.394C639.927 340.38 639.926 340.38 639.925 340.38C639.917 340.367 639.909 340.354 639.899 340.34C638.254 337.527 639.995 333.447 643.789 331.233C645.393 330.287 647.109 329.833 648.678 329.833C650.711 329.833 652.499 330.594 653.487 332.06C653.518 332.114 653.547 332.154 653.577 332.207C653.587 332.22 653.597 332.233 653.606 332.247C653.617 332.273 653.626 332.287 653.637 332.3L653.683 332.394C652.925 332.1 652.071 331.954 651.17 331.954C649.605 331.954 647.894 332.407 646.293 333.34C642.541 335.54 640.802 339.554 642.358 342.354Z" fill="#EB8C28"/>
<path d="M458.533 457.593C458.533 457.593 481.215 338.167 535.253 330.167C589.291 322.167 595.962 338.167 597.964 343.513C599.966 348.847 638.659 465.593 638.659 465.593L458.533 457.593Z" fill="#FFC0BB"/>
<path d="M624.946 424.26C623.668 420.407 622.348 416.433 621.013 412.42C623.221 418.433 624.905 424.127 624.946 424.26Z" fill="#C4B2B8"/>
<path d="M571.592 436.967C560.781 436.953 551.281 435.3 543.246 432.967C542.12 420.553 531.686 410.833 518.982 410.833C518.933 410.833 518.884 410.833 518.834 410.833C521.813 407.58 525.069 404.287 526.414 403.807C529.116 402.82 606.798 396.767 611.536 396.767C611.624 396.767 611.688 396.78 611.724 396.78C612.585 396.873 615.414 399.354 618.062 405.14C619.084 407.367 620.094 409.927 621.013 412.42C622.348 416.434 623.668 420.407 624.946 424.26H624.948C604.83 433.647 586.902 436.967 571.592 436.967Z" fill="#FCACA7"/>
<path d="M687.121 332.1C686.59 331.5 678.941 336.807 678.617 335.927C678.293 335.06 685.971 324.82 684.837 324.74C683.702 324.673 675.463 333.26 675.027 332.66C674.591 332.06 682.145 322.3 680.781 321.353C679.417 320.407 671.501 331.393 670.722 330.207C669.943 329.02 678.338 317.967 676.955 317.313C675.793 316.753 664.721 330.713 661.666 334.58C661.273 335.087 660.481 334.94 660.278 334.34C657.175 325.033 657.771 322.673 656.829 323.247C656.143 323.66 650.09 340.833 649.25 349.433C575.303 407.86 528.915 356.847 528.915 356.847L512.905 417.567C512.905 417.567 545.927 427.233 591.626 421.567C633.821 416.327 662.933 366.167 667.15 358.5L667.253 358.58C669.469 355.66 674.309 349.9 674.309 349.9C688.106 333.02 687.651 332.713 687.121 332.1Z" fill="#FFC0BB"/>
<path d="M528.915 356.847C536.721 364.167 547.265 369.847 557.565 373.034C568.081 376.3 579.259 377.087 590.142 375.713C601.062 374.393 611.626 370.834 621.613 366.127C631.611 361.407 641.021 355.433 650.001 348.847C641.567 356.113 632.403 362.647 622.39 367.713C612.09 372.793 601.753 376.647 590.421 377.94C579.153 379.26 567.978 378.487 557.026 374.7C546.399 371.034 536.493 365.047 528.915 356.847Z" fill="#F99893"/>
<path d="M667.679 357.513C657.766 376.793 642.227 396.807 623.957 409.594C608.761 419.94 599.363 421.793 586.491 423.167C576.805 424.207 563.915 424.46 557.955 424.14C542.746 423.647 527.509 421.78 512.905 417.567C526.721 420.767 543.813 422.367 557.99 422.407C566.681 422.38 575.805 422.3 586.281 421.073C599.317 419.567 608.738 417.287 622.798 407.9C635.011 399.593 646.091 387.94 654.946 376.327C659.567 370.34 663.835 364.06 667.679 357.513Z" fill="#F99893"/>
<path d="M543.347 435.193C543.347 448.647 532.438 459.567 518.982 459.567C505.526 459.567 494.617 448.647 494.617 435.193C494.617 421.74 505.526 410.833 518.982 410.833C532.438 410.833 543.347 421.74 543.347 435.193Z" fill="#A2DFF4"/>
<path d="M565 466.287C565 479.74 554.091 490.647 540.634 490.647C527.178 490.647 516.269 479.74 516.269 466.287C516.269 452.833 527.178 441.913 540.634 441.913C554.091 441.913 565 452.833 565 466.287Z" fill="#A2DFF4"/>
<path d="M596.029 458.113C596.029 471.567 585.121 482.473 571.664 482.473C558.208 482.473 547.298 471.567 547.298 458.113C547.298 444.66 558.208 433.753 571.664 433.753C585.121 433.753 596.029 444.66 596.029 458.113Z" fill="#A2DFF4"/>
<path d="M521.815 441.913C521.815 437.593 518.307 434.087 513.978 434.087C512.184 434.087 510.536 434.687 509.215 435.7C506.63 433.767 503.651 432.327 500.414 431.527C497.618 423.913 490.296 418.46 481.702 418.46C472.603 418.46 464.934 424.567 462.551 432.9C461.727 423.433 455.86 415.42 447.648 411.553C448.128 409.567 448.388 407.5 448.388 405.38C448.388 390.94 436.69 379.247 422.258 379.247C409.57 379.247 398.995 388.3 396.627 400.287C384.375 401.767 374.738 411.7 373.736 424.1L373.643 424.087C360.454 424.087 349.554 433.86 347.774 446.567C344.647 443.153 340.17 441.007 335.182 441.007C325.734 441.007 318.076 448.66 318.076 458.113C318.076 467.567 325.734 475.22 335.182 475.22C342.638 475.22 348.963 470.447 351.304 463.78C355.89 471.313 364.178 476.353 373.643 476.353C379.843 476.353 385.538 474.193 390.018 470.58C394.764 475.447 401.394 478.487 408.734 478.487C420.087 478.487 429.744 471.247 433.35 461.127C434.392 461.247 435.45 461.327 436.527 461.327C437.179 461.327 437.823 461.3 438.462 461.247C438.328 462.313 438.251 463.407 438.251 464.527C438.251 478.953 449.95 490.647 464.38 490.647C473.788 490.647 482.032 485.673 486.632 478.22C489.135 479.087 491.819 479.567 494.616 479.567C508.072 479.567 518.982 468.66 518.982 455.193C518.982 452.913 518.654 450.7 518.063 448.593C520.311 447.22 521.815 444.753 521.815 441.913Z" fill="#A2DFF4"/>
<path d="M464.38 490.647C449.95 490.647 438.251 478.953 438.251 464.527C438.251 463.407 438.328 462.313 438.462 461.247C437.823 461.3 437.179 461.327 436.527 461.327C435.45 461.327 434.392 461.247 433.35 461.127C429.744 471.247 420.087 478.487 408.734 478.487C401.394 478.487 394.764 475.447 390.018 470.58C385.538 474.193 379.843 476.353 373.643 476.353C364.178 476.353 355.89 471.313 351.304 463.78C348.963 470.447 342.638 475.22 335.182 475.22C325.734 475.22 318.076 467.567 318.076 458.113C318.076 448.66 325.734 441.007 335.182 441.007L335.351 441.02C338.231 446.407 343.907 450.073 350.443 450.073C357.9 450.073 364.224 445.3 366.567 438.647C371.152 446.18 379.44 451.207 388.906 451.207C395.106 451.207 400.799 449.047 405.28 445.433C410.027 450.313 416.655 453.34 423.996 453.34C435.35 453.34 445.007 446.1 448.612 435.98C449.654 436.113 450.712 436.18 451.79 436.18C452.44 436.18 453.086 436.153 453.724 436.1C453.59 437.18 453.512 438.26 453.512 439.38C453.512 453.807 465.211 465.5 479.642 465.5C489.051 465.5 497.294 460.527 501.895 453.073C504.398 453.94 507.082 454.42 509.879 454.42C513.043 454.42 516.063 453.807 518.838 452.713C518.92 453.5 518.978 454.3 518.982 455.113C518.982 455.14 518.982 455.167 518.982 455.193C518.982 459.233 518.003 463.033 516.268 466.38C512.216 474.207 504.04 479.567 494.616 479.567C491.819 479.567 489.135 479.087 486.632 478.22C482.032 485.673 473.788 490.647 464.38 490.647Z" fill="#9CDAED"/>
<path d="M438.587 427.767C437.129 427.767 435.431 427.02 434.05 425.633C431.817 423.407 431.255 420.34 432.798 418.807C433.386 418.207 434.197 417.927 435.097 417.927C436.555 417.927 438.253 418.673 439.634 420.047C441.867 422.287 442.429 425.353 440.886 426.887C440.298 427.473 439.487 427.767 438.587 427.767Z" fill="#D1EFFA"/>
<path d="M431.058 390.58C430.013 390.58 428.865 390.313 427.754 389.767C424.921 388.38 423.407 385.66 424.373 383.7C424.959 382.513 426.326 381.874 427.945 381.874C428.989 381.874 430.138 382.14 431.249 382.687C434.081 384.087 435.595 386.807 434.63 388.767C434.043 389.953 432.675 390.58 431.058 390.58Z" fill="#D1EFFA"/>
<path d="M399.613 412.1C398.727 412.1 397.696 411.647 396.858 410.807C395.502 409.447 395.16 407.594 396.098 406.66C396.455 406.3 396.947 406.127 397.494 406.127C398.379 406.127 399.41 406.58 400.249 407.42C401.605 408.767 401.946 410.633 401.008 411.567C400.651 411.927 400.159 412.1 399.613 412.1Z" fill="#D1EFFA"/>
<path d="M491.89 433.473C490.431 433.473 488.733 432.74 487.353 431.353C485.118 429.127 484.558 426.06 486.101 424.527C486.689 423.927 487.499 423.647 488.399 423.647C489.858 423.647 491.555 424.393 492.937 425.767C495.171 428.007 495.731 431.06 494.189 432.607C493.601 433.193 492.791 433.473 491.89 433.473Z" fill="#D1EFFA"/>
<path d="M735.861 452.513C735.861 468.02 723.29 480.593 707.785 480.593C692.28 480.593 679.709 468.02 679.709 452.513C679.709 437.007 692.28 424.433 707.785 424.433C723.29 424.433 735.861 437.007 735.861 452.513Z" fill="#A2DFF4"/>
<path d="M765.723 434.073C765.723 449.58 753.154 462.153 737.647 462.153C722.142 462.153 709.571 449.58 709.571 434.073C709.571 418.567 722.142 405.993 737.647 405.993C753.154 405.993 765.723 418.567 765.723 434.073Z" fill="#A2DFF4"/>
<path d="M698.155 450.22C698.155 465.727 685.586 478.3 670.079 478.3C654.574 478.3 642.005 465.727 642.005 450.22C642.005 434.713 654.574 422.14 670.079 422.14C685.586 422.14 698.155 434.713 698.155 450.22Z" fill="#A2DFF4"/>
<path d="M795.651 465.58C795.651 481.087 783.082 493.66 767.575 493.66C752.07 493.66 739.499 481.087 739.499 465.58C739.499 450.074 752.07 437.514 767.575 437.514C783.082 437.514 795.651 450.074 795.651 465.58Z" fill="#A2DFF4"/>
<path d="M726.231 424.433C726.231 439.94 713.662 452.513 698.155 452.513C682.65 452.513 670.079 439.94 670.079 424.433C670.079 408.927 682.65 396.367 698.155 396.367C713.662 396.367 726.231 408.927 726.231 424.433Z" fill="#A2DFF4"/>
<path d="M748.949 424.7C747.239 424.7 745.25 423.833 743.631 422.22C741.014 419.593 740.358 416.007 742.165 414.207C742.855 413.513 743.803 413.18 744.859 413.18C746.569 413.18 748.558 414.06 750.177 415.673C752.793 418.287 753.45 421.873 751.643 423.687C750.953 424.367 750.003 424.7 748.949 424.7Z" fill="#D1EFFA"/>
<path d="M709.109 410.34C708.15 410.34 707.089 410.113 706.049 409.633C703.362 408.393 701.839 405.98 702.649 404.22C703.143 403.14 704.399 402.567 705.915 402.567C706.873 402.567 707.935 402.793 708.975 403.273C711.661 404.513 713.183 406.94 712.375 408.7C711.881 409.767 710.625 410.34 709.109 410.34Z" fill="#D1EFFA"/>
<path d="M584.647 132.06C582.485 128.167 578.559 125.887 574.423 125.633C574.658 122.66 574.054 119.58 572.495 116.767C568.339 109.287 558.983 106.54 551.443 110.487C550.981 108.647 550.277 106.833 549.31 105.087C543.343 94.34 529.798 90.4732 519.054 96.4465C515.187 98.5932 512.215 101.727 510.267 105.353C503.67 101.393 495.198 100.953 487.986 104.967C477.778 110.633 473.781 123.14 478.529 133.593L478.458 133.633C467.715 139.593 463.843 153.14 469.81 163.887C475.777 174.62 489.322 178.5 500.065 172.527C504.681 169.967 508.023 165.993 509.867 161.46C515.415 163.127 521.605 162.647 527.069 159.607C530.847 157.513 533.773 154.473 535.722 150.94C540.285 157.46 549.127 159.607 556.235 155.66C560.15 153.487 562.762 149.887 563.807 145.86C567.542 150.647 574.297 152.153 579.771 149.113C585.829 145.753 588.011 138.113 584.647 132.06Z" fill="#A2DFF4"/>
<path d="M531.468 105.66C530.818 105.66 530.132 105.567 529.442 105.38C526.622 104.567 524.786 102.34 525.342 100.393C525.763 98.9135 527.426 98.0333 529.428 98.0333C530.079 98.0333 530.766 98.1268 531.458 98.3268C534.276 99.1268 536.112 101.367 535.556 103.313C535.135 104.78 533.472 105.66 531.468 105.66Z" fill="#D1EFFA"/>
<path d="M489.998 144.646C489.347 144.646 488.662 144.567 487.971 144.367C485.15 143.553 483.315 141.326 483.873 139.38C484.293 137.9 485.955 137.02 487.959 137.02C488.608 137.02 489.295 137.113 489.986 137.313C492.807 138.113 494.642 140.353 494.086 142.3C493.665 143.767 492 144.646 489.998 144.646Z" fill="#D1EFFA"/>
<path d="M563.383 118.527C562.929 118.527 562.449 118.46 561.966 118.327C559.994 117.767 558.711 116.207 559.101 114.847C559.394 113.82 560.557 113.194 561.957 113.194C562.411 113.194 562.891 113.26 563.375 113.394C565.346 113.967 566.627 115.527 566.239 116.887C565.946 117.913 564.783 118.527 563.383 118.527Z" fill="#D1EFFA"/>
<path d="M498.069 111.14C495.953 111.14 494.23 110.1 494.123 108.673C494.006 107.153 495.806 105.767 498.143 105.594C498.31 105.58 498.477 105.567 498.639 105.567C500.755 105.567 502.475 106.62 502.583 108.033C502.699 109.567 500.899 110.94 498.563 111.127C498.397 111.14 498.231 111.14 498.069 111.14Z" fill="#D1EFFA"/>
<path d="M374.687 613.993C374.687 613.993 374.687 632.353 390.723 641.393L379.935 673.18C379.935 673.18 353.018 673.807 347.865 686.873H390.723L421.628 640.233L374.687 613.993Z" fill="#FEB546"/>
<path d="M822.075 613.993C822.075 613.993 822.075 632.353 806.039 641.393L816.827 673.18C816.827 673.18 843.745 673.807 848.898 686.873H806.039L775.134 640.233L822.075 613.993Z" fill="#FEB546"/>
<path d="M596.999 490.633L304.421 487.167L341.981 571.887C372.171 620.673 394.546 651.953 451.805 655.633C484.173 657.7 709.827 657.7 742.195 655.633C799.454 651.953 821.829 620.673 852.019 571.887L889.579 487.167L596.999 490.633Z" fill="#F6EBE5"/>
<path d="M813.919 583.9C781.551 585.98 555.895 585.98 523.527 583.9C466.27 580.233 443.894 548.953 413.703 500.167L408.486 488.393L304.421 487.167L341.981 571.887C372.171 620.673 394.546 651.953 451.805 655.633C484.173 657.7 709.827 657.7 742.195 655.633C797.462 652.087 820.233 622.82 848.898 576.913C838.777 580.66 827.311 583.047 813.919 583.9Z" fill="#F4E7DE"/>
<path d="M889.142 495.033H304.859C295.198 495.033 287.366 487.207 287.366 477.54C287.366 467.873 295.198 460.047 304.859 460.047H889.142C898.803 460.047 906.634 467.873 906.634 477.54C906.634 487.207 898.803 495.033 889.142 495.033Z" fill="#E5D8D0"/>
<path d="M889.142 481.033H304.858C297.687 481.033 291.531 476.713 288.83 470.54C287.893 472.687 287.366 475.047 287.366 477.54C287.366 487.207 295.198 495.033 304.858 495.033H889.142C898.803 495.033 906.634 487.207 906.634 477.54C906.634 475.047 906.107 472.687 905.17 470.54C902.469 476.713 896.313 481.033 889.142 481.033Z" fill="#E4D3C9"/>
<path d="M367.33 341.807C367.33 358.633 353.689 372.287 336.861 372.287C320.034 372.287 306.393 358.633 306.393 341.807C306.393 324.98 320.034 311.34 336.861 311.34C353.689 311.34 367.33 324.98 367.33 341.807Z" fill="#A2DFF4"/>
<path d="M350.118 332.313C348.005 332.313 345.546 331.233 343.545 329.233C340.31 325.993 339.498 321.567 341.731 319.327C342.585 318.473 343.757 318.073 345.061 318.073C347.175 318.073 349.634 319.14 351.635 321.14C354.87 324.38 355.682 328.807 353.449 331.047C352.595 331.9 351.422 332.313 350.118 332.313Z" fill="#D1EFFA"/>
<path d="M336.861 372.287C336.892 372.287 336.921 372.287 336.953 372.287C336.922 372.287 336.892 372.287 336.861 372.287ZM336.985 372.287C337.005 372.287 337.025 372.287 337.044 372.287C337.024 372.287 337.005 372.287 336.985 372.287ZM337.361 372.273C337.384 372.273 337.405 372.273 337.429 372.273C337.406 372.273 337.382 372.273 337.361 372.273ZM337.489 372.273C337.505 372.273 337.521 372.273 337.537 372.273C337.52 372.273 337.506 372.273 337.489 372.273ZM306.393 341.593C306.393 341.58 306.393 341.567 306.393 341.567C306.393 341.58 306.393 341.58 306.393 341.593ZM306.397 341.247H306.398C306.398 341.247 306.398 341.247 306.397 341.247Z" fill="#DDF0F5"/>
<path d="M336.861 372.287C320.034 372.287 306.393 358.633 306.393 341.807C306.393 341.78 306.393 341.74 306.393 341.7C306.393 341.7 306.393 341.687 306.393 341.673C306.393 341.647 306.393 341.62 306.393 341.593C306.393 341.58 306.393 341.58 306.393 341.567C306.394 341.54 306.394 341.513 306.394 341.487C306.394 341.473 306.394 341.46 306.394 341.447C306.394 341.433 306.395 341.407 306.395 341.38C306.395 341.367 306.395 341.353 306.395 341.353C306.397 341.313 306.397 341.287 306.397 341.247C306.398 341.247 306.398 341.247 306.398 341.247C306.571 331.753 311.094 323.353 318.04 317.887C317.462 320.233 317.121 322.66 317.121 325.193C317.121 342.02 330.762 355.66 347.59 355.66C354.701 355.66 361.226 353.207 366.412 349.113C363.21 362.1 351.724 371.82 337.866 372.26C337.865 372.26 337.863 372.26 337.862 372.26C337.838 372.26 337.817 372.26 337.793 372.273C337.786 372.273 337.78 372.273 337.773 372.273C337.753 372.273 337.732 372.273 337.712 372.273C337.701 372.273 337.692 372.273 337.681 372.273C337.662 372.273 337.642 372.273 337.623 372.273C337.611 372.273 337.601 372.273 337.589 372.273C337.572 372.273 337.554 372.273 337.537 372.273C337.521 372.273 337.505 372.273 337.489 372.273C337.469 372.273 337.449 372.273 337.429 372.273C337.405 372.273 337.384 372.273 337.361 372.273C337.346 372.273 337.334 372.273 337.32 372.273C337.304 372.273 337.285 372.273 337.269 372.273C337.254 372.273 337.242 372.273 337.229 372.273C337.211 372.273 337.192 372.273 337.174 372.273C337.161 372.273 337.149 372.273 337.136 372.273C337.118 372.273 337.101 372.273 337.082 372.287C337.07 372.287 337.057 372.287 337.044 372.287C337.025 372.287 337.005 372.287 336.985 372.287C336.974 372.287 336.962 372.287 336.953 372.287C336.921 372.287 336.892 372.287 336.861 372.287Z" fill="#9CDAED"/>
<path d="M435.669 274.833C435.669 288.007 424.993 298.673 411.822 298.673C398.653 298.673 387.977 288.007 387.977 274.833C387.977 261.66 398.653 250.98 411.822 250.98C424.993 250.98 435.669 261.66 435.669 274.833Z" fill="#A2DFF4"/>
<path d="M423.557 267.527C421.902 267.527 419.978 266.687 418.412 265.113C415.88 262.58 415.244 259.113 416.993 257.367C417.66 256.7 418.578 256.38 419.6 256.38C421.254 256.38 423.178 257.22 424.744 258.78C427.276 261.313 427.912 264.793 426.164 266.54C425.496 267.207 424.578 267.527 423.557 267.527Z" fill="#D1EFFA"/>
<path d="M412.546 298.673C412.55 298.673 412.553 298.673 412.557 298.66C412.554 298.66 412.55 298.673 412.546 298.673Z" fill="#DDF0F5"/>
<path d="M411.822 298.673C398.653 298.673 387.977 288.007 387.977 274.833C387.977 274.807 387.977 274.78 387.977 274.753C387.977 274.74 387.977 274.727 387.977 274.727C387.977 274.7 387.977 274.687 387.977 274.66C387.977 274.66 387.977 274.647 387.977 274.633C387.977 274.62 387.977 274.593 387.978 274.58C387.978 274.567 387.978 274.567 387.978 274.553C387.978 274.527 387.978 274.513 387.978 274.487C387.98 274.487 387.98 274.473 387.98 274.473C387.98 274.447 387.98 274.42 387.981 274.393C387.981 274.393 387.981 274.393 387.981 274.38C388.117 267.007 391.618 260.447 397.005 256.167C396.142 258.633 395.649 261.273 395.649 264.033C395.649 277.207 406.325 287.887 419.495 287.887C425.099 287.887 430.242 285.94 434.314 282.7C431.137 291.78 422.646 298.367 412.557 298.66C412.553 298.673 412.55 298.673 412.546 298.673C412.472 298.673 412.396 298.673 412.32 298.673C412.314 298.673 412.309 298.673 412.302 298.673C412.266 298.673 412.23 298.673 412.194 298.673C412.189 298.673 412.182 298.673 412.177 298.673C412.144 298.673 412.112 298.673 412.078 298.673C412.073 298.673 412.068 298.673 412.061 298.673C412.026 298.673 411.99 298.673 411.956 298.673C411.948 298.673 411.939 298.673 411.931 298.673C411.895 298.673 411.86 298.673 411.822 298.673Z" fill="#9CDAED"/>
<path d="M872.137 361.407C872.137 371.78 863.726 380.193 853.351 380.193C842.977 380.193 834.567 371.78 834.567 361.407C834.567 351.033 842.977 342.62 853.351 342.62C863.726 342.62 872.137 351.033 872.137 361.407Z" fill="#A2DFF4"/>
<path d="M862.595 355.646C861.291 355.646 859.775 354.993 858.542 353.753C856.547 351.767 856.047 349.033 857.425 347.646C857.95 347.126 858.673 346.873 859.477 346.873C860.781 346.873 862.297 347.54 863.53 348.767C865.525 350.767 866.025 353.5 864.649 354.873C864.122 355.407 863.399 355.646 862.595 355.646Z" fill="#D1EFFA"/>
<path d="M853.437 380.193C853.443 380.193 853.451 380.193 853.457 380.193C853.45 380.193 853.443 380.193 853.437 380.193ZM834.57 361.14C834.57 361.127 834.57 361.127 834.57 361.127V361.14Z" fill="#DDF0F5"/>
<path d="M853.351 380.193C842.977 380.193 834.567 371.78 834.567 361.407C834.567 361.38 834.567 361.367 834.567 361.34C834.569 361.34 834.569 361.327 834.569 361.327C834.569 361.3 834.569 361.287 834.569 361.273C834.569 361.273 834.569 361.26 834.569 361.246C834.569 361.233 834.569 361.22 834.569 361.207C834.569 361.207 834.569 361.193 834.569 361.18C834.57 361.166 834.57 361.153 834.57 361.14V361.127C834.57 361.1 834.57 361.087 834.571 361.06C834.678 355.247 837.437 350.073 841.681 346.7C840.999 348.647 840.611 350.727 840.611 352.9C840.611 363.273 849.022 371.687 859.396 371.687C863.811 371.687 867.862 370.153 871.068 367.607C868.564 374.753 861.878 379.94 853.931 380.18C853.927 380.18 853.925 380.18 853.922 380.18C853.863 380.18 853.803 380.18 853.745 380.193C853.739 380.193 853.735 380.193 853.73 380.193C853.702 380.193 853.673 380.193 853.645 380.193C853.641 380.193 853.635 380.193 853.631 380.193C853.605 380.193 853.579 380.193 853.553 380.193C853.549 380.193 853.545 380.193 853.539 380.193C853.513 380.193 853.485 380.193 853.457 380.193C853.451 380.193 853.443 380.193 853.437 380.193C853.409 380.193 853.381 380.193 853.351 380.193Z" fill="#9CDAED"/>
<path d="M852.818 236.233C852.818 245.353 845.422 252.753 836.301 252.753C827.178 252.753 819.782 245.353 819.782 236.233C819.782 227.113 827.178 219.713 836.301 219.713C845.422 219.713 852.818 227.113 852.818 236.233Z" fill="#A2DFF4"/>
<path d="M844.427 231.167C843.282 231.167 841.949 230.593 840.865 229.5C839.11 227.753 838.67 225.34 839.881 224.14C840.343 223.674 840.979 223.447 841.686 223.447C842.833 223.447 844.166 224.033 845.25 225.113C847.005 226.873 847.445 229.273 846.233 230.487C845.771 230.953 845.134 231.167 844.427 231.167Z" fill="#D1EFFA"/>
<path d="M836.466 252.753C836.469 252.753 836.473 252.753 836.475 252.753C836.473 252.753 836.47 252.753 836.466 252.753ZM836.802 252.74C836.803 252.74 836.807 252.74 836.809 252.74C836.806 252.74 836.803 252.74 836.802 252.74Z" fill="#DDF0F5"/>
<path d="M836.301 252.753C827.178 252.753 819.782 245.353 819.782 236.233C819.782 236.207 819.782 236.193 819.782 236.18C819.782 236.167 819.782 236.167 819.782 236.153C819.782 236.14 819.782 236.127 819.782 236.113V236.1C819.782 236.087 819.782 236.074 819.783 236.06C819.783 236.047 819.783 236.047 819.783 236.033C819.783 236.02 819.783 236.007 819.783 235.994V235.98C819.783 235.967 819.785 235.954 819.785 235.927C819.879 230.807 822.305 226.273 826.037 223.3C825.438 225.007 825.097 226.847 825.097 228.753C825.097 237.873 832.493 245.273 841.615 245.273C845.497 245.273 849.059 243.927 851.879 241.687C849.678 247.967 843.797 252.527 836.809 252.74C836.807 252.74 836.803 252.74 836.802 252.74C836.749 252.74 836.698 252.74 836.645 252.74C836.641 252.74 836.637 252.74 836.633 252.74C836.607 252.74 836.583 252.74 836.558 252.753C836.554 252.753 836.549 252.753 836.545 252.753C836.522 252.753 836.499 252.753 836.475 252.753C836.473 252.753 836.469 252.753 836.466 252.753C836.442 252.753 836.417 252.753 836.391 252.753C836.386 252.753 836.382 252.753 836.377 252.753C836.351 252.753 836.326 252.753 836.301 252.753Z" fill="#9CDAED"/>
<path d="M836.301 294.994C836.301 311.82 822.658 325.46 805.831 325.46C789.003 325.46 775.362 311.82 775.362 294.994C775.362 278.154 789.003 264.513 805.831 264.513C822.658 264.513 836.301 278.154 836.301 294.994Z" fill="#A2DFF4"/>
<path d="M820.823 285.646C818.71 285.646 816.251 284.58 814.25 282.58C811.014 279.34 810.203 274.913 812.437 272.673C813.29 271.82 814.462 271.407 815.766 271.407C817.881 271.407 820.339 272.487 822.341 274.487C825.575 277.727 826.387 282.153 824.154 284.393C823.301 285.247 822.127 285.646 820.823 285.646Z" fill="#D1EFFA"/>
<path d="M805.834 325.46C805.863 325.46 805.891 325.46 805.919 325.46C805.891 325.46 805.862 325.46 805.834 325.46ZM806.358 325.447C806.369 325.447 806.379 325.447 806.389 325.447C806.378 325.447 806.369 325.447 806.358 325.447ZM806.446 325.447C806.453 325.447 806.462 325.447 806.469 325.447C806.461 325.447 806.454 325.447 806.446 325.447ZM775.363 294.66C775.365 294.647 775.365 294.647 775.365 294.633C775.365 294.633 775.365 294.647 775.363 294.66Z" fill="#DDF0F5"/>
<path d="M805.831 325.46C800.982 325.46 796.398 324.327 792.327 322.313C792.287 322.287 792.247 322.273 792.207 322.247C792.203 322.247 792.198 322.247 792.194 322.247C782.213 317.233 775.362 306.914 775.362 294.994C775.362 294.954 775.362 294.913 775.362 294.873C775.362 294.873 775.362 294.86 775.362 294.847C775.363 294.82 775.363 294.793 775.363 294.767C775.363 294.767 775.363 294.753 775.363 294.74C775.363 294.713 775.363 294.687 775.363 294.66C775.365 294.647 775.365 294.633 775.365 294.633C775.365 294.607 775.365 294.58 775.365 294.553C775.366 294.54 775.366 294.527 775.366 294.527C775.366 294.5 775.366 294.46 775.367 294.433V294.42C775.541 284.98 780.015 276.607 786.898 271.14C785.795 274.287 785.166 277.66 785.166 281.194C785.166 298.02 798.807 311.66 815.635 311.66C822.795 311.66 829.366 309.167 834.567 305.033C830.477 316.727 819.49 325.18 806.469 325.447C806.462 325.447 806.453 325.447 806.446 325.447C806.427 325.447 806.407 325.447 806.389 325.447C806.379 325.447 806.369 325.447 806.358 325.447C806.341 325.447 806.323 325.447 806.305 325.447C806.293 325.447 806.281 325.447 806.269 325.447C806.243 325.447 806.218 325.447 806.194 325.447C806.174 325.46 806.155 325.46 806.135 325.46C806.125 325.46 806.113 325.46 806.101 325.46C806.083 325.46 806.065 325.46 806.046 325.46C806.034 325.46 806.022 325.46 806.01 325.46C805.99 325.46 805.971 325.46 805.953 325.46C805.941 325.46 805.931 325.46 805.919 325.46C805.891 325.46 805.863 325.46 805.834 325.46H805.831Z" fill="#9CDAED"/>
<path d="M772.466 355.353C772.466 361.06 767.833 365.7 762.119 365.7C756.405 365.7 751.773 361.06 751.773 355.353C751.773 349.633 756.405 345.007 762.119 345.007C767.833 345.007 772.466 349.633 772.466 355.353Z" fill="#A2DFF4"/>
<path d="M767.21 352.18C766.493 352.18 765.657 351.82 764.978 351.14C763.879 350.033 763.603 348.527 764.362 347.78C764.651 347.487 765.05 347.34 765.493 347.34C766.21 347.34 767.045 347.713 767.725 348.393C768.825 349.487 769.099 350.993 768.341 351.753C768.051 352.047 767.653 352.18 767.21 352.18Z" fill="#D1EFFA"/>
<path d="M762.119 365.7C756.405 365.7 751.773 361.06 751.773 355.353C751.773 355.327 751.773 355.3 751.773 355.273V355.26C751.773 355.233 751.773 355.22 751.773 355.207C751.774 355.193 751.774 355.193 751.774 355.18C751.774 355.167 751.774 355.153 751.774 355.127C751.775 355.127 751.775 355.113 751.775 355.113C751.775 355.087 751.775 355.073 751.777 355.06C751.777 355.047 751.777 355.047 751.777 355.033C751.778 355.02 751.778 354.993 751.779 354.98C751.779 354.967 751.779 354.967 751.779 354.967C751.894 351.847 753.399 349.073 755.69 347.26C755.315 348.327 755.102 349.473 755.102 350.66C755.102 356.38 759.734 361.02 765.449 361.02C767.881 361.02 770.111 360.167 771.877 358.767C770.533 362.607 766.993 365.42 762.755 365.673C762.751 365.673 762.747 365.673 762.742 365.673C762.729 365.673 762.714 365.687 762.701 365.687C762.695 365.687 762.691 365.687 762.687 365.687C762.657 365.687 762.627 365.687 762.597 365.687C762.595 365.687 762.594 365.687 762.593 365.687C762.582 365.687 762.571 365.687 762.562 365.687C762.551 365.687 762.542 365.687 762.531 365.687C762.522 365.687 762.511 365.687 762.502 365.687C762.491 365.687 762.481 365.687 762.471 365.687C762.462 365.687 762.451 365.687 762.443 365.7C762.429 365.7 762.417 365.7 762.403 365.7C762.397 365.7 762.39 365.7 762.383 365.7C762.363 365.7 762.345 365.7 762.325 365.7C762.318 365.7 762.311 365.7 762.305 365.7C762.29 365.7 762.277 365.7 762.263 365.7C762.255 365.7 762.249 365.7 762.242 365.7C762.227 365.7 762.213 365.7 762.198 365.7C762.191 365.7 762.186 365.7 762.181 365.7C762.161 365.7 762.139 365.7 762.119 365.7Z" fill="#9CDAED"/>
<path d="M742.895 197.767C742.895 203.487 738.262 208.113 732.549 208.113C726.834 208.113 722.202 203.487 722.202 197.767C722.202 192.06 726.834 187.42 732.549 187.42C738.262 187.42 742.895 192.06 742.895 197.767Z" fill="#A2DFF4"/>
<path d="M737.639 194.594C736.922 194.594 736.087 194.233 735.407 193.553C734.309 192.46 734.033 190.954 734.791 190.194C735.082 189.9 735.479 189.767 735.923 189.767C736.641 189.767 737.475 190.127 738.154 190.807C739.253 191.9 739.529 193.407 738.77 194.167C738.481 194.46 738.083 194.594 737.639 194.594Z" fill="#D1EFFA"/>
<path d="M732.549 208.113C732.569 208.113 732.59 208.113 732.61 208.113C732.589 208.113 732.569 208.113 732.549 208.113ZM732.754 208.113C732.774 208.113 732.793 208.113 732.813 208.113C732.793 208.113 732.773 208.113 732.754 208.113ZM732.961 208.113C732.97 208.1 732.982 208.1 732.993 208.1C732.982 208.1 732.971 208.1 732.961 208.113ZM733.171 208.1C733.175 208.1 733.181 208.1 733.186 208.1C733.181 208.1 733.177 208.1 733.171 208.1Z" fill="#DDF0F5"/>
<path d="M732.549 208.113C726.834 208.113 722.202 203.487 722.202 197.767C722.202 197.74 722.202 197.727 722.202 197.7C722.202 197.687 722.202 197.673 722.202 197.673C722.203 197.66 722.203 197.633 722.203 197.62C722.203 197.62 722.203 197.607 722.203 197.593C722.203 197.58 722.205 197.567 722.205 197.553C722.205 197.54 722.205 197.527 722.205 197.527C722.206 197.513 722.206 197.487 722.206 197.473C722.206 197.473 722.206 197.46 722.207 197.447C722.207 197.433 722.209 197.42 722.209 197.393V197.38C722.325 194.26 723.83 191.487 726.119 189.673C725.745 190.74 725.53 191.887 725.53 193.087C725.53 198.793 730.163 203.433 735.878 203.433C738.31 203.433 740.541 202.58 742.307 201.18C740.962 205.02 737.423 207.833 733.186 208.1C733.181 208.1 733.175 208.1 733.171 208.1C733.157 208.1 733.143 208.1 733.13 208.1C733.125 208.1 733.121 208.1 733.117 208.1C733.087 208.1 733.058 208.1 733.027 208.1C733.026 208.1 733.023 208.1 733.022 208.1C733.011 208.1 733.002 208.1 732.993 208.1C732.982 208.1 732.97 208.1 732.961 208.113C732.951 208.113 732.942 208.113 732.933 208.113C732.921 208.113 732.91 208.113 732.899 208.113C732.89 208.113 732.881 208.113 732.873 208.113C732.858 208.113 732.845 208.113 732.831 208.113C732.825 208.113 732.819 208.113 732.813 208.113C732.793 208.113 732.774 208.113 732.754 208.113C732.747 208.113 732.741 208.113 732.734 208.113C732.719 208.113 732.706 208.113 732.693 208.113C732.685 208.113 732.678 208.113 732.671 208.113C732.657 208.113 732.641 208.113 732.626 208.113C732.621 208.113 732.615 208.113 732.61 208.113C732.59 208.113 732.569 208.113 732.549 208.113Z" fill="#9CDAED"/>
<path d="M726.231 236.233C726.231 246.567 717.85 254.953 707.513 254.953C697.173 254.953 688.793 246.567 688.793 236.233C688.793 225.9 697.173 217.513 707.513 217.513C717.85 217.513 726.231 225.9 726.231 236.233Z" fill="#A2DFF4"/>
<path d="M716.723 230.5C715.424 230.5 713.914 229.833 712.685 228.607C710.695 226.62 710.196 223.9 711.57 222.527C712.094 221.993 712.814 221.753 713.615 221.753C714.914 221.753 716.425 222.407 717.654 223.633C719.643 225.62 720.142 228.353 718.769 229.727C718.245 230.247 717.524 230.5 716.723 230.5Z" fill="#D1EFFA"/>
<path d="M707.513 254.953C697.173 254.953 688.793 246.567 688.793 236.233C688.793 236.207 688.793 236.193 688.793 236.167C688.793 236.167 688.793 236.153 688.793 236.14C688.793 236.127 688.793 236.113 688.793 236.1C688.793 236.1 688.793 236.087 688.793 236.073C688.793 236.06 688.793 236.047 688.793 236.033C688.793 236.033 688.794 236.02 688.794 236.007C688.794 235.993 688.794 235.98 688.794 235.967C688.794 235.967 688.794 235.953 688.794 235.94C688.794 235.927 688.795 235.913 688.795 235.9C688.795 235.887 688.795 235.887 688.795 235.873C688.902 230.087 691.652 224.94 695.88 221.58C695.202 223.513 694.816 225.593 694.816 227.753C694.816 238.1 703.197 246.473 713.535 246.473C717.934 246.473 721.971 244.953 725.167 242.407C722.673 249.54 716.009 254.7 708.089 254.94C708.086 254.94 708.083 254.94 708.081 254.94C708.022 254.94 707.962 254.94 707.902 254.953C707.898 254.953 707.894 254.953 707.889 254.953C707.861 254.953 707.833 254.953 707.803 254.953C707.799 254.953 707.795 254.953 707.79 254.953C707.765 254.953 707.738 254.953 707.713 254.953C707.709 254.953 707.703 254.953 707.699 254.953C707.673 254.953 707.643 254.953 707.617 254.953C707.61 254.953 707.603 254.953 707.598 254.953C707.569 254.953 707.541 254.953 707.513 254.953Z" fill="#9CDAED"/>
<path d="M394.222 196.873C394.222 205.033 387.613 211.633 379.46 211.633C371.306 211.633 364.696 205.033 364.696 196.873C364.696 188.727 371.306 182.113 379.46 182.113C387.613 182.113 394.222 188.727 394.222 196.873Z" fill="#A2DFF4"/>
<path d="M386.066 197.18C384.618 197.18 382.933 196.433 381.562 195.073C379.343 192.847 378.788 189.807 380.318 188.287C380.904 187.7 381.706 187.42 382.599 187.42C384.049 187.42 385.734 188.153 387.105 189.527C389.322 191.74 389.878 194.78 388.347 196.313C387.763 196.9 386.959 197.18 386.066 197.18Z" fill="#D1EFFA"/>
<path d="M379.574 211.633C379.594 211.633 379.614 211.633 379.636 211.633C379.616 211.633 379.594 211.633 379.574 211.633ZM380.138 211.62C380.157 211.62 380.178 211.62 380.197 211.62C380.177 211.62 380.157 211.62 380.138 211.62ZM380.517 211.607C380.536 211.607 380.553 211.593 380.572 211.593C380.554 211.593 380.536 211.607 380.517 211.607ZM380.806 211.58C380.824 211.58 380.841 211.58 380.857 211.58C380.84 211.58 380.824 211.58 380.806 211.58ZM381.438 211.513C381.464 211.5 381.49 211.5 381.516 211.5C381.49 211.5 381.465 211.5 381.438 211.513ZM381.728 211.46C381.74 211.46 381.752 211.46 381.765 211.46C381.753 211.46 381.74 211.46 381.728 211.46ZM364.765 195.447C364.766 195.42 364.769 195.393 364.772 195.38C364.769 195.407 364.766 195.42 364.765 195.447Z" fill="#DDF0F5"/>
<path d="M379.46 211.633C371.306 211.633 364.696 205.033 364.696 196.873C364.696 196.847 364.697 196.82 364.697 196.793C364.697 196.78 364.697 196.78 364.697 196.767C364.697 196.74 364.697 196.713 364.697 196.7C364.697 196.687 364.697 196.687 364.697 196.687C364.698 196.66 364.698 196.633 364.698 196.593L364.7 196.58C364.7 196.553 364.7 196.527 364.701 196.513C364.701 196.5 364.701 196.5 364.701 196.487C364.702 196.46 364.702 196.433 364.704 196.407C364.704 196.407 364.704 196.393 364.704 196.38C364.705 196.367 364.706 196.34 364.706 196.327C364.706 196.313 364.708 196.3 364.708 196.3C364.709 196.273 364.709 196.247 364.71 196.22C364.712 196.207 364.712 196.207 364.712 196.193C364.713 196.18 364.714 196.153 364.714 196.127C364.716 196.127 364.716 196.113 364.716 196.1C364.717 196.073 364.718 196.047 364.721 196.02C364.721 196.02 364.721 196.02 364.721 196.007C364.722 195.993 364.724 195.967 364.725 195.94C364.726 195.927 364.726 195.927 364.728 195.913C364.729 195.9 364.73 195.873 364.732 195.847L364.733 195.833C364.734 195.807 364.737 195.78 364.738 195.753C364.74 195.74 364.74 195.727 364.741 195.727C364.742 195.7 364.744 195.687 364.745 195.66C364.746 195.66 364.746 195.647 364.748 195.647C364.749 195.62 364.752 195.593 364.754 195.567C364.754 195.553 364.756 195.54 364.757 195.54C364.758 195.513 364.76 195.5 364.761 195.487C364.762 195.473 364.764 195.46 364.765 195.447C364.766 195.42 364.769 195.407 364.772 195.38C364.773 195.367 364.774 195.353 364.774 195.34C364.777 195.327 364.778 195.313 364.78 195.3C364.781 195.287 364.782 195.273 364.784 195.26C364.786 195.233 364.789 195.22 364.79 195.193C364.793 195.18 364.794 195.167 364.796 195.153C364.797 195.14 364.8 195.127 364.801 195.113C364.802 195.1 364.804 195.087 364.806 195.073C364.808 195.06 364.809 195.047 364.81 195.033C364.813 195.007 364.817 194.98 364.82 194.967C364.821 194.953 364.822 194.94 364.824 194.927C364.826 194.913 364.828 194.9 364.83 194.873C364.832 194.873 364.833 194.86 364.834 194.847C364.838 194.82 364.844 194.78 364.849 194.753C364.849 194.74 364.849 194.74 364.849 194.74C364.852 194.727 364.854 194.7 364.857 194.687C364.858 194.687 364.86 194.673 364.861 194.673C364.869 194.607 364.878 194.553 364.888 194.5L364.889 194.487C365.64 189.887 368.512 186.007 372.466 183.873C372.029 185.273 371.793 186.753 371.793 188.287C371.793 196.447 378.402 203.06 386.556 203.06C389.086 203.06 391.468 202.42 393.549 201.3C392.001 206.233 387.929 210.06 382.842 211.247C382.84 211.247 382.837 211.247 382.834 211.247C382.812 211.26 382.79 211.26 382.768 211.273C382.766 211.273 382.765 211.273 382.764 211.273C382.693 211.287 382.622 211.3 382.55 211.313C382.549 211.313 382.549 211.313 382.548 211.313C382.526 211.313 382.506 211.327 382.485 211.327C382.48 211.327 382.473 211.327 382.468 211.327C382.448 211.34 382.428 211.34 382.406 211.34C382.402 211.34 382.397 211.34 382.393 211.353C382.328 211.367 382.262 211.38 382.196 211.38C382.19 211.393 382.185 211.393 382.18 211.393C382.161 211.393 382.144 211.393 382.125 211.393C382.117 211.407 382.108 211.407 382.1 211.407C382.081 211.407 382.064 211.407 382.046 211.407C382.036 211.42 382.026 211.42 382.016 211.42C382 211.42 381.982 211.42 381.966 211.433C381.956 211.433 381.944 211.433 381.933 211.433C381.904 211.433 381.876 211.447 381.846 211.447C381.834 211.447 381.822 211.447 381.81 211.447C381.796 211.46 381.78 211.46 381.765 211.46C381.752 211.46 381.74 211.46 381.728 211.46C381.713 211.473 381.697 211.473 381.682 211.473C381.669 211.473 381.656 211.473 381.644 211.473C381.629 211.487 381.614 211.487 381.6 211.487C381.586 211.487 381.572 211.487 381.558 211.487C381.544 211.5 381.529 211.5 381.516 211.5C381.49 211.5 381.464 211.5 381.438 211.513C381.426 211.513 381.414 211.513 381.402 211.513C381.386 211.513 381.37 211.513 381.356 211.513C381.342 211.527 381.329 211.527 381.316 211.527C381.3 211.527 381.285 211.527 381.269 211.527C381.257 211.527 381.244 211.527 381.23 211.54C381.214 211.54 381.198 211.54 381.182 211.54C381.17 211.54 381.158 211.54 381.145 211.54C381.122 211.54 381.098 211.553 381.076 211.553C381.062 211.553 381.049 211.553 381.036 211.553C381.017 211.553 381 211.567 380.981 211.567C380.969 211.567 380.956 211.567 380.944 211.567C380.928 211.567 380.912 211.567 380.896 211.567C380.882 211.567 380.87 211.567 380.857 211.58C380.841 211.58 380.824 211.58 380.806 211.58C380.796 211.58 380.784 211.58 380.773 211.58C380.748 211.58 380.724 211.58 380.7 211.593C380.696 211.593 380.692 211.593 380.688 211.593C380.66 211.593 380.632 211.593 380.604 211.593C380.593 211.593 380.582 211.593 380.572 211.593C380.553 211.593 380.536 211.607 380.517 211.607C380.505 211.607 380.494 211.607 380.484 211.607C380.465 211.607 380.446 211.607 380.429 211.607C380.418 211.607 380.408 211.607 380.396 211.607C380.376 211.607 380.354 211.607 380.334 211.62C380.325 211.62 380.317 211.62 380.309 211.62C380.281 211.62 380.253 211.62 380.225 211.62C380.216 211.62 380.206 211.62 380.197 211.62C380.178 211.62 380.157 211.62 380.138 211.62C380.126 211.62 380.117 211.62 380.106 211.62C380.088 211.633 380.068 211.633 380.049 211.633C380.038 211.633 380.028 211.633 380.017 211.633C379.997 211.633 379.976 211.633 379.956 211.633C379.948 211.633 379.938 211.633 379.93 211.633C379.901 211.633 379.873 211.633 379.844 211.633C379.837 211.633 379.83 211.633 379.824 211.633C379.801 211.633 379.778 211.633 379.756 211.633C379.745 211.633 379.736 211.633 379.726 211.633C379.706 211.633 379.688 211.633 379.668 211.633C379.657 211.633 379.646 211.633 379.636 211.633C379.614 211.633 379.594 211.633 379.574 211.633C379.566 211.633 379.556 211.633 379.548 211.633C379.518 211.633 379.489 211.633 379.46 211.633Z" fill="#9CDAED"/>
<path d="M469.775 163.82C469.77 163.807 469.766 163.807 469.762 163.794C469.766 163.807 469.771 163.807 469.775 163.82Z" fill="#DDF0F5"/>
<path d="M489.282 175.327C481.462 175.327 473.877 171.207 469.81 163.887C469.798 163.86 469.786 163.833 469.776 163.82C469.772 163.807 469.766 163.807 469.762 163.794C469.754 163.78 469.746 163.767 469.74 163.753C469.736 163.74 469.73 163.74 469.726 163.727C469.718 163.714 469.712 163.7 469.704 163.687C469.7 163.673 469.696 163.674 469.69 163.66C469.684 163.647 469.676 163.633 469.669 163.62C469.665 163.62 469.661 163.607 469.657 163.607C469.649 163.58 469.641 163.567 469.633 163.553C469.629 163.553 469.626 163.54 469.622 163.54C469.614 163.527 469.606 163.5 469.598 163.487C469.594 163.487 469.592 163.474 469.588 163.474C469.58 163.46 469.572 163.433 469.564 163.42C469.56 163.42 469.557 163.407 469.553 163.407C469.545 163.394 469.537 163.38 469.529 163.353C469.525 163.353 469.522 163.34 469.52 163.34C469.512 163.327 469.502 163.313 469.494 163.287C469.492 163.287 469.489 163.274 469.485 163.274C469.477 163.26 469.469 163.247 469.46 163.22C469.457 163.22 469.454 163.22 469.452 163.207C469.444 163.194 469.434 163.18 469.425 163.153C469.424 163.153 469.421 163.154 469.42 163.14C469.409 163.127 469.4 163.1 469.389 163.087H469.388C466.642 157.633 466.348 151.554 468.126 146.14C472.384 152.234 479.278 155.62 486.366 155.62C490.021 155.62 493.729 154.713 497.15 152.82C501.765 150.247 505.109 146.287 506.952 141.753C509.029 142.367 511.194 142.7 513.38 142.7C517.03 142.7 520.733 141.793 524.153 139.9C527.932 137.793 530.857 134.753 532.806 131.233C535.817 135.527 540.689 137.927 545.697 137.927C548.281 137.927 550.901 137.287 553.32 135.94C557.234 133.767 559.846 130.167 560.893 126.153C563.314 129.26 567.004 130.98 570.792 130.98C572.846 130.98 574.93 130.474 576.856 129.407C577.949 128.794 578.91 128.047 579.741 127.194C581.701 128.274 583.405 129.86 584.589 131.953C584.59 131.953 584.592 131.953 584.592 131.953C584.6 131.967 584.608 131.98 584.614 131.994C584.617 132.007 584.618 132.007 584.62 132.007C584.629 132.02 584.638 132.034 584.648 132.06C585.725 133.994 586.233 136.1 586.228 138.167C586.216 142.567 583.889 146.833 579.772 149.113C577.846 150.18 575.762 150.687 573.706 150.687C569.918 150.687 566.229 148.967 563.808 145.86C562.762 149.887 560.15 153.487 556.236 155.66C553.816 157.007 551.197 157.633 548.613 157.633C543.605 157.633 538.732 155.247 535.722 150.94C533.773 154.474 530.848 157.514 527.069 159.607C523.65 161.5 519.948 162.407 516.296 162.407C514.112 162.407 511.944 162.087 509.868 161.46C508.024 165.994 504.681 169.967 500.065 172.527C496.644 174.434 492.937 175.327 489.282 175.327Z" fill="#9CDAED"/>
<path d="M505.103 704.953C505.103 704.953 500.193 731.78 576.659 727.113C653.126 722.447 683.253 722.447 704.926 732.94C726.599 743.447 807.509 746.353 805.831 725.367C804.153 704.367 743.748 699.127 732.549 692.713C721.35 686.3 715.429 671.14 682.529 671.14C649.627 671.14 505.193 678.713 505.103 704.953Z" fill="#A2DFF4"/>
<path d="M576.659 727.113C576.721 727.113 576.778 727.1 576.839 727.1C576.779 727.1 576.719 727.113 576.659 727.113ZM585.503 726.58C585.545 726.58 585.589 726.58 585.629 726.58C585.587 726.58 585.546 726.58 585.503 726.58ZM585.686 726.566C585.721 726.566 585.766 726.566 585.802 726.566C585.764 726.566 585.724 726.566 585.686 726.566ZM585.865 726.566C591.767 726.22 597.37 725.9 602.703 725.62C597.371 725.9 591.766 726.22 585.865 726.566ZM727.27 688.913C725.149 687.127 723.025 685.153 720.62 683.18C723.026 685.153 725.151 687.127 727.273 688.913C727.271 688.913 727.271 688.913 727.27 688.913Z" fill="white"/>
<path d="M559.83 727.66C538.706 727.66 525.696 724.74 517.696 720.98C543.59 713.7 666.916 681.54 700.901 673.14C710.006 675.407 715.864 679.287 720.62 683.18C723.025 685.153 725.149 687.127 727.27 688.913C699.845 696.767 644.169 713.273 602.704 725.62C597.37 725.9 591.768 726.22 585.865 726.566C585.844 726.566 585.824 726.566 585.802 726.566C585.766 726.566 585.721 726.566 585.686 726.566C585.666 726.58 585.648 726.58 585.629 726.58C585.589 726.58 585.545 726.58 585.504 726.58C582.685 726.753 579.797 726.926 576.84 727.1C576.778 727.1 576.721 727.113 576.66 727.113C570.542 727.487 564.95 727.66 559.83 727.66Z" fill="#D1EFFA"/>
</g>
<defs>
<clipPath id="clip0_1_692">
<rect width="834" height="1194" fill="white" transform="translate(1194 0.333374) rotate(90)"/>
</clipPath>
</defs>
</svg>
