<svg width="1194" height="835" viewBox="0 0 1194 835" fill="none" xmlns="http://www.w3.org/2000/svg">
<g clip-path="url(#clip0_1_692)">
<path d="M585.757 447.03H528.357V346.444H585.757V447.03Z" fill="#FFC0BB"/>
<path d="M585.757 363.63V329.324L528.357 329.337V358.51C540.691 365.137 559.051 368.937 585.757 363.63Z" fill="#F99893"/>
<path d="M676.024 226.924C670.038 223.977 663.104 224.497 656.824 227.683C658.971 171.217 612.864 123.737 554.784 125.737C496.704 123.737 450.584 171.217 452.744 227.683C446.464 224.497 439.518 223.977 433.544 226.924C422.064 232.564 418.504 248.75 425.584 263.07C432.651 277.39 447.691 284.417 459.158 278.764C460.744 277.977 462.171 276.977 463.451 275.817C470.024 322.497 509.024 357.484 554.784 356.83C600.531 357.484 639.531 322.497 646.104 275.817C647.384 276.977 648.811 277.977 650.411 278.764C661.878 284.417 676.917 277.39 683.984 263.07C691.051 248.75 687.491 232.564 676.024 226.924Z" fill="#FFC0BB"/>
<path d="M531.157 250.79C531.397 255.19 528.024 258.95 523.611 259.19C519.211 259.43 515.437 256.057 515.197 251.657C514.957 247.257 518.331 243.497 522.744 243.257C527.144 243.017 530.917 246.39 531.157 250.79Z" fill="#333333"/>
<path d="M599.931 251.523C600.171 255.923 596.797 259.683 592.397 259.937C587.984 260.177 584.211 256.803 583.971 252.403C583.731 248.003 587.104 244.23 591.517 243.99C595.931 243.75 599.691 247.123 599.931 251.523Z" fill="#333333"/>
<path d="M543.851 234.457C539.851 233.07 536.051 231.99 532.251 231.31C528.464 230.644 524.731 230.47 521.077 230.857C517.451 231.297 513.797 232.044 510.304 233.604C508.277 234.364 509.944 233.644 504.971 236.044C503.171 236.95 501.504 238.084 499.517 238.977C500.584 237.177 501.811 235.404 503.211 233.79C504.771 232.364 506.211 230.67 508.117 229.59C511.677 227.004 516.077 225.564 520.504 225.07C524.971 224.604 529.504 225.297 533.544 226.95C537.544 228.63 541.237 231.07 543.851 234.457Z" fill="#752911"/>
<path d="M576.051 234.337C578.637 230.937 582.304 228.47 586.304 226.75C590.331 225.07 594.864 224.337 599.317 224.777C603.757 225.23 608.171 226.643 611.744 229.203C613.651 230.27 615.104 231.95 616.677 233.364C618.104 234.964 619.331 236.723 620.411 238.523C618.424 237.643 616.744 236.524 614.944 235.63C609.931 233.257 611.677 233.99 609.597 233.23C606.077 231.697 602.424 230.977 598.784 230.564C595.144 230.204 591.397 230.403 587.624 231.11C583.837 231.803 580.037 232.923 576.051 234.337Z" fill="#752911"/>
<path d="M559.091 239.87C558.691 244.057 558.984 248.257 559.771 252.417C560.171 254.497 560.731 256.55 561.544 258.603C562.384 260.63 563.411 262.683 565.277 264.457L566.051 265.07L566.744 265.59C567.037 265.843 567.437 266.017 567.664 266.31C568.237 266.817 568.664 267.417 568.931 268.07C569.557 269.377 569.277 271.017 568.611 272.603C567.104 275.817 563.691 278.23 559.944 280.017C564.064 279.817 568.611 278.177 571.317 274.137C572.637 272.19 573.357 269.43 572.504 266.83C572.291 266.177 572.024 265.55 571.637 265.017C571.317 264.417 570.864 263.95 570.411 263.47C569.971 262.963 569.424 262.67 568.931 262.27C568.611 262.057 568.557 261.977 568.397 261.843L567.957 261.51C566.797 260.443 565.851 258.79 564.997 257.097C564.104 255.39 563.491 253.483 562.771 251.603C561.477 247.803 560.344 243.87 559.091 239.87Z" fill="#F99893"/>
<path d="M663.077 203.55C663.077 203.55 679.451 204.283 685.411 198.337C685.411 198.337 664.557 202.803 658.611 178.977C652.651 155.15 645.197 129.83 614.677 119.403C584.144 108.977 496.278 106.75 473.198 124.617C450.118 142.483 434.478 158.87 432.998 186.417C431.504 213.963 421.824 224.39 413.638 223.643C413.638 223.643 423.317 228.857 434.477 224.39C434.477 224.39 432.251 236.31 421.077 238.537C421.077 238.537 447.144 239.283 454.584 224.39C454.584 224.39 450.864 254.177 443.411 260.137C443.411 260.137 465.011 254.177 476.184 205.777C476.184 205.777 564.038 184.19 583.024 147.323C583.024 147.323 566.651 184.564 552.504 189.03C552.504 189.03 588.237 188.283 611.317 156.27C611.317 156.27 638.131 180.83 643.344 194.977C648.371 208.643 645.078 242.403 644.838 244.737L650.371 237.177C653.318 233.163 656.957 229.684 661.184 227.03C662.264 226.35 663.211 225.83 663.851 225.723L661.211 213.603C661.211 213.603 669.397 221.79 682.811 218.07C682.811 218.07 665.304 210.99 663.077 203.55Z" fill="#752911"/>
<path d="M366.131 502.51C374.531 507.71 388.851 513.457 443.904 502.51C498.944 491.564 420.611 464.577 420.611 464.577L388.917 470.737L366.131 502.51Z" fill="#F99893"/>
<path d="M809.677 462.537C763.464 471.777 725.064 456.377 725.064 456.377L675.731 485.844C675.731 485.844 692.904 500.364 731.197 512.257C766.971 523.35 812.757 499.644 822.237 497.11L809.677 462.537Z" fill="#FFC0BB"/>
<path d="M496.157 370.964H614.997C614.997 370.964 611.037 403.977 605.757 405.297C600.477 406.617 543.691 418.51 539.731 417.19C535.771 415.87 489.557 409.257 489.557 400.017C489.557 390.777 496.157 370.964 496.157 370.964Z" fill="#FFC0BB"/>
<path d="M674.411 381.537C664.597 372.697 630.731 371.163 613.984 370.95C613.984 370.95 603.117 398.697 555.584 398.697C508.037 398.697 497.184 370.95 497.184 370.95C480.424 371.163 446.557 372.697 436.744 381.537C423.531 393.417 379.971 446.23 379.971 446.23C379.971 446.23 407.691 497.724 443.344 508.297V554.51H555.584H667.811V508.297C703.464 497.724 731.197 446.23 731.197 446.23C731.197 446.23 687.624 393.417 674.411 381.537Z" fill="#1BA5D4"/>
<path d="M450.637 447.03C450.637 447.03 543.357 470.27 660.531 447.03L679.691 473.083L669.144 504.377C669.144 504.377 590.784 544.083 443.344 508.297L434.477 475.63L450.637 447.03Z" fill="#DCEAF4"/>
<path d="M467.117 372.683C454.304 374.137 442.024 376.777 436.744 381.537C423.544 393.417 379.971 446.23 379.971 446.23C379.971 446.23 407.691 497.724 443.344 508.297C443.344 508.297 452.611 406.07 467.117 372.683Z" fill="#0E7DA8"/>
<path d="M425.024 278.057L419.784 282.083C419.851 282.177 426.344 290.723 424.744 299.55C424.051 303.377 421.877 306.763 418.251 309.643L406.491 290.75L400.891 294.23L412.624 313.11C408.478 315.043 404.518 315.51 400.824 314.47C392.238 312.03 387.357 302.377 387.304 302.283L384.344 303.75L381.384 305.203C381.637 305.697 387.557 317.537 398.971 320.803C403.957 322.23 409.118 321.777 414.398 319.55L457.158 388.297C458.504 390.47 461.358 391.123 463.531 389.777C465.691 388.43 466.357 385.577 465.011 383.417L422.331 314.803C427.238 310.91 430.251 306.19 431.237 300.737C433.357 289.057 425.358 278.51 425.024 278.057Z" fill="#C5D7DB"/>
<path d="M436.544 235.364C425.597 220.79 404.584 223.164 400.424 243.577C398.251 254.164 391.997 260.577 386.277 264.43C380.291 267.857 371.771 270.63 361.317 267.897C341.171 262.617 329.744 280.417 337.984 296.67C343.517 307.59 361.971 326.03 401.291 305.27L401.357 305.35C404.051 303.87 406.571 302.363 408.944 300.883C411.331 299.403 413.784 297.803 416.317 296.057L416.264 295.95C452.277 269.857 443.891 245.15 436.544 235.364Z" fill="#D63E57"/>
<path d="M368.931 314.697C351.211 314.697 341.691 303.99 337.984 296.67C338.531 297.737 339.184 298.87 339.984 300.03C339.771 299.657 339.571 299.27 339.384 298.91C338.037 296.27 337.224 293.577 336.877 290.964C342.011 294.87 349.091 297.87 358.477 297.87C367.184 297.87 377.877 295.284 390.837 288.444L390.904 288.537C393.584 287.044 396.104 285.55 398.491 284.057C400.877 282.59 403.331 280.99 405.851 279.23L405.811 279.137C430.464 261.27 434.29 244.07 431.917 231.844C434.104 233.31 436.157 235.23 437.931 237.604C438.184 237.937 438.424 238.284 438.677 238.644C438.051 237.537 437.397 236.524 436.744 235.644C439.811 239.83 442.984 246.59 442.984 254.937C442.984 261.164 441.224 268.27 436.331 275.844C434.397 278.844 431.97 281.91 428.984 285.03C427.424 286.657 425.704 288.297 423.824 289.95C421.557 291.937 419.037 293.937 416.264 295.95L416.317 296.057C414.757 297.137 413.224 298.164 411.704 299.137C410.784 299.737 409.864 300.31 408.944 300.883C408.024 301.457 407.077 302.043 406.104 302.617C404.584 303.537 402.997 304.443 401.357 305.35L401.291 305.27C398.277 306.857 395.371 308.217 392.597 309.377C390.277 310.337 388.037 311.164 385.891 311.844C379.544 313.844 373.917 314.697 368.931 314.697Z" fill="#CC3046"/>
<path d="M341.691 290.03C342.624 288.804 343.584 287.817 344.371 286.697C344.837 286.097 345.277 285.497 345.704 284.883C344.517 284.137 343.437 283.23 342.557 282.177C341.611 281.004 340.797 279.684 340.451 278.177C342.824 279.844 344.877 281.364 347.104 282.657C348.144 280.924 349.051 279.097 350.037 277.11C350.277 277.097 350.517 277.084 350.757 277.057C350.917 278.23 350.811 279.417 350.597 280.577C350.357 281.737 349.944 282.857 349.397 283.91C349.891 284.164 350.397 284.417 350.917 284.644C352.144 285.257 353.451 285.67 354.851 286.324C353.917 286.63 352.944 286.764 351.957 286.764C350.624 286.764 349.277 286.51 348.024 286.044C346.424 288.044 344.197 289.577 341.691 290.03Z" fill="#C5263A"/>
<path d="M419.637 244.47C419.664 242.937 419.877 241.577 419.864 240.204C419.891 239.63 419.891 239.07 419.891 238.51C419.784 238.51 419.691 238.51 419.584 238.51C418.504 238.51 417.411 238.39 416.357 238.11C415.517 237.884 414.691 237.59 413.917 237.177C414.117 236.804 414.291 236.43 414.424 236.083C416.291 236.07 418.037 236.044 419.771 235.897C419.597 233.47 419.184 231.07 418.757 228.39C418.877 228.377 419.011 228.363 419.131 228.35C420.091 229.27 420.797 230.417 421.344 231.604C421.904 232.87 422.251 234.23 422.384 235.63C423.117 235.524 423.864 235.404 424.597 235.244C425.957 235.017 427.251 234.604 428.771 234.31C427.264 236.364 424.904 237.683 422.397 238.217C422.157 240.55 421.251 242.817 419.637 244.47Z" fill="#C5263A"/>
<path d="M436.584 235.417L436.571 235.403C436.571 235.403 436.571 235.417 436.584 235.417Z" fill="#9B3E35"/>
<path d="M337.931 296.55C336.131 292.963 335.291 289.31 335.291 285.844C335.277 275.55 342.651 266.95 354.331 266.95C356.517 266.95 358.851 267.257 361.317 267.897C364.291 268.67 367.104 269.004 369.744 269.004C376.411 269.004 381.997 266.884 386.277 264.43C391.997 260.577 398.251 254.164 400.424 243.577C402.824 231.83 410.811 226.044 419.237 226.044C425.451 226.044 431.904 229.177 436.544 235.364C435.051 233.39 433.384 231.737 431.597 230.377C431.704 230.857 431.811 231.35 431.917 231.844C428.384 229.484 424.464 228.297 420.637 228.297C420.131 228.297 419.637 228.31 419.131 228.35C418.997 228.217 418.837 228.084 418.691 227.964C418.717 228.097 418.731 228.244 418.757 228.39C411.037 229.19 404.037 234.937 401.811 245.817C399.651 256.403 393.384 262.83 387.677 266.683C383.384 269.137 377.797 271.244 371.131 271.244C368.491 271.244 365.677 270.91 362.717 270.137C360.251 269.497 357.917 269.19 355.731 269.19C342.971 269.19 335.344 279.444 336.877 290.964C336.464 290.657 336.077 290.337 335.704 290.03C336.117 292.19 336.837 294.39 337.931 296.55Z" fill="#DF4C66"/>
<path d="M339.984 300.03C339.184 298.87 338.53 297.737 337.984 296.67C337.97 296.63 337.957 296.604 337.931 296.564C337.931 296.564 337.931 296.563 337.931 296.55C336.837 294.39 336.117 292.19 335.704 290.03C336.077 290.337 336.464 290.657 336.877 290.964C337.224 293.577 338.037 296.27 339.384 298.91C339.57 299.27 339.77 299.657 339.984 300.03ZM438.677 238.644C438.424 238.284 438.184 237.937 437.931 237.603C436.157 235.23 434.104 233.31 431.917 231.844C431.81 231.35 431.704 230.857 431.597 230.377C433.384 231.737 435.05 233.39 436.544 235.364C436.544 235.377 436.557 235.39 436.571 235.403L436.584 235.417C436.624 235.47 436.651 235.51 436.691 235.564C436.691 235.564 436.691 235.564 436.691 235.577C436.704 235.577 436.704 235.59 436.717 235.603C436.73 235.617 436.73 235.617 436.744 235.63V235.644C437.397 236.524 438.05 237.537 438.677 238.644Z" fill="#D8435A"/>
<path d="M418.757 228.39C418.731 228.243 418.717 228.097 418.691 227.964C418.837 228.084 418.997 228.217 419.131 228.35C419.011 228.363 418.877 228.377 418.757 228.39Z" fill="#D33C52"/>
<path d="M349.331 277.137C347.144 277.137 345.518 276.55 345.344 275.564C345.104 274.23 347.624 272.67 350.958 272.083C351.824 271.923 352.664 271.843 353.438 271.843C355.624 271.843 357.238 272.43 357.411 273.417C357.651 274.75 355.144 276.31 351.811 276.91C351.451 276.963 351.104 277.017 350.758 277.057C350.718 276.723 350.651 276.39 350.558 276.07C350.384 276.417 350.211 276.763 350.038 277.11C349.798 277.123 349.558 277.137 349.331 277.137Z" fill="#DF4C66"/>
<path d="M350.037 277.11C350.211 276.764 350.384 276.417 350.557 276.07C350.651 276.39 350.717 276.724 350.757 277.057C350.517 277.084 350.277 277.097 350.037 277.11Z" fill="#D33C52"/>
<path d="M407.877 242.683C407.611 242.683 407.371 242.603 407.171 242.47C406.077 241.67 406.824 238.803 408.824 236.07C410.477 233.83 412.464 232.377 413.731 232.377C413.997 232.377 414.237 232.443 414.437 232.59C415.131 233.097 415.077 234.457 414.424 236.083C413.744 236.083 413.051 236.084 412.331 236.097C412.811 236.524 413.357 236.884 413.917 237.177C413.611 237.764 413.224 238.377 412.784 238.977C411.131 241.23 409.144 242.683 407.877 242.683Z" fill="#DF4C66"/>
<path d="M413.917 237.177C413.357 236.883 412.811 236.523 412.331 236.097C413.051 236.083 413.744 236.083 414.424 236.083C414.291 236.43 414.117 236.803 413.917 237.177Z" fill="#D33C52"/>
<path d="M644.051 372.683C656.864 374.137 669.144 376.777 674.424 381.537C687.624 393.417 731.197 446.23 731.197 446.23C731.197 446.23 703.477 497.724 667.824 508.297C667.824 508.297 658.557 406.07 644.051 372.683Z" fill="#0E7DA8"/>
<path d="M409.011 343.243C409.011 343.243 415.611 372.283 415.611 377.577C415.611 382.857 375.997 431.71 361.477 456.803C346.957 481.883 354.877 505.657 377.317 504.337C399.771 503.003 430.144 493.763 444.664 423.79C444.664 423.79 452.584 385.497 448.624 372.283C448.624 372.283 451.264 368.323 455.224 368.323C459.184 368.323 468.437 361.723 459.184 353.803C459.184 353.803 461.824 339.283 449.944 339.283C449.944 339.283 451.264 327.403 440.704 327.403C440.704 327.403 440.704 316.83 427.504 320.79C414.291 324.75 405.051 331.35 409.011 343.243Z" fill="#FFC0BB"/>
<path d="M622.797 371.164C619.544 371.057 616.557 370.99 613.984 370.95C613.984 370.95 603.117 398.697 555.584 398.697C508.051 398.697 497.184 370.95 497.184 370.95C494.917 370.977 492.344 371.03 489.557 371.123C489.557 371.137 506.717 405.297 554.264 405.297C599.784 405.297 621.077 373.817 622.797 371.164Z" fill="white"/>
<path d="M526.144 291.031C528.864 306.217 542.597 317.951 559.411 318.297C576.211 318.657 590.437 307.51 593.784 292.444L526.144 291.031Z" fill="white"/>
<path d="M440.851 327.35C439.197 327.883 437.571 328.443 435.944 328.99C434.331 329.55 432.717 330.097 431.157 330.777C429.597 331.43 428.051 332.124 426.584 332.964C425.131 333.817 423.717 334.737 422.411 335.91C423.317 334.403 424.597 333.137 426.024 332.097C427.451 331.03 429.051 330.243 430.651 329.55C433.917 328.243 437.357 327.43 440.851 327.35Z" fill="#F99893"/>
<path d="M450.077 339.283C448.411 339.817 446.784 340.377 445.158 340.91C443.544 341.484 441.931 342.03 440.384 342.71C438.811 343.35 437.277 344.057 435.811 344.883C434.357 345.75 432.944 346.67 431.638 347.844C432.544 346.337 433.824 345.07 435.251 344.017C436.677 342.963 438.264 342.177 439.877 341.483C443.131 340.177 446.584 339.363 450.077 339.283Z" fill="#F99893"/>
<path d="M459.291 353.71C457.637 354.243 456.011 354.803 454.384 355.337C452.771 355.91 451.157 356.457 449.597 357.137C448.037 357.79 446.491 358.483 445.024 359.31C443.571 360.177 442.157 361.097 440.851 362.27C441.757 360.763 443.037 359.483 444.464 358.443C445.891 357.403 447.491 356.603 449.091 355.91C452.357 354.603 455.797 353.79 459.291 353.71Z" fill="#F99893"/>
<path d="M821.397 438.07C821.397 438.07 871.104 438.07 886.557 436.524L886.757 487.124C886.757 487.124 854.877 500.644 833.504 491.897L821.397 438.07Z" fill="#FFC0BB"/>
<path d="M861.131 509.35C846.784 509.35 836.597 502.71 836.597 502.71L835.437 492.617C836.731 493.057 838.064 493.43 839.424 493.723L840.064 499.243C840.064 499.243 841.491 500.177 844.011 501.297L844.104 502.243L852.477 505.657L852.451 504.003C855.037 504.563 857.917 504.923 861.037 504.923C867.184 504.923 874.197 503.51 881.464 499.243L882.651 488.67C885.211 487.777 886.731 487.137 886.757 487.123L885.011 502.71C876.517 507.683 868.304 509.35 861.131 509.35ZM886.757 487.11L886.624 453.257L890.331 420.19C890.344 420.097 890.357 420.017 890.357 419.923L890.424 419.35H890.237C888.824 416.27 876.104 413.857 860.611 413.857C857.397 413.857 854.304 413.95 851.411 414.15L851.171 393.617C851.171 393.617 851.024 393.617 850.731 393.617C848.864 393.617 841.371 393.497 834.131 391.577L836.371 416.403C833.411 417.243 831.491 418.257 830.984 419.35H830.864L830.891 419.63C830.877 419.724 830.864 419.817 830.864 419.91C830.864 420.11 830.904 420.297 830.997 420.483L833.011 438.017C831.624 438.03 830.331 438.043 829.144 438.043L822.691 381.923C822.691 381.923 824.717 371.723 860.544 371.617C860.704 371.617 860.851 371.617 861.011 371.617C896.864 371.617 898.397 383.217 898.397 383.217L886.757 487.11ZM860.544 374.19C841.437 374.19 825.944 378.083 825.944 382.883C825.944 387.683 841.437 391.577 860.544 391.577C879.651 391.577 895.157 387.683 895.157 382.883C895.157 378.083 879.651 374.19 860.544 374.19Z" fill="#D1F6FD"/>
<path d="M839.424 493.724C838.064 493.43 836.731 493.057 835.437 492.617L829.144 438.044C830.331 438.044 831.624 438.03 833.011 438.017L839.424 493.724ZM882.651 488.67L886.624 453.257L886.758 487.11V487.124C886.731 487.137 885.211 487.777 882.651 488.67Z" fill="#D1DDE1"/>
<path d="M830.864 419.35L840.064 499.244C840.064 499.244 859.664 512.017 881.464 499.244L890.424 419.35H830.864Z" fill="#F6B300"/>
<path d="M890.357 419.91C890.357 423.27 877.037 425.977 860.611 425.977C844.184 425.977 830.864 423.27 830.864 419.91C830.864 416.564 844.184 413.857 860.611 413.857C877.037 413.857 890.357 416.564 890.357 419.91Z" fill="#F49000"/>
<path d="M860.544 391.577C841.437 391.577 825.944 387.683 825.944 382.883C825.944 378.083 841.437 374.19 860.544 374.19C879.651 374.19 895.158 378.083 895.158 382.883C895.158 387.683 879.651 391.577 860.544 391.577Z" fill="#E8FBFE"/>
<path d="M852.477 505.657L844.104 502.243L844.011 501.297C846.131 502.217 849.011 503.283 852.451 504.003L852.477 505.657ZM836.371 416.403L834.131 391.577C841.371 393.497 848.864 393.617 850.731 393.617C851.024 393.617 851.171 393.617 851.171 393.617L851.411 414.15C845.291 414.55 840.037 415.35 836.371 416.403Z" fill="#F6FDFF"/>
<path d="M852.451 504.003C849.011 503.283 846.131 502.217 844.011 501.297L837.024 423.603C840.664 424.577 845.717 425.31 851.544 425.684L852.451 504.003Z" fill="#FDF0CC"/>
<path d="M851.544 425.684C845.717 425.31 840.664 424.577 837.024 423.604L836.371 416.404C840.037 415.35 845.291 414.55 851.411 414.15L851.544 425.684Z" fill="#FDE9CC"/>
<path d="M809.677 462.537C813.251 462.204 816.117 459.47 816.637 455.91C817.891 447.297 820.544 432.377 823.584 430.857C827.837 428.737 855.651 438.204 852.171 448.044C848.704 457.897 830.731 447.857 830.731 447.857L833.504 491.897L822.237 497.11L809.677 462.537Z" fill="#FFC0BB"/>
<path d="M900.411 437.35C901.437 441.137 896.424 445.777 889.211 447.737C881.997 449.683 875.317 448.204 874.291 444.43C873.277 440.657 878.291 436.004 885.504 434.057C892.717 432.097 899.384 433.577 900.411 437.35Z" fill="#FFC0BB"/>
<path d="M905.664 453.19C905.864 457.097 899.984 460.563 892.517 460.95C885.051 461.323 878.837 458.47 878.651 454.55C878.451 450.643 884.331 447.177 891.798 446.79C899.264 446.417 905.464 449.27 905.664 453.19Z" fill="#FFC0BB"/>
<path d="M905.544 465.83C905.744 469.737 899.851 473.217 892.384 473.59C884.931 473.977 878.717 471.11 878.517 467.203C878.317 463.297 884.211 459.817 891.677 459.443C899.131 459.057 905.344 461.923 905.544 465.83Z" fill="#FFC0BB"/>
<path d="M902.664 481.763C902.117 485.643 895.677 487.937 888.277 486.897C880.877 485.843 875.331 481.857 875.877 477.977C876.424 474.11 882.864 471.817 890.264 472.857C897.664 473.91 903.211 477.897 902.664 481.763Z" fill="#FFC0BB"/>
<path d="M826.251 619.63C826.251 619.63 826.077 619.777 825.797 620.03C788.171 589.697 685.504 567.937 564.744 567.937C441.931 567.937 337.837 590.443 301.837 621.59L288.331 622.083V645.617C288.331 688.51 412.091 723.297 564.744 723.297C717.397 723.297 841.157 688.51 841.157 645.617V620.937L826.251 619.63Z" fill="#934A38"/>
<path d="M841.157 622.083C841.157 664.977 717.397 699.763 564.744 699.763C412.091 699.763 288.331 664.977 288.331 622.083C288.331 579.177 412.091 544.403 564.744 544.403C717.397 544.403 841.157 579.177 841.157 622.083Z" fill="#B9704E"/>
<path d="M725.638 593.87C725.638 614.657 654.131 636.243 565.891 636.243C477.651 636.243 406.117 614.763 406.117 593.99C406.117 573.203 477.651 560.977 565.891 560.977C654.131 560.977 725.638 573.083 725.638 593.87Z" fill="#DCEAF4"/>
<path d="M725.664 593.323C725.664 614.11 654.131 630.963 565.891 630.963C477.651 630.963 406.117 614.11 406.117 593.323C406.117 572.537 477.651 555.697 565.891 555.697C654.131 555.697 725.664 572.537 725.664 593.323Z" fill="white"/>
<path d="M565.891 626.563C483.117 626.563 416.011 611.684 416.011 593.324C416.011 574.964 483.117 560.084 565.891 560.084C584.917 560.084 603.117 560.87 619.864 562.31C619.864 562.457 619.851 562.604 619.851 562.75C619.851 566.577 620.611 571.043 622.837 575.523C622.264 575.523 621.677 575.523 621.091 575.523C607.837 575.523 591.797 576.31 572.357 578.217C572.357 578.217 564.891 577.71 555.344 577.297C549.517 570.55 540.331 563.95 527.717 563.697C527.517 563.697 527.317 563.684 527.117 563.684C516.544 563.684 507.997 569.403 501.917 575.403C500.224 575.363 498.517 575.337 496.811 575.337C487.624 575.337 478.397 576.004 470.611 578.217C469.544 578.524 468.504 578.83 467.491 579.124C466.851 578.91 466.171 578.803 465.464 578.803C463.384 578.803 461.531 579.777 460.344 581.31C446.611 585.87 441.851 590.297 452.891 601.87C452.917 601.883 452.931 601.897 452.944 601.924C452.971 601.937 452.984 601.964 453.011 601.99C464.117 613.55 498.637 620.563 541.331 620.563C547.411 620.563 553.651 620.417 560.024 620.137C560.077 620.123 560.117 620.124 560.157 620.124C560.211 620.124 560.264 620.124 560.317 620.124C560.851 620.097 561.384 620.07 561.931 620.044C561.957 620.044 561.971 620.043 561.997 620.03C562.011 620.03 562.024 620.03 562.037 620.03C562.144 620.03 562.237 620.03 562.331 620.017C566.131 619.83 569.971 619.577 573.851 619.27C574.757 619.203 575.664 619.137 576.571 619.057C576.757 619.044 576.957 619.017 577.144 619.003C635.464 614.017 642.277 614.31 659.584 610.497C659.717 610.47 659.851 610.443 659.984 610.403H659.997C660.024 610.403 660.051 610.39 660.077 610.39C660.091 610.39 660.091 610.377 660.104 610.377C660.131 610.377 660.157 610.363 660.184 610.363H660.197C660.264 610.35 660.317 610.337 660.384 610.31H660.397C660.464 610.297 660.517 610.283 660.584 610.27H660.597C660.624 610.257 660.651 610.257 660.691 610.244C660.717 610.244 660.757 610.23 660.784 610.23L660.797 610.217C660.864 610.204 660.917 610.19 660.984 610.177C661.051 610.164 661.117 610.15 661.184 610.137C661.224 610.123 661.251 610.11 661.277 610.11H661.291C661.317 610.097 661.344 610.097 661.384 610.084C661.451 610.07 661.504 610.057 661.571 610.044L661.584 610.03C661.971 609.937 662.357 609.844 662.744 609.75C662.744 609.75 662.757 609.75 662.771 609.737C662.797 609.737 662.811 609.737 662.837 609.724C662.851 609.724 662.851 609.724 662.851 609.724C662.877 609.71 662.904 609.71 662.931 609.697C662.944 609.697 662.944 609.697 662.957 609.697C662.984 609.683 663.011 609.683 663.024 609.67C663.037 609.67 663.051 609.67 663.051 609.67C663.077 609.67 663.091 609.657 663.117 609.657C663.131 609.657 663.144 609.644 663.144 609.644C663.171 609.644 663.197 609.63 663.211 609.63C663.224 609.63 663.237 609.63 663.237 609.617C663.264 609.617 663.291 609.603 663.317 609.603H663.331C663.357 609.59 663.384 609.59 663.411 609.577H663.424C663.451 609.564 663.477 609.564 663.491 609.55C663.504 609.55 663.517 609.55 663.531 609.55C663.557 609.537 663.571 609.537 663.597 609.524C663.611 609.524 663.611 609.524 663.611 609.524C663.637 609.524 663.664 609.51 663.691 609.51C663.691 609.497 663.704 609.497 663.717 609.497C663.731 609.497 663.757 609.484 663.784 609.484C663.784 609.484 663.797 609.47 663.811 609.47C663.824 609.47 663.851 609.47 663.864 609.457C663.877 609.457 663.891 609.457 663.904 609.444C663.917 609.444 663.944 609.443 663.957 609.43C663.971 609.43 663.984 609.43 663.997 609.417C664.011 609.417 664.037 609.417 664.051 609.403C664.064 609.403 664.077 609.403 664.091 609.403C664.104 609.39 664.117 609.39 664.131 609.39C664.157 609.377 664.171 609.377 664.184 609.377C664.197 609.364 664.197 609.363 664.197 609.363C672.944 607.003 679.491 603.844 682.731 600.377C682.957 600.15 683.624 599.47 683.811 599.03C683.811 599.017 683.824 599.017 683.824 599.003C698.651 598.017 707.704 593.017 713.104 587.057C714.864 589.084 715.771 591.177 715.771 593.324C715.771 611.684 648.664 626.563 565.891 626.563Z" fill="#EDF4F9"/>
<path d="M572.357 578.217C572.357 578.217 549.384 576.657 532.531 576.75C528.197 576.777 522.584 576.417 516.304 576.043C501.904 575.217 484.091 574.377 470.611 578.217C449.384 584.283 439.371 587.777 453.011 601.99C467.091 616.657 518.824 623.99 577.144 619.003C635.464 614.017 642.277 614.31 659.584 610.497C676.891 606.683 687.451 599.95 684.517 593.19C681.584 586.43 668.237 568.83 572.357 578.217Z" fill="#FFFBEE"/>
<path d="M720.477 568.897C720.931 553.083 705.371 543.337 691.504 554.95C684.317 560.963 676.597 561.937 670.624 561.47C664.717 560.563 657.424 557.83 651.811 550.323C640.971 535.843 623.597 541.75 620.397 557.243C618.251 567.643 620.811 590.15 658.744 597.31V597.403C661.371 597.857 663.891 598.203 666.317 598.47C668.731 598.763 671.264 599.003 673.931 599.177L673.944 599.083C712.517 600.83 720.171 579.523 720.477 568.897Z" fill="#D63E57"/>
<path d="M683.824 599.003C684.917 597.363 685.277 595.657 684.784 593.937C684.397 595.27 683.531 596.577 682.211 597.844C679.144 596.03 672.744 592.803 672.677 592.697C672.571 592.55 641.491 586.683 641.491 586.683C641.491 586.683 637.877 587.137 633.944 587.897C622.771 580.23 619.851 570.257 619.851 562.75C619.851 560.777 620.064 558.977 620.357 557.43C620.171 558.403 620.024 559.47 619.944 560.603C619.997 560.23 620.064 559.87 620.131 559.523C620.651 557.003 621.557 554.737 622.731 552.763C625.384 563.243 634.771 575.337 660.731 580.23V580.337C663.371 580.777 665.891 581.123 668.304 581.39C670.717 581.683 673.251 581.923 675.917 582.097L675.944 582.003C677.451 582.07 678.904 582.11 680.317 582.11C703.677 582.11 714.531 573.043 719.237 564.003C719.931 566.19 720.291 568.604 720.211 571.177C720.197 571.537 720.184 571.91 720.157 572.283C720.331 571.15 720.437 570.097 720.477 569.11C720.104 578.817 713.637 597.017 683.824 599.003Z" fill="#CC3046"/>
<path d="M620.451 556.99C620.464 556.964 620.464 556.95 620.464 556.937C620.464 556.95 620.464 556.977 620.451 556.99Z" fill="#B0563F"/>
<path d="M637.451 559.337C635.571 558.63 634.011 557.19 632.958 555.457C632.198 555.63 631.398 555.724 630.611 555.724C629.171 555.724 627.758 555.417 626.504 554.75C627.811 554.404 628.984 554.257 630.131 553.924C630.771 553.777 631.398 553.604 632.011 553.404C631.611 552.27 631.371 551.07 631.344 549.87C631.331 548.564 631.504 547.23 632.078 546.017C632.784 548.43 633.358 550.577 634.171 552.657C635.811 552.03 637.411 551.297 639.158 550.484C639.331 550.604 639.504 550.724 639.678 550.83C639.158 551.71 638.438 552.47 637.664 553.137C636.878 553.79 635.984 554.337 635.051 554.75C635.251 555.19 635.451 555.63 635.691 556.07C636.184 557.15 636.851 558.137 637.451 559.337Z" fill="#C5263A"/>
<path d="M704.064 565.95C704.931 564.924 705.797 564.11 706.531 563.177C706.864 562.804 707.171 562.417 707.464 562.03C706.651 561.403 705.904 560.684 705.291 559.857C704.837 559.244 704.437 558.59 704.131 557.897C704.477 557.75 704.784 557.59 705.077 557.43C706.344 558.43 707.544 559.35 708.797 560.19C709.997 558.457 711.011 556.604 712.171 554.55C712.264 554.604 712.357 554.67 712.451 554.737C712.597 555.87 712.464 557.03 712.184 558.137C711.891 559.297 711.384 560.404 710.717 561.417C711.277 561.75 711.851 562.07 712.437 562.363C713.477 562.95 714.584 563.364 715.771 563.99C715.091 564.177 714.397 564.257 713.691 564.257C712.197 564.257 710.691 563.87 709.331 563.19C707.904 564.644 706.064 565.684 704.064 565.95Z" fill="#C5263A"/>
<path d="M720.477 568.697C720.531 566.63 720.277 564.67 719.811 562.844C719.637 563.23 719.437 563.617 719.237 564.003C717.971 560.03 715.557 556.817 712.451 554.737C712.424 554.563 712.397 554.39 712.357 554.217C712.291 554.337 712.237 554.443 712.171 554.55C709.744 553.003 706.917 552.137 703.904 552.137C699.864 552.137 695.464 553.683 691.237 557.23C685.051 562.403 678.477 563.844 672.957 563.844C672.064 563.844 671.197 563.817 670.357 563.75C664.451 562.83 657.157 560.11 651.544 552.603C647.237 546.857 641.917 544.31 636.851 544.31C631.224 544.31 625.931 547.443 622.731 552.763C622.624 552.337 622.531 551.923 622.437 551.497C621.597 553.11 620.931 554.897 620.491 556.844C622.531 547.737 629.531 542.044 637.117 542.044C642.184 542.044 647.504 544.577 651.811 550.323C657.424 557.83 664.717 560.563 670.624 561.47C671.464 561.537 672.331 561.577 673.224 561.577C678.731 561.577 685.317 560.123 691.504 554.95C695.744 551.403 700.131 549.857 704.171 549.857C713.197 549.857 720.504 557.603 720.491 568.257C720.491 568.403 720.491 568.55 720.477 568.697Z" fill="#DF4C66"/>
<path d="M720.158 572.283C720.184 571.91 720.197 571.537 720.211 571.177C720.291 568.603 719.931 566.19 719.238 564.003C719.438 563.617 719.637 563.23 719.811 562.843C720.277 564.67 720.531 566.63 720.477 568.697C720.477 568.737 720.477 568.763 720.477 568.79C720.477 568.803 720.477 568.803 720.477 568.817C720.477 568.843 720.477 568.87 720.477 568.897C720.477 568.923 720.477 568.95 720.477 568.977C720.477 568.99 720.477 569.003 720.477 569.017C720.477 569.043 720.477 569.07 720.477 569.083C720.477 569.097 720.477 569.097 720.477 569.11C720.437 570.097 720.331 571.15 720.158 572.283ZM619.944 560.603C620.024 559.47 620.171 558.403 620.358 557.43C620.371 557.417 620.371 557.403 620.371 557.39C620.371 557.39 620.371 557.377 620.371 557.363H620.384C620.384 557.35 620.384 557.337 620.384 557.323C620.384 557.31 620.384 557.31 620.384 557.297C620.397 557.297 620.398 557.283 620.398 557.283C620.398 557.27 620.398 557.257 620.398 557.243C620.411 557.203 620.411 557.177 620.424 557.137C620.424 557.123 620.424 557.123 620.424 557.11C620.438 557.083 620.437 557.057 620.451 557.03C620.451 557.017 620.451 557.003 620.451 556.99C620.464 556.977 620.464 556.95 620.464 556.937C620.478 556.91 620.478 556.883 620.491 556.857C620.491 556.857 620.491 556.857 620.491 556.843C620.931 554.897 621.598 553.11 622.438 551.497C622.531 551.923 622.624 552.337 622.731 552.763C621.558 554.737 620.651 557.003 620.131 559.523C620.064 559.87 619.997 560.23 619.944 560.603Z" fill="#D8435A"/>
<path d="M712.451 554.737C712.357 554.67 712.264 554.604 712.171 554.55C712.237 554.444 712.291 554.337 712.357 554.217C712.397 554.39 712.424 554.563 712.451 554.737Z" fill="#D33C52"/>
<path d="M644.651 552.577C643.557 552.577 642.024 552.137 640.477 551.297C640.197 551.15 639.931 550.99 639.677 550.83C639.837 550.577 639.971 550.324 640.077 550.057C639.771 550.204 639.464 550.337 639.157 550.484C637.371 549.204 636.357 547.737 636.811 546.897C637.037 546.47 637.584 546.27 638.331 546.27C639.424 546.27 640.957 546.724 642.504 547.55C645.091 548.95 646.731 550.923 646.171 551.963C645.944 552.377 645.397 552.577 644.651 552.577Z" fill="#DF4C66"/>
<path d="M639.677 550.83C639.504 550.723 639.331 550.603 639.158 550.483C639.464 550.337 639.771 550.203 640.077 550.057C639.971 550.323 639.837 550.577 639.677 550.83Z" fill="#D33C52"/>
<path d="M699.411 558.937C697.957 558.937 696.891 558.55 696.691 557.844C696.384 556.71 698.437 555.163 701.277 554.403C702.344 554.11 703.371 553.977 704.251 553.977C705.704 553.977 706.771 554.35 706.971 555.07C707.157 555.79 706.397 556.683 705.077 557.43C704.611 557.07 704.131 556.684 703.637 556.31C703.744 556.857 703.917 557.39 704.131 557.897C703.597 558.137 703.011 558.337 702.384 558.51C701.317 558.804 700.291 558.937 699.411 558.937Z" fill="#DF4C66"/>
<path d="M704.131 557.897C703.918 557.39 703.744 556.857 703.638 556.31C704.131 556.684 704.611 557.07 705.077 557.43C704.784 557.59 704.478 557.75 704.131 557.897Z" fill="#D33C52"/>
<path d="M662.958 609.697C662.984 609.683 662.998 609.683 663.024 609.67C663.011 609.683 662.984 609.683 662.958 609.697ZM453.011 601.99C452.984 601.963 452.971 601.937 452.944 601.923C452.971 601.95 452.984 601.963 453.011 601.99Z" fill="#EAE7CF"/>
<path d="M541.331 620.563C498.637 620.563 464.117 613.55 453.011 601.99C452.984 601.964 452.971 601.95 452.944 601.924C452.931 601.897 452.917 601.883 452.891 601.87C447.891 596.63 446.131 592.857 446.984 589.87C447.237 590.95 447.757 592.124 448.557 593.417C448.531 593.63 448.517 593.857 448.517 594.07C448.517 597.577 451.291 600.417 454.757 600.55C467.424 611.15 500.664 617.51 541.331 617.51C552.771 617.51 564.811 617.004 577.144 615.95C635.464 610.964 642.277 611.257 659.584 607.43C667.131 605.777 673.397 603.55 677.824 601.017C679.811 600.95 681.464 600.764 682.664 600.444C682.664 600.444 682.664 600.43 682.677 600.43C679.424 603.883 672.904 607.017 664.197 609.363C664.197 609.363 664.197 609.364 664.184 609.377C664.171 609.377 664.157 609.377 664.131 609.39C664.117 609.39 664.104 609.39 664.091 609.403C664.077 609.403 664.064 609.403 664.051 609.403C664.037 609.417 664.011 609.417 663.997 609.417C663.984 609.43 663.971 609.43 663.957 609.43C663.944 609.443 663.917 609.444 663.904 609.444C663.891 609.457 663.877 609.457 663.864 609.457C663.851 609.47 663.824 609.47 663.811 609.47C663.797 609.47 663.784 609.484 663.784 609.484C663.757 609.484 663.731 609.497 663.717 609.497C663.704 609.497 663.691 609.497 663.691 609.51C663.664 609.51 663.637 609.524 663.611 609.524C663.611 609.524 663.611 609.524 663.597 609.524C663.571 609.537 663.557 609.537 663.531 609.55C663.517 609.55 663.504 609.55 663.491 609.55C663.477 609.564 663.451 609.564 663.424 609.577H663.411C663.384 609.59 663.357 609.59 663.331 609.603H663.317C663.291 609.603 663.264 609.617 663.237 609.617C663.237 609.63 663.224 609.63 663.211 609.63C663.197 609.63 663.171 609.644 663.144 609.644C663.144 609.644 663.131 609.657 663.117 609.657C663.091 609.657 663.077 609.67 663.051 609.67C663.037 609.67 663.037 609.67 663.024 609.67C662.997 609.683 662.984 609.683 662.957 609.697C662.944 609.697 662.944 609.697 662.931 609.697C662.904 609.71 662.877 609.71 662.851 609.724C662.851 609.724 662.851 609.724 662.837 609.724C662.811 609.737 662.797 609.737 662.771 609.737C662.757 609.75 662.744 609.75 662.744 609.75C662.357 609.844 661.971 609.937 661.584 610.03L661.571 610.044C661.504 610.057 661.451 610.07 661.384 610.084C661.344 610.097 661.317 610.097 661.291 610.11H661.277C661.251 610.11 661.224 610.123 661.184 610.137C661.117 610.15 661.051 610.164 660.984 610.177C660.917 610.19 660.864 610.204 660.797 610.217L660.784 610.23C660.757 610.23 660.717 610.244 660.691 610.244C660.651 610.257 660.624 610.257 660.597 610.27H660.584C660.517 610.283 660.464 610.297 660.397 610.31H660.384C660.317 610.337 660.264 610.35 660.197 610.363H660.184C660.157 610.363 660.131 610.377 660.104 610.377C660.091 610.377 660.091 610.39 660.077 610.39C660.051 610.39 660.024 610.403 659.997 610.403H659.984C659.851 610.443 659.717 610.47 659.584 610.497C642.277 614.31 635.464 614.017 577.144 619.003C576.957 619.017 576.757 619.044 576.571 619.057C575.664 619.137 574.757 619.203 573.851 619.27C569.971 619.577 566.131 619.83 562.331 620.017C562.237 620.03 562.131 620.03 562.037 620.03C562.024 620.03 562.011 620.03 561.997 620.03C561.971 620.043 561.957 620.044 561.931 620.044C561.384 620.07 560.851 620.097 560.317 620.124C560.264 620.124 560.211 620.124 560.157 620.124C560.117 620.124 560.077 620.123 560.024 620.137C553.651 620.417 547.411 620.563 541.331 620.563Z" fill="#FCEDC6"/>
<path d="M683.824 599.003C683.877 598.883 683.224 598.43 682.211 597.844C683.531 596.577 684.397 595.27 684.784 593.937C685.277 595.657 684.917 597.363 683.824 599.003Z" fill="#CA2D3A"/>
<path d="M491.491 589.123C491.491 589.123 505.037 563.23 527.717 563.697C550.411 564.163 562.011 585.123 562.877 590.603C562.877 590.603 525.984 605.19 491.491 589.123Z" fill="#FABD40"/>
<path d="M523.251 594.763C518.091 594.763 513.291 593.257 508.744 592.59C502.731 591.71 498.771 588.923 494.224 588.63C493.811 588.603 493.371 588.59 492.904 588.59C492.544 588.59 492.157 588.603 491.771 588.617C493.637 585.283 504.891 566.657 522.864 564.017L522.558 564.244C512.678 571.577 516.704 587.35 528.877 589.15C533.624 589.857 538.251 590.137 542.637 590.137C549.971 590.137 556.651 589.337 562.211 588.323C562.557 589.23 562.784 590.017 562.877 590.603C562.291 590.51 561.664 590.457 561.011 590.457C556.451 590.457 550.584 592.683 546.598 593.323C545.558 593.497 544.397 593.55 543.171 593.55C542.171 593.55 541.104 593.51 540.011 593.483C538.904 593.443 537.744 593.417 536.544 593.417C533.997 593.417 531.264 593.563 528.411 594.203C526.651 594.603 524.931 594.763 523.251 594.763Z" fill="#F6AD38"/>
<path d="M546.691 577.137C544.877 577.137 542.264 576.443 539.571 575.15C535.077 572.99 532.064 569.95 532.824 568.363C533.131 567.737 533.997 567.43 535.211 567.43C537.024 567.43 539.637 568.11 542.331 569.417C546.824 571.577 549.837 574.617 549.077 576.203C548.771 576.83 547.904 577.137 546.691 577.137Z" fill="#FDDC97"/>
<path d="M479.411 589.87C481.757 589.803 489.677 588.337 494.224 588.63C498.771 588.923 502.731 591.71 508.744 592.59C514.771 593.47 521.224 595.817 528.411 594.203C532.597 593.27 536.544 593.377 540.011 593.483C542.477 593.55 544.704 593.63 546.597 593.323C551.144 592.59 558.157 589.79 562.877 590.603C567.584 591.417 552.904 595.91 551.291 596.67C549.677 597.43 541.024 600.07 527.971 600.07C514.904 600.07 513.437 601.683 510.357 600.07C507.277 598.47 479.411 589.87 479.411 589.87Z" fill="#FFFBEE"/>
<path d="M485.384 603.03C484.357 603.03 483.371 602.977 482.437 602.87C482.437 602.817 482.437 602.75 482.437 602.683C482.437 600.07 480.317 597.95 477.704 597.95C477.704 597.95 477.704 597.95 477.691 597.95C478.984 597.377 480.824 596.963 482.971 596.777C483.504 599.817 486.157 602.123 489.344 602.123C491.611 602.123 493.597 600.963 494.757 599.203C494.891 599.417 494.957 599.63 494.957 599.843C494.957 601.603 490.664 603.03 485.384 603.03Z" fill="#FCEDC6"/>
<path d="M675.744 601.057C663.131 601.057 640.757 597.564 630.091 594.63C629.197 593.11 628.064 591.457 626.677 589.803C628.584 589.057 631.344 588.417 633.944 587.897C639.744 591.884 647.757 595.244 658.744 597.31V597.403C661.371 597.857 663.891 598.203 666.317 598.47C668.731 598.763 671.264 599.004 673.931 599.177L673.944 599.084C675.451 599.15 676.917 599.19 678.331 599.19C679.131 599.19 679.904 599.177 680.664 599.15C679.824 599.79 678.877 600.417 677.824 601.017C677.171 601.044 676.477 601.057 675.744 601.057Z" fill="#FCEDC6"/>
<path d="M678.331 599.19C676.918 599.19 675.451 599.15 673.944 599.084L673.931 599.177C671.264 599.004 668.731 598.763 666.317 598.47C663.891 598.203 661.371 597.857 658.744 597.403V597.31C647.757 595.244 639.744 591.883 633.944 587.897C637.877 587.137 641.491 586.684 641.491 586.684C641.491 586.684 672.571 592.55 672.677 592.697C672.744 592.803 679.144 596.03 682.211 597.844C681.757 598.284 681.238 598.724 680.664 599.15C679.904 599.177 679.131 599.19 678.331 599.19Z" fill="#CA2D3A"/>
<path d="M682.731 600.377C683.144 599.937 683.504 599.483 683.811 599.03C683.624 599.47 682.957 600.15 682.731 600.377Z" fill="#EAE7CF"/>
<path d="M682.677 600.43C683.117 599.963 683.504 599.483 683.824 599.003C683.824 599.017 683.811 599.017 683.811 599.03C683.504 599.483 683.144 599.937 682.731 600.377C682.704 600.39 682.691 600.417 682.677 600.43Z" fill="#FCEDC6"/>
<path d="M677.824 601.017C678.877 600.417 679.824 599.79 680.664 599.15C681.744 599.124 682.797 599.07 683.824 599.003C683.504 599.483 683.117 599.963 682.677 600.43C682.664 600.43 682.664 600.444 682.664 600.444C681.464 600.764 679.811 600.95 677.824 601.017Z" fill="#F9E0A5"/>
<path d="M680.664 599.15C681.237 598.723 681.757 598.284 682.211 597.844C683.224 598.43 683.877 598.883 683.824 599.003C682.797 599.07 681.744 599.123 680.664 599.15Z" fill="#C82B30"/>
<path d="M559.771 599.844C554.891 599.844 550.864 598.643 550.277 597.07C550.731 596.91 551.077 596.777 551.291 596.67C552.131 596.27 556.517 594.87 559.864 593.497C565.117 593.51 569.357 594.923 569.357 596.67C569.357 597.683 567.917 598.59 565.691 599.177C564.437 599.35 563.157 599.563 561.944 599.763C561.251 599.817 560.517 599.844 559.771 599.844Z" fill="#FCEDC6"/>
<path d="M550.278 597.07C550.224 596.937 550.198 596.803 550.198 596.67C550.198 594.91 554.491 593.497 559.771 593.497C559.798 593.497 559.838 593.497 559.864 593.497C556.518 594.87 552.131 596.27 551.291 596.67C551.078 596.777 550.731 596.91 550.278 597.07Z" fill="#FCEDC6"/>
<path d="M578.357 585.283C575.664 585.283 573.491 584.55 573.491 583.67C573.491 582.763 575.664 582.043 578.357 582.043C581.051 582.043 583.224 582.763 583.224 583.67C583.224 584.55 581.051 585.283 578.357 585.283Z" fill="#FCEDC6"/>
<path d="M647.464 605.217C644.784 605.217 642.597 604.497 642.597 603.603C642.597 602.71 644.784 601.99 647.464 601.99C650.157 601.99 652.344 602.71 652.344 603.603C652.344 604.497 650.157 605.217 647.464 605.217Z" fill="#FCEDC6"/>
<path d="M502.064 608.283C499.171 608.283 496.837 607.31 496.837 606.097C496.837 604.883 499.171 603.91 502.064 603.91C504.944 603.91 507.277 604.883 507.277 606.097C507.277 607.31 504.944 608.283 502.064 608.283Z" fill="#FCEDC6"/>
<path d="M505.584 599.737C504.091 599.737 502.891 599.23 502.891 598.603C502.891 598.243 503.318 597.91 503.958 597.71C505.518 598.23 506.891 598.71 507.984 599.11C507.544 599.483 506.624 599.737 505.584 599.737Z" fill="#FCEDC6"/>
<path d="M507.984 599.11C506.891 598.71 505.517 598.23 503.957 597.71C504.411 597.563 504.971 597.483 505.584 597.483C507.064 597.483 508.264 597.99 508.264 598.603C508.264 598.79 508.157 598.963 507.984 599.11Z" fill="#FCEDC6"/>
<path d="M574.237 599.057C574.237 599.057 585.291 577.924 603.811 578.31C622.317 578.684 631.784 595.79 632.491 600.27C632.491 600.27 602.384 612.163 574.237 599.057Z" fill="#FABD40"/>
<path d="M598.757 603.47C594.117 603.47 589.717 602.39 585.557 601.99C581.344 601.577 578.077 600.203 574.944 599.377C574.784 599.31 574.624 599.23 574.464 599.163C574.384 599.123 574.304 599.097 574.237 599.057C574.237 599.057 574.237 599.043 574.251 599.03C574.651 598.27 583.277 582.363 597.797 578.95C599.544 578.537 601.384 578.297 603.304 578.297C603.824 578.297 604.344 578.323 604.877 578.35V578.363L604.611 578.55C595.877 584.59 599.304 598.31 609.824 599.71C613.331 600.177 616.757 600.377 620.024 600.377C622.077 600.377 624.064 600.297 625.971 600.163C625.064 600.43 624.197 600.67 623.397 600.843C618.891 601.803 612.371 600.657 605.277 602.617C603.051 603.243 600.877 603.47 598.757 603.47Z" fill="#F6AD38"/>
<path d="M621.811 591.537C619.997 591.537 617.384 590.844 614.691 589.55C610.198 587.39 607.171 584.35 607.944 582.764C608.251 582.137 609.104 581.83 610.331 581.83C612.144 581.83 614.757 582.51 617.451 583.817C621.944 585.977 624.958 589.017 624.198 590.604C623.891 591.23 623.024 591.537 621.811 591.537Z" fill="#FDDC97"/>
<path d="M556.131 600.723C558.464 600.55 566.304 598.683 570.864 598.75C575.411 598.817 579.504 601.403 585.557 601.99C591.611 602.563 598.171 604.59 605.277 602.617C612.371 600.657 618.891 601.803 623.397 600.843C627.904 599.883 634.771 596.737 639.517 597.31C644.264 597.883 629.837 603.097 628.264 603.95C626.691 604.79 618.171 607.857 605.131 608.51C592.091 609.15 590.704 610.843 587.544 609.377C584.384 607.923 556.131 600.723 556.131 600.723Z" fill="#FFFBEE"/>
<path d="M570.931 605.523C568.237 605.523 566.051 604.803 566.051 603.91C566.051 603.723 566.157 603.537 566.344 603.363C568.637 603.963 571.104 604.617 573.531 605.27C572.784 605.43 571.891 605.523 570.931 605.523Z" fill="#FCEDC6"/>
<path d="M573.531 605.27C571.104 604.617 568.637 603.963 566.344 603.363C567.011 602.737 568.811 602.297 570.931 602.297C573.611 602.297 575.797 603.017 575.797 603.91C575.797 604.483 574.891 604.99 573.531 605.27Z" fill="#FCEDC6"/>
<path d="M471.944 585.283C471.944 588.857 469.051 591.763 465.464 591.763C461.891 591.763 458.984 588.857 458.984 585.283C458.984 581.697 461.891 578.803 465.464 578.803C469.051 578.803 471.944 581.697 471.944 585.283Z" fill="#8DB03C"/>
<path d="M470.024 580.67C470.277 581.363 470.437 582.097 470.437 582.883C470.437 586.457 467.531 589.363 463.957 589.363C462.171 589.363 460.571 588.643 459.397 587.483C460.304 589.977 462.664 591.763 465.464 591.763C469.051 591.763 471.944 588.857 471.944 585.283C471.944 583.47 471.211 581.843 470.024 580.67Z" fill="#86A53D"/>
<path d="M462.624 584.163C461.944 584.163 461.397 583.923 461.157 583.47C460.731 582.63 461.517 581.377 462.917 580.657C463.544 580.337 464.184 580.177 464.744 580.177C465.424 580.177 465.984 580.417 466.224 580.87C466.651 581.71 465.864 582.963 464.464 583.683C463.837 584.003 463.184 584.163 462.624 584.163Z" fill="#AFC877"/>
<path d="M461.477 594.07C461.477 597.657 458.584 600.55 454.997 600.55C451.424 600.55 448.517 597.657 448.517 594.07C448.517 590.497 451.424 587.603 454.997 587.603C458.584 587.603 461.477 590.497 461.477 594.07Z" fill="#8DB03C"/>
<path d="M459.557 589.47C459.811 590.163 459.971 590.897 459.971 591.683C459.971 595.257 457.064 598.163 453.491 598.163C451.717 598.163 450.104 597.443 448.931 596.283C449.837 598.777 452.211 600.55 454.997 600.55C458.584 600.55 461.477 597.657 461.477 594.07C461.477 592.27 460.744 590.643 459.557 589.47Z" fill="#86A53D"/>
<path d="M452.171 592.963C451.477 592.963 450.931 592.723 450.691 592.27C450.264 591.43 451.051 590.177 452.451 589.457C453.077 589.137 453.731 588.977 454.277 588.977C454.971 588.977 455.517 589.217 455.757 589.67C456.184 590.51 455.397 591.763 453.997 592.483C453.371 592.803 452.717 592.963 452.171 592.963Z" fill="#AFC877"/>
<path d="M477.091 595.643C477.091 599.23 474.184 602.123 470.611 602.123C467.024 602.123 464.131 599.23 464.131 595.643C464.131 592.07 467.024 589.163 470.611 589.163C474.184 589.163 477.091 592.07 477.091 595.643Z" fill="#8DB03C"/>
<path d="M475.157 591.043C475.411 591.737 475.571 592.47 475.571 593.243C475.571 596.83 472.664 599.737 469.091 599.737C467.317 599.737 465.704 599.017 464.544 597.857C465.437 600.337 467.811 602.123 470.611 602.123C474.184 602.123 477.091 599.23 477.091 595.643C477.091 593.843 476.344 592.217 475.157 591.043Z" fill="#86A53D"/>
<path d="M467.771 594.537C467.091 594.537 466.531 594.297 466.291 593.844C465.864 593.004 466.651 591.75 468.051 591.03C468.677 590.71 469.331 590.55 469.891 590.55C470.571 590.55 471.117 590.777 471.357 591.244C471.784 592.07 470.997 593.337 469.597 594.044C468.971 594.377 468.331 594.537 467.771 594.537Z" fill="#AFC877"/>
<path d="M486.011 589.87C486.011 592.483 483.891 594.603 481.277 594.603C478.651 594.603 476.531 592.483 476.531 589.87C476.531 587.257 478.651 585.137 481.277 585.137C483.891 585.137 486.011 587.257 486.011 589.87Z" fill="#8DB03C"/>
<path d="M484.597 586.497C484.784 587.003 484.904 587.55 484.904 588.11C484.904 590.737 482.784 592.857 480.171 592.857C478.864 592.857 477.691 592.337 476.837 591.483C477.504 593.297 479.224 594.603 481.277 594.603C483.891 594.603 486.011 592.483 486.011 589.87C486.011 588.55 485.464 587.363 484.597 586.497Z" fill="#86A53D"/>
<path d="M479.197 589.057C478.704 589.057 478.291 588.884 478.117 588.55C477.811 587.937 478.384 587.017 479.411 586.497C479.864 586.257 480.344 586.137 480.744 586.137C481.251 586.137 481.651 586.31 481.824 586.644C482.131 587.257 481.557 588.177 480.544 588.697C480.077 588.937 479.611 589.057 479.197 589.057Z" fill="#AFC877"/>
<path d="M482.437 602.683C482.437 605.31 480.317 607.43 477.704 607.43C475.091 607.43 472.971 605.31 472.971 602.683C472.971 600.07 475.091 597.95 477.704 597.95C480.317 597.95 482.437 600.07 482.437 602.683Z" fill="#8DB03C"/>
<path d="M481.037 599.323C481.211 599.83 481.331 600.363 481.331 600.937C481.331 603.55 479.211 605.67 476.597 605.67C475.304 605.67 474.131 605.15 473.277 604.31C473.931 606.123 475.664 607.43 477.704 607.43C480.317 607.43 482.437 605.31 482.437 602.683C482.437 601.377 481.904 600.177 481.037 599.323Z" fill="#86A53D"/>
<path d="M475.624 601.87C475.131 601.87 474.731 601.697 474.558 601.363C474.251 600.763 474.824 599.844 475.838 599.31C476.304 599.084 476.771 598.963 477.184 598.963C477.677 598.963 478.077 599.137 478.251 599.47C478.571 600.083 477.998 601.004 476.971 601.524C476.518 601.764 476.038 601.87 475.624 601.87Z" fill="#AFC877"/>
<path d="M495.824 595.643C495.824 599.23 492.931 602.123 489.344 602.123C485.771 602.123 482.864 599.23 482.864 595.643C482.864 592.07 485.771 589.163 489.344 589.163C492.931 589.163 495.824 592.07 495.824 595.643Z" fill="#8DB03C"/>
<path d="M493.904 591.043C494.157 591.737 494.317 592.47 494.317 593.243C494.317 596.83 491.411 599.737 487.837 599.737C486.051 599.737 484.451 599.017 483.277 597.857C484.184 600.337 486.544 602.123 489.344 602.123C492.931 602.123 495.824 599.23 495.824 595.643C495.824 593.843 495.091 592.217 493.904 591.043Z" fill="#86A53D"/>
<path d="M486.504 594.537C485.824 594.537 485.277 594.297 485.037 593.844C484.611 593.004 485.397 591.75 486.797 591.03C487.424 590.71 488.064 590.55 488.624 590.55C489.304 590.55 489.864 590.777 490.104 591.244C490.531 592.07 489.744 593.337 488.344 594.044C487.717 594.377 487.064 594.537 486.504 594.537Z" fill="#AFC877"/>
</g>
<defs>
<clipPath id="clip0_1_692">
<rect width="834" height="1194" fill="white" transform="translate(1194 0.333374) rotate(90)"/>
</clipPath>
</defs>
</svg>
