<svg width="1194" height="835" viewBox="0 0 1194 835" fill="none" xmlns="http://www.w3.org/2000/svg">
<g clip-path="url(#clip0_1_692)">
<path d="M627.837 296.817C627.837 296.817 633.477 338.644 633.13 360.324C632.783 382.017 618.677 369.27 618.677 369.27C618.677 369.27 597.677 341.39 597.677 340.364C597.677 339.324 627.837 296.817 627.837 296.817Z" fill="#FEB546"/>
<path d="M428.317 505.591C428.317 505.591 418.33 511.417 415.237 511.257C412.143 511.097 341.223 484.591 341.223 484.591L325.05 511.257C325.05 511.257 410.757 581.657 440.023 579.591C469.277 577.537 486.69 539.137 486.69 539.137C486.69 539.137 478.237 512.791 476.503 511.257C474.783 509.724 428.317 505.591 428.317 505.591Z" fill="#FFC0BB"/>
<path d="M483.89 307.097C483.89 307.097 459.864 328.737 457.57 334.911C450.17 354.817 463.09 380.63 463.09 380.63L483.89 307.097Z" fill="#FFC0BB"/>
<path d="M585.97 545.524L583.904 645.004C583.904 645.004 602.157 653.257 618.677 649.817C635.197 646.377 652.064 537.244 644.837 517.631C637.61 498.017 599.744 499.044 599.05 500.084C598.37 501.111 585.97 545.524 585.97 545.524Z" fill="#FFC0BB"/>
<path d="M454.13 439.497C454.13 439.497 423.837 489.751 416.957 501.804C416.957 501.804 446.263 546.204 486.69 545.524C486.69 545.524 531.157 492.857 535.85 492.511C540.53 492.164 577.023 554.471 577.023 554.471C577.023 554.471 636.57 539.324 652.064 518.324L610.757 449.137C610.757 449.137 551.557 429.511 549.49 429.857C547.423 430.204 454.13 439.497 454.13 439.497Z" fill="#CF283C"/>
<path d="M554.717 274.057L607.05 281.644C607.05 281.644 610.237 292.164 609.037 293.03C607.837 293.884 599.223 301.63 591.143 302.497C583.05 303.35 559.637 305.417 556.023 299.23C552.41 293.03 552.237 286.137 552.33 284.084C552.41 282.017 554.717 274.057 554.717 274.057Z" fill="#FFC0BB"/>
<path d="M612.223 282.444C610.65 282.204 608.917 281.937 607.05 281.644C581.317 305.551 554.717 274.057 554.717 274.057C531.504 271.191 510.224 269.684 505.944 273.231C497.69 280.084 490.623 290.444 490.623 290.444C490.623 290.444 443.637 403.524 442.597 440.697C442.597 440.697 514.37 497.497 618.677 458.777C618.677 458.777 617.13 386.337 627.97 318.257C627.97 318.257 635.37 285.977 612.223 282.444Z" fill="#F4A640"/>
<path d="M491.317 540.084C453.01 533.151 431.357 506.991 422.21 492.817C419.957 496.617 418.117 499.764 416.957 501.804C416.957 501.804 446.263 546.204 486.69 545.524C486.69 545.524 488.45 543.431 491.317 540.084Z" fill="#DCEAF4"/>
<path d="M577.023 554.47C577.023 554.47 636.57 539.324 652.063 518.324L647.85 511.257C621.263 534.897 585.85 543.51 572.117 546.19C575.117 551.204 577.023 554.47 577.023 554.47Z" fill="#DCEAF4"/>
<path d="M546.077 472.284C482.53 472.284 442.597 440.697 442.597 440.697C443.637 403.524 490.623 290.444 490.623 290.444C490.623 290.444 497.69 280.084 505.944 273.231L505.957 273.217H505.97C505.97 273.204 505.97 273.204 505.984 273.204C505.984 273.204 505.984 273.191 505.997 273.191L506.01 273.177C506.024 273.164 506.024 273.164 506.037 273.164C507.61 271.951 511.224 271.351 516.25 271.204C497.73 328.471 477.837 444.657 618.597 450.471C618.61 455.457 618.664 458.391 618.677 458.737C618.677 458.751 618.677 458.764 618.677 458.764C618.677 458.777 618.677 458.777 618.677 458.777C592.157 468.617 567.744 472.297 546.077 472.284Z" fill="#F19432"/>
<path d="M687.744 371.897C686.504 370.524 667.09 371.191 667.264 370.004C667.437 368.804 687.384 365.964 686.864 363.311C686.33 360.657 664.583 364.511 665.023 362.231C665.463 359.951 687.85 356.577 686.983 354.231C686.25 352.271 657.423 355.991 649.45 357.057C648.423 357.191 647.65 356.124 648.104 355.177C655.05 340.764 658.437 338.684 656.69 338.284C655.357 337.977 635.09 350.884 625.397 359.964C616.41 359.871 559.864 359.191 556.544 358.084C552.93 356.884 542.77 332.964 542.77 332.964C542.77 332.964 519.197 340.191 517.81 340.697C516.437 341.217 504.73 358.084 504.73 358.084C504.73 358.084 511.45 390.444 536.237 395.097C561.01 399.737 626.77 391.817 626.77 391.817C631.304 390.924 646.823 389.351 646.823 389.351C682.157 385.297 681.983 384.417 682.05 383.097C682.117 381.791 667.13 379.297 667.744 377.911C668.357 376.511 688.997 373.271 687.744 371.897Z" fill="#FFC0BB"/>
<path d="M523.143 279.217C519.09 272.697 510.783 270.004 503.45 272.204C497.117 274.097 490.477 278.511 488.037 288.377C482.877 309.297 493.717 357.564 500.17 365.057C500.17 365.057 534.517 357.564 552.33 333.564C552.33 333.564 542.85 310.964 523.143 279.217Z" fill="#FEB546"/>
<path d="M575.237 551.444C567.877 539.004 540.09 492.51 535.89 492.51C535.877 492.51 535.863 492.51 535.85 492.51C535.85 492.51 541.837 488.724 547.397 488.724C549.144 488.724 550.864 489.11 552.33 490.097C556.517 492.924 580.45 522.097 595.117 540.19C585.477 543.35 577.263 545.19 572.117 546.19C573.37 548.284 574.423 550.07 575.237 551.444Z" fill="#C72133"/>
<path d="M577.023 554.47C577.023 554.457 577.023 554.457 577.023 554.457C576.943 554.337 576.303 553.257 575.237 551.444C574.423 550.07 573.37 548.284 572.117 546.19C577.263 545.19 585.477 543.35 595.117 540.19C597.223 542.777 599.13 545.15 600.77 547.177C587.903 551.657 577.69 554.297 577.05 554.457C577.037 554.47 577.037 554.47 577.037 554.47C577.037 554.47 577.037 554.47 577.023 554.47Z" fill="#D4C3CF"/>
<path d="M931.53 652.751C933.477 640.617 947.33 632.524 947.33 632.524C938.037 630.977 923.317 639.231 923.317 639.231C924.41 628.417 943.45 605.671 943.45 605.671C918.41 613.417 900.597 638.711 900.597 638.711C900.223 631.911 906.023 610.831 906.023 610.831C894.81 622.177 887.05 634.324 882.37 642.871C874.237 641.924 868.93 641.591 868.93 641.591C868.93 641.591 586.237 640.524 535.85 636.391C502.05 633.617 441.317 630.124 392.103 631.097C392.13 619.791 398.37 611.271 398.37 611.271C391.317 615.737 376.517 627.791 376.517 627.791C371.69 620.391 378.677 597.151 378.677 597.151C372.237 602.311 359.983 628.137 359.983 628.137C356.543 623.937 359.983 586.484 359.983 586.484C352.583 596.457 344.503 626.417 344.503 626.417C340.53 619.097 325.903 610.057 325.903 610.057C333.637 617.684 334.757 628.497 334.423 635.964C333.77 636.111 333.117 636.244 332.49 636.391C332.49 636.391 256.89 648.924 253.45 667.444C250.01 685.964 254.143 693.537 233.49 707.99C212.837 722.457 242.437 746.551 297.517 744.484C352.583 742.417 570.397 749.297 604.343 749.297C638.29 749.297 926.757 747.23 961.184 698.351C977.637 674.991 957.263 660.991 931.53 652.751Z" fill="#99C049"/>
<path d="M405.637 508.177C385.543 501.151 341.223 484.591 341.223 484.591L325.05 511.257C325.05 511.257 350.33 532.017 378.117 550.671C385.37 529.764 398.21 515.271 405.637 508.177Z" fill="#DCEAF4"/>
<path d="M585.49 568.711L583.904 645.004C583.904 645.004 602.157 653.257 618.677 649.817C627.984 647.884 637.41 612.364 642.57 578.231C615.037 584.311 593.437 573.564 585.49 568.711Z" fill="#DCEAF4"/>
<path d="M367.157 543.124C373.53 523.777 385.837 510.977 394.197 504.097C392.53 503.497 390.81 502.871 389.05 502.244C381.757 508.564 372.543 518.617 366.103 532.871C365.037 535.231 364.05 537.711 363.17 540.297C364.477 541.231 365.81 542.177 367.157 543.124Z" fill="#CF283C"/>
<path d="M376.97 497.831C369.81 504.191 361.01 514.031 354.81 527.777C354.09 529.364 353.41 531.017 352.757 532.724C354.05 533.671 355.357 534.644 356.703 535.617C363.05 518.231 374.103 506.417 382.063 499.697C380.37 499.071 378.677 498.457 376.97 497.831Z" fill="#CF283C"/>
<path d="M584.863 598.75L584.757 603.977C593.517 608.204 607.063 612.99 623.623 612.99C627.583 612.99 631.73 612.697 636.01 612.07C636.41 610.47 636.783 608.83 637.17 607.164C614.13 610.964 595.103 603.95 584.863 598.75Z" fill="#CF283C"/>
<path d="M873.063 681.484C873.063 692.017 741.677 700.551 579.61 700.551C417.53 700.551 286.157 692.017 286.157 681.484C286.157 670.951 417.53 662.417 579.61 662.417C741.677 662.417 873.063 670.951 873.063 681.484Z" fill="#82A331"/>
<path d="M585.117 586.484L585.01 591.711C593.783 595.911 607.223 600.591 623.623 600.591C628.45 600.591 633.557 600.177 638.863 599.217C639.197 597.591 639.517 595.951 639.837 594.297C615.797 599.084 595.823 591.871 585.117 586.484Z" fill="#CF283C"/>
<path d="M672.13 683.857L578.997 684.444C576.957 684.457 575.317 682.95 575.343 681.084L575.357 678.564C575.383 676.684 577.037 675.164 579.077 675.15L672.223 674.564C674.263 674.55 675.89 676.057 675.877 677.924L675.85 680.444C675.837 682.324 674.17 683.844 672.13 683.857Z" fill="#333333"/>
<path d="M580.25 646.884L576.69 672.777C576.25 675.964 578.157 678.844 580.703 678.831L669.29 678.271C671.583 678.257 673.877 676.924 675.103 674.444C676.37 671.884 676.65 668.044 672.73 662.924C664.904 652.671 638.864 650.311 626.197 641.591L584.943 641.857C582.637 641.871 580.65 644.004 580.25 646.884Z" fill="#CF283C"/>
<path d="M619.797 656.657C619.157 656.297 618.943 655.311 619.317 654.551C621.09 650.991 626.597 642.337 637.65 644.031C638.29 644.137 638.717 644.911 638.597 645.724V645.751C638.477 646.524 637.903 647.044 637.277 646.951C627.383 645.457 622.69 653.084 621.25 656.071C620.943 656.697 620.33 656.951 619.797 656.657Z" fill="white"/>
<path d="M628.97 659.924C628.33 659.564 628.103 658.577 628.477 657.817C630.25 654.27 635.77 645.604 646.81 647.31C647.45 647.404 647.877 648.177 647.757 648.99V649.017C647.65 649.79 647.063 650.31 646.45 650.217C636.557 648.724 631.863 656.35 630.423 659.337C630.117 659.977 629.49 660.23 628.97 659.924Z" fill="white"/>
<path d="M637.49 662.977C636.85 662.617 636.637 661.631 637.01 660.871C638.783 657.324 644.303 648.657 655.343 650.364C655.983 650.457 656.41 651.231 656.29 652.044V652.071C656.17 652.844 655.597 653.364 654.97 653.271C645.077 651.777 640.383 659.404 638.957 662.391C638.65 663.031 638.023 663.284 637.49 662.977Z" fill="white"/>
<path d="M580.69 678.831C578.397 678.831 576.623 676.497 576.623 673.697C576.623 673.391 576.637 673.084 576.69 672.777L578.983 656.124C579.49 656.084 580.037 656.057 580.61 656.057C587.397 656.057 598.09 659.457 604.343 678.684L580.703 678.831H580.69Z" fill="#C92230"/>
<path d="M267.623 544.537L306.877 460.071C307.743 458.217 309.797 457.377 311.49 458.204L313.757 459.297C315.437 460.111 316.117 462.271 315.25 464.111L275.997 548.577C275.143 550.431 273.077 551.271 271.383 550.444L269.117 549.351C267.437 548.537 266.77 546.377 267.623 544.537Z" fill="#333333"/>
<path d="M340.303 477.257L318.423 462.964C315.73 461.204 312.303 461.697 311.223 464.017L273.89 544.337C272.917 546.431 273.157 549.057 274.877 551.244C276.65 553.471 279.997 555.364 286.303 554.017C298.917 551.311 312.17 528.777 325.463 521.057L342.85 483.644C343.823 481.551 342.743 478.844 340.303 477.257Z" fill="#CF283C"/>
<path d="M314.584 508.831C315.17 508.404 316.17 508.631 316.69 509.297C319.144 512.417 324.624 521.097 318.357 530.364C317.997 530.897 317.117 530.951 316.437 530.497L316.41 530.484C315.757 530.057 315.544 529.311 315.89 528.791C321.464 520.471 316.57 512.977 314.49 510.404C314.05 509.857 314.077 509.191 314.584 508.831Z" fill="white"/>
<path d="M307.703 515.724C308.303 515.297 309.29 515.524 309.81 516.191C312.277 519.311 317.743 527.991 311.49 537.257C311.13 537.791 310.237 537.844 309.57 537.391L309.543 537.377C308.89 536.937 308.663 536.204 309.01 535.684C314.597 527.364 309.69 519.87 307.61 517.297C307.17 516.75 307.21 516.071 307.703 515.724Z" fill="white"/>
<path d="M301.303 522.124C301.903 521.711 302.89 521.924 303.41 522.591C305.863 525.711 311.343 534.404 305.09 543.657C304.73 544.191 303.837 544.244 303.157 543.804L303.143 543.777C302.477 543.351 302.263 542.604 302.61 542.084C308.197 533.777 303.29 526.271 301.21 523.697C300.77 523.151 300.81 522.484 301.303 522.124Z" fill="white"/>
<path d="M308.397 485.937C306.21 485.937 303.837 485.777 301.263 485.457L311.223 464.017C311.863 462.644 313.33 461.911 314.983 461.911C316.117 461.911 317.33 462.257 318.423 462.964L332.49 472.151C330.437 477.591 324.637 485.937 308.397 485.937Z" fill="#C92230"/>
<path d="M849.623 623.67C849.623 659.897 820.21 689.257 783.93 689.257C747.65 689.257 718.237 659.897 718.237 623.67C718.237 587.444 747.65 558.084 783.93 558.084C820.21 558.084 849.623 587.444 849.623 623.67Z" fill="#DAEEF7"/>
<path d="M782.81 593.417L813.464 611.19L806.01 645.79L770.757 649.404L756.41 617.044L782.81 593.417Z" fill="#333333"/>
<path d="M841.397 591.884L841.13 591.844L829.983 613.71L847.37 631.057L849.303 630.07C849.517 627.964 849.623 625.83 849.623 623.67C849.623 612.137 846.637 601.297 841.397 591.884Z" fill="#333333"/>
<path d="M726.73 591.844L726.45 591.884C721.223 601.297 718.237 612.137 718.237 623.67C718.237 625.83 718.343 627.964 718.543 630.07L720.49 631.057L737.877 613.71L726.73 591.844Z" fill="#333333"/>
<path d="M807.93 684.737C817.73 680.897 826.383 674.764 833.237 667.004L813.01 667.55L807.93 684.737Z" fill="#333333"/>
<path d="M734.637 667.017C742.61 676.044 753.023 682.857 764.837 686.444L759.263 667.551L734.69 666.884L734.637 667.017Z" fill="#333333"/>
<path d="M764.943 560.871L784.317 574.137L801.97 560.591C796.237 558.951 790.183 558.084 783.93 558.084C777.33 558.084 770.957 559.057 764.943 560.871Z" fill="#333333"/>
<path d="M718.237 623.564C718.237 623.55 718.237 623.55 718.237 623.537C718.237 623.55 718.237 623.55 718.237 623.55C718.237 623.55 718.237 623.55 718.237 623.564ZM718.237 623.017C718.237 623.004 718.237 622.977 718.237 622.964C718.237 622.977 718.237 622.977 718.237 622.977C718.237 622.99 718.237 622.99 718.237 623.004C718.237 623.004 718.237 623.004 718.237 623.017ZM718.237 622.897C718.237 622.884 718.237 622.884 718.237 622.87C718.237 622.884 718.237 622.897 718.237 622.897ZM718.25 622.564C718.25 622.564 718.25 622.55 718.25 622.537C718.25 622.55 718.25 622.55 718.25 622.564ZM718.25 622.457C718.25 622.444 718.25 622.43 718.25 622.417C718.25 622.43 718.25 622.444 718.25 622.444C718.25 622.444 718.25 622.444 718.25 622.457ZM718.25 622.11C718.25 622.11 718.25 622.11 718.25 622.097V622.11Z" fill="#DAEEF7"/>
<path d="M783.93 689.257C747.65 689.257 718.237 659.897 718.237 623.67C718.237 625.83 718.343 627.964 718.543 630.07L720.49 631.057L737.877 613.71L726.73 591.844L726.45 591.884C729.903 585.67 734.343 580.084 739.543 575.324C737.437 581.75 736.277 588.63 736.277 595.764C736.277 631.99 765.69 661.35 801.97 661.35C819.077 661.35 834.65 654.817 846.343 644.11C843.543 652.644 839.037 660.417 833.223 667.004L813.01 667.55L807.93 684.737C801.29 687.337 794.13 688.897 786.65 689.204H786.637C786.53 689.204 786.423 689.204 786.317 689.217C786.303 689.217 786.303 689.217 786.303 689.217C786.197 689.217 786.09 689.217 785.97 689.217C785.97 689.23 785.97 689.23 785.957 689.23C785.903 689.23 785.863 689.23 785.81 689.23C785.797 689.23 785.797 689.23 785.783 689.23C785.677 689.23 785.57 689.23 785.477 689.244C785.463 689.244 785.45 689.244 785.45 689.244C785.397 689.244 785.343 689.244 785.29 689.244H785.277C785.223 689.244 785.184 689.244 785.13 689.244H785.117C785.063 689.244 785.01 689.244 784.957 689.244C784.957 689.244 784.944 689.244 784.93 689.244C784.837 689.244 784.73 689.244 784.623 689.257C784.61 689.257 784.61 689.257 784.597 689.257C784.544 689.257 784.49 689.257 784.45 689.257C784.437 689.257 784.423 689.257 784.423 689.257C784.37 689.257 784.33 689.257 784.29 689.257C784.277 689.257 784.264 689.257 784.264 689.257C784.21 689.257 784.157 689.257 784.103 689.257C784.103 689.257 784.09 689.257 784.077 689.257C784.023 689.257 783.984 689.257 783.93 689.257ZM734.69 666.884L734.637 667.017C742.61 676.044 753.023 682.857 764.837 686.444L759.264 667.55L734.69 666.884ZM718.237 623.67C718.237 623.63 718.237 623.59 718.237 623.564C718.237 623.55 718.237 623.55 718.237 623.55C718.237 623.59 718.237 623.63 718.237 623.67ZM718.237 623.497C718.237 623.484 718.237 623.47 718.237 623.444C718.237 623.444 718.237 623.43 718.237 623.417C718.237 623.444 718.237 623.47 718.237 623.497ZM718.237 623.377C718.237 623.364 718.237 623.35 718.237 623.337C718.237 623.324 718.237 623.31 718.237 623.297C718.237 623.324 718.237 623.35 718.237 623.377ZM718.237 623.244V623.23C718.237 623.217 718.237 623.204 718.237 623.19C718.237 623.177 718.237 623.164 718.237 623.15C718.237 623.177 718.237 623.217 718.237 623.244ZM718.237 623.124C718.237 623.11 718.237 623.084 718.237 623.07C718.237 623.057 718.237 623.03 718.237 623.017C718.237 623.004 718.237 623.004 718.237 623.004C718.237 623.044 718.237 623.084 718.237 623.124ZM718.237 622.977C718.237 622.977 718.237 622.977 718.237 622.964C718.237 622.95 718.237 622.924 718.237 622.897C718.237 622.897 718.237 622.884 718.237 622.87C718.237 622.91 718.237 622.937 718.237 622.977ZM718.237 622.83C718.237 622.817 718.237 622.804 718.237 622.79C718.237 622.777 718.237 622.764 718.237 622.75C718.237 622.75 718.237 622.75 718.237 622.737C718.237 622.777 718.237 622.804 718.237 622.83ZM718.237 622.697V622.684C718.237 622.67 718.237 622.657 718.237 622.644C718.237 622.63 718.25 622.617 718.25 622.604C718.237 622.644 718.237 622.67 718.237 622.697ZM718.25 622.577C718.25 622.577 718.25 622.577 718.25 622.564C718.25 622.55 718.25 622.55 718.25 622.537C718.25 622.51 718.25 622.484 718.25 622.457C718.25 622.497 718.25 622.537 718.25 622.577ZM718.25 622.444C718.25 622.444 718.25 622.43 718.25 622.417C718.25 622.39 718.25 622.364 718.25 622.337V622.324C718.25 622.284 718.25 622.257 718.25 622.23C718.25 622.23 718.25 622.217 718.25 622.204V622.19C718.25 622.27 718.25 622.364 718.25 622.444ZM718.25 622.177C718.25 622.15 718.25 622.137 718.25 622.11V622.097C718.25 622.084 718.25 622.07 718.25 622.057C718.25 622.097 718.25 622.137 718.25 622.177ZM718.25 622.044C718.25 622.03 718.25 622.017 718.25 622.004V621.99C718.263 621.964 718.264 621.95 718.264 621.924C718.264 621.964 718.25 622.004 718.25 622.044Z" fill="#BADEEF"/>
<path d="M720.49 631.057L718.543 630.07C718.343 627.964 718.237 625.83 718.237 623.67C718.237 623.63 718.237 623.59 718.237 623.55C718.237 623.55 718.237 623.55 718.237 623.537C718.237 623.537 718.237 623.51 718.237 623.497C718.237 623.47 718.237 623.444 718.237 623.417C718.237 623.404 718.237 623.39 718.237 623.377C718.237 623.35 718.237 623.324 718.237 623.297C718.237 623.27 718.237 623.257 718.237 623.244C718.237 623.217 718.237 623.177 718.237 623.15C718.237 623.137 718.237 623.137 718.237 623.124C718.237 623.084 718.237 623.044 718.237 623.004C718.237 622.99 718.237 622.99 718.237 622.977C718.237 622.937 718.237 622.91 718.237 622.87C718.237 622.857 718.237 622.844 718.237 622.83C718.237 622.804 718.237 622.777 718.237 622.737C718.237 622.724 718.237 622.71 718.237 622.697C718.237 622.67 718.237 622.644 718.25 622.604C718.25 622.59 718.25 622.59 718.25 622.577C718.25 622.537 718.25 622.497 718.25 622.457C718.25 622.444 718.25 622.444 718.25 622.444C718.25 622.364 718.25 622.27 718.25 622.19V622.177C718.25 622.137 718.25 622.097 718.25 622.057V622.044C718.25 622.004 718.264 621.964 718.264 621.924V621.91C718.264 621.737 718.263 621.564 718.277 621.377C718.637 610.71 721.57 600.684 726.45 591.897V591.884L726.73 591.844L737.877 613.71L720.49 631.057Z" fill="#2C3031"/>
<path d="M807.93 684.737L813.01 667.55L833.223 667.004C826.383 674.764 817.73 680.884 807.93 684.737Z" fill="#2C3031"/>
<path d="M764.837 686.444C753.023 682.857 742.61 676.044 734.637 667.017L734.69 666.884L759.263 667.551L764.837 686.444Z" fill="#2C3031"/>
<path d="M831.303 604.497C826.583 604.497 820.384 602.484 814.397 598.657C804.264 592.177 798.57 582.977 801.69 578.097C802.97 576.097 805.517 575.137 808.77 575.137C813.49 575.137 819.69 577.15 825.677 580.977C832.77 585.51 837.69 591.377 838.93 596.164L834.93 604.004C833.864 604.337 832.65 604.497 831.303 604.497Z" fill="#EDF7FB"/>
<path d="M834.93 604.004L838.93 596.164C839.464 598.217 839.317 600.071 838.383 601.537C837.637 602.711 836.45 603.524 834.93 604.004Z" fill="#999999"/>
<path d="M604.343 749.297C574.823 749.297 406.277 744.097 326.597 744.097C314.65 744.097 304.69 744.217 297.517 744.484C295.277 744.564 293.09 744.604 290.93 744.604C251.637 744.604 226.903 731.004 226.89 718.417C226.877 714.737 228.997 711.137 233.49 707.99C254.143 693.537 250.01 685.964 253.45 667.444C256.89 648.924 332.49 636.391 332.49 636.391C333.117 636.244 333.77 636.111 334.423 635.964C334.463 635.244 334.477 634.484 334.477 633.697C334.477 626.417 332.877 616.937 325.903 610.057C325.903 610.057 340.53 619.097 344.503 626.417C344.503 626.417 352.583 596.457 359.983 586.484C359.983 586.484 358.45 603.151 358.45 615.484C358.463 621.657 358.837 626.737 359.983 628.137C359.983 628.137 372.237 602.311 378.677 597.151C378.677 597.151 374.81 610.017 374.81 619.657C374.823 622.964 375.277 625.897 376.517 627.791C376.517 627.791 391.317 615.737 398.37 611.271C398.37 611.271 392.13 619.791 392.103 631.097C397.85 630.991 403.757 630.937 409.743 630.937C419.09 630.937 428.677 631.057 438.25 631.284C407.41 639.231 375.863 649.497 363.17 660.057C358.263 664.124 358.797 666.831 363.023 668.617C315.277 672.004 286.157 676.524 286.157 681.484C286.157 690.07 373.29 697.324 493.197 699.711C496.757 708.884 503.583 716.044 525.223 716.044C526.93 716.044 528.73 716.004 530.637 715.911C558.463 714.564 641.157 703.03 696.663 703.03C726.157 703.03 747.983 706.283 749.823 716.044C751.677 725.79 778.61 730.95 812.797 730.95C877.343 730.95 967.703 712.551 963.663 671.844C968.517 678.964 968.703 687.671 961.183 698.351C926.757 747.23 638.29 749.297 604.343 749.297Z" fill="#8DB73F"/>
<path d="M493.197 699.711C373.29 697.324 286.157 690.07 286.157 681.484C286.157 676.524 315.277 672.004 363.023 668.617C370.103 671.617 387.543 672.044 407.183 672.044C411.117 672.044 415.157 672.031 419.21 672.004C423.263 671.991 427.33 671.977 431.357 671.977C458.37 671.977 483.45 672.751 486.69 679.497C489.837 686.057 490.73 693.364 493.197 699.711Z" fill="#789B2A"/>
<path d="M564.944 254.857L559.904 278.071L595.197 284.804L605.637 251.977L564.944 254.857Z" fill="#FFC0BB"/>
<path d="M562.023 268.311C568.823 272.884 580.023 278.204 596.783 279.857L605.637 251.977L564.943 254.857L562.023 268.311Z" fill="#F99893"/>
<path d="M665.277 198.471C660.41 206.257 661.53 215.724 667.784 219.617C674.024 223.497 683.024 220.337 687.877 212.551C692.73 204.764 691.61 195.297 685.37 191.404C679.13 187.524 670.13 190.684 665.277 198.471Z" fill="#F99893"/>
<path d="M661.677 236.524C667.557 226.431 671.543 215.337 674.223 205.524C674.81 203.417 675.503 201.351 676.237 199.297C679.21 190.991 680.73 181.911 680.33 172.231C679.01 141.097 656.93 114.004 626.65 106.444C585.863 96.2706 546.104 122.951 539.197 163.231C535.224 160.031 530.397 158.631 525.73 159.817C516.784 162.084 511.837 173.004 514.704 184.177C517.557 195.364 527.143 202.591 536.09 200.311C537.343 199.991 538.49 199.497 539.57 198.871C537.184 233.737 560.757 265.031 594.583 270.284C620.397 274.297 647.463 262.004 661.677 236.524Z" fill="#FFC0BB"/>
<path d="M602.157 192.831C601.623 196.217 598.464 198.537 595.064 198.004C591.677 197.484 589.357 194.311 589.877 190.924C590.41 187.537 593.57 185.231 596.97 185.751C600.357 186.284 602.677 189.444 602.157 192.831Z" fill="#333333"/>
<path d="M651.037 204.777C650.517 208.164 647.343 210.484 643.957 209.95C640.57 209.43 638.25 206.257 638.77 202.87C639.29 199.484 642.463 197.177 645.85 197.697C649.237 198.23 651.557 201.39 651.037 204.777Z" fill="#333333"/>
<path d="M611.437 181.831C608.624 180.137 605.904 178.697 603.13 177.577C600.37 176.444 597.557 175.711 594.717 175.417C591.89 175.164 588.983 175.151 586.077 175.777C584.423 176.017 585.797 175.737 581.637 176.777C580.13 177.177 578.677 177.777 577.023 178.124C578.13 176.937 579.33 175.791 580.664 174.791C582.077 173.964 583.45 172.897 585.077 172.391C588.183 171.004 591.757 170.617 595.21 170.951C598.663 171.311 602.01 172.577 604.81 174.471C607.583 176.404 609.984 178.844 611.437 181.831Z" fill="#752911"/>
<path d="M632.663 187.231C635.183 185.071 638.37 183.791 641.677 183.124C644.997 182.497 648.557 182.684 651.877 183.724C658.33 185.804 663.157 190.244 665.703 197.551C662.983 195.604 658.97 190.804 650.557 188.017C647.837 187.151 644.957 186.711 641.97 186.631C638.983 186.564 635.917 186.804 632.663 187.231Z" fill="#752911"/>
<path d="M619.317 187.884C617.77 190.977 616.757 194.284 616.13 197.697C615.824 199.417 615.637 201.164 615.65 202.964C615.703 204.777 615.89 206.657 616.783 208.564L617.21 209.257L617.583 209.871C617.73 210.151 617.983 210.404 618.077 210.684C618.37 211.244 618.517 211.831 618.53 212.417C618.624 213.591 617.917 214.777 616.943 215.791C614.837 217.817 611.504 218.657 608.104 218.911C611.317 219.991 615.303 220.071 618.557 217.777C620.157 216.671 621.517 214.764 621.637 212.511C621.664 211.964 621.65 211.404 621.504 210.871C621.437 210.311 621.223 209.831 621.023 209.324C620.837 208.804 620.504 208.417 620.237 207.964C620.064 207.711 620.037 207.631 619.957 207.484L619.717 207.097C619.143 205.937 618.903 204.391 618.757 202.831C618.57 201.257 618.664 199.617 618.664 197.977C618.797 194.671 619.09 191.311 619.317 187.884Z" fill="#F99893"/>
<path d="M693.97 160.351C693.97 160.351 705.344 161.977 709.89 158.217C709.89 158.217 695.064 159.937 692.517 142.924C689.97 125.911 678.357 106.764 657.784 97.4439C637.21 88.1239 580.41 79.5772 563.117 90.4839C545.824 101.377 537.664 113.817 534.77 132.911C531.877 152.017 524.424 158.631 518.77 157.564C518.77 157.564 525.17 161.844 533.25 159.484C533.25 159.484 530.89 167.631 522.957 168.444C522.957 168.444 541.064 170.711 547.264 160.844C547.264 160.844 542.664 181.351 537.064 184.991C537.064 184.991 552.517 182.297 563.57 149.324C563.57 149.324 626.264 140.191 641.97 115.777C641.97 115.777 628.05 140.617 617.89 142.777C617.89 142.777 641.997 149.391 660.237 128.617C660.237 128.617 675.117 146.151 677.797 156.364C680.384 166.217 678.984 189.284 678.664 190.897L691.997 167.231C691.997 167.231 697.157 173.484 706.744 171.804C706.744 171.804 695.037 165.684 693.97 160.351Z" fill="#752911"/>
<path d="M583.117 214.097C585.717 223.911 590.383 228.097 597.17 231.057C600.25 232.364 602.757 232.631 604.743 233.204C602.103 233.471 599.61 233.591 596.61 232.791C588.29 231.044 582.29 222.444 583.117 214.097Z" fill="#F99893"/>
</g>
<defs>
<clipPath id="clip0_1_692">
<rect width="834" height="1194" fill="white" transform="translate(1194 0.333374) rotate(90)"/>
</clipPath>
</defs>
</svg>
