<svg width="1194" height="835" viewBox="0 0 1194 835" fill="none" xmlns="http://www.w3.org/2000/svg">
<g clip-path="url(#clip0_1_692)">
<path d="M750.025 649.855L761.298 642.428L780.258 564.028L750.025 560.441V649.855Z" fill="#894031"/>
<path d="M719.28 558.388L727.795 649.855H750.025L764.629 558.388H719.28Z" fill="#934A38"/>
<path d="M930.36 649.855L919.087 642.428L900.128 564.028L930.36 560.441V649.855Z" fill="#894031"/>
<path d="M961.111 558.388L952.591 649.855H930.36L915.756 558.388H961.111Z" fill="#934A38"/>
<path d="M468.276 649.855L457.003 642.428L438.043 564.028L468.276 560.441V649.855Z" fill="#894031"/>
<path d="M499.021 558.388L490.507 649.855H468.275L453.672 558.388H499.021Z" fill="#934A38"/>
<path d="M261.946 649.855L273.22 642.428L292.179 564.028L261.946 560.441V649.855Z" fill="#894031"/>
<path d="M231.2 558.388L239.715 649.855H261.945L276.549 558.388H231.2Z" fill="#934A38"/>
<path d="M226.973 444.682C228.511 442.295 333.428 401.162 333.428 401.162L424.895 443.828L407.601 491.828C407.601 491.828 262.715 469.575 260.793 467.655C258.871 465.735 226.973 444.682 226.973 444.682Z" fill="#E1EFEF"/>
<path d="M505.858 248.322L500.221 397.708L335.734 406.935L234.734 444.682C234.734 444.682 196.613 272.415 198.917 270.122C201.224 267.815 237.349 224.762 239.656 223.228C241.961 221.695 309.217 196.322 311.521 196.322C313.828 196.322 371.092 188.255 371.092 188.255L419.13 194.788L459.1 208.242C459.1 208.242 481.706 221.775 484.848 220.922C486.197 220.562 490.349 223.055 494.652 226.015C501.952 231.055 506.192 239.455 505.858 248.322Z" fill="#934A38"/>
<path d="M234.735 444.682L247.599 549.122L520.777 550.628L516.603 444.682H234.735Z" fill="#D6E4E4"/>
<path d="M495.424 550.495L247.599 549.121L239.715 485.108C267.628 494.308 307.532 500.655 364.519 500.655C398.377 500.655 438.259 498.415 485.243 493.201C486.129 506.655 488.752 535.815 495.424 550.495Z" fill="#C5D8D8"/>
<path d="M393.811 306.908C393.811 306.908 279.831 359.255 271.281 385.388C262.733 411.522 283.703 416.828 293.775 424.962C303.847 433.108 317.688 434.402 329.493 434.975C341.299 435.548 368.165 441.828 380.784 448.255C393.403 454.682 422.713 464.855 442.659 460.788C462.607 456.708 500.593 420.535 500.593 420.535L516.747 372.042L467.984 314.642L393.811 306.908Z" fill="#F7FBFA"/>
<path d="M372.341 444.682C358.585 439.668 339.076 435.442 329.493 434.975C339.077 435.442 358.585 439.668 372.341 444.682Z" fill="#D7EDF2"/>
<path d="M271.281 385.388C271.289 385.361 271.296 385.348 271.304 385.321C271.296 385.348 271.288 385.361 271.281 385.388Z" fill="#B19B96"/>
<path d="M432.554 461.722C413.828 461.722 391.398 453.655 380.784 448.255C378.409 447.042 375.529 445.842 372.341 444.682C358.585 439.668 339.077 435.442 329.493 434.975C317.688 434.402 303.846 433.108 293.774 424.962C293.116 424.428 292.41 423.908 291.669 423.402C281.108 416.068 263.366 409.842 271.232 385.548C271.248 385.495 271.264 385.442 271.281 385.388C271.288 385.362 271.296 385.348 271.304 385.322C271.533 384.628 271.848 383.922 272.217 383.202C277.657 390.255 286.845 393.975 292.564 398.588C302.758 406.828 316.768 408.148 328.717 408.722C340.666 409.295 367.861 415.655 380.634 422.162C391.38 427.628 414.08 435.788 433.037 435.788C436.614 435.788 440.06 435.495 443.265 434.842C451.074 433.255 461.614 426.788 471.606 419.482C485.112 417.922 497.764 411.708 506.941 401.468L500.593 420.535C500.593 420.535 500.585 420.535 500.569 420.548C499.484 421.588 462.313 456.775 442.658 460.788C439.492 461.428 436.09 461.722 432.554 461.722Z" fill="#E2F3F7"/>
<path d="M477.721 313.788C482.476 320.028 490.384 321.988 495.381 318.188C500.38 314.361 500.576 306.215 495.82 299.975C491.064 293.735 483.157 291.761 478.16 295.575C473.161 299.388 472.965 307.548 477.721 313.788Z" fill="#F99893"/>
<path d="M507.048 328.175C500.763 320.428 493.104 313.882 486.072 308.762C484.563 307.668 483.121 306.482 481.701 305.268C475.965 300.388 469.169 296.415 461.309 293.815C436.017 285.442 407.681 294.882 392.476 316.802C371.991 346.322 381.289 386.175 411.388 403.895C407.639 406.095 405.049 409.535 404.587 413.628C403.695 421.468 410.923 428.722 420.727 429.815C430.532 430.908 439.201 425.442 440.092 417.602C440.215 416.508 440.167 415.428 439.993 414.375C467.143 426.842 499.295 417.468 513.731 392.028C524.751 372.615 523.119 347.242 507.048 328.175Z" fill="#FFC0BB"/>
<path d="M448.128 351.788C445.917 353.522 443.944 355.255 442.209 357.135C440.473 359.002 439.033 361.028 437.943 363.202C436.883 365.388 435.989 367.708 435.613 370.215C435.304 371.642 435.507 370.388 435.065 374.082C434.925 375.402 434.967 376.735 434.752 378.162C434.131 376.922 433.581 375.615 433.185 374.242C432.952 372.868 432.52 371.455 432.6 370.002C432.432 367.095 433.208 364.108 434.521 361.468C435.856 358.802 437.872 356.522 440.237 354.855C442.616 353.215 445.3 352.042 448.128 351.788Z" fill="#752911"/>
<path d="M448.86 374.722C450.323 373.815 451.639 372.882 452.821 371.842C454.001 370.815 455.012 369.682 455.82 368.415C456.609 367.148 457.305 365.802 457.699 364.295C457.943 363.548 458.109 362.735 458.284 361.975C458.456 361.175 458.519 360.362 458.743 359.495C459.04 360.295 459.291 361.135 459.443 361.988C459.495 362.855 459.667 363.748 459.523 364.628C459.436 366.402 458.768 368.175 457.793 369.708C456.805 371.242 455.427 372.508 453.875 373.362C452.317 374.202 450.603 374.748 448.86 374.722Z" fill="#333333"/>
<path d="M472.008 341.575C473.469 340.655 474.785 339.722 475.968 338.695C477.148 337.668 478.159 336.522 478.967 335.255C479.756 334.002 480.452 332.642 480.845 331.135C481.089 330.402 481.256 329.588 481.431 328.815C481.603 328.015 481.665 327.202 481.889 326.348C482.187 327.135 482.437 327.975 482.589 328.842C482.641 329.695 482.813 330.588 482.669 331.468C482.581 333.255 481.915 335.015 480.941 336.548C479.952 338.082 478.573 339.348 477.023 340.215C475.464 341.055 473.749 341.602 472.008 341.575Z" fill="#333333"/>
<path d="M458.873 336.442C457.904 333.775 457.841 330.855 458.315 328.002C458.823 325.162 460.04 322.362 461.884 320.028C463.728 317.722 466.1 315.748 468.804 314.668C470.088 313.988 471.552 313.775 472.905 313.402C474.308 313.188 475.733 313.122 477.123 313.162C475.917 313.962 474.687 314.495 473.545 315.175C470.531 317.055 471.28 316.548 470.283 317.308C468.161 318.708 466.445 320.508 464.915 322.388C463.4 324.295 462.173 326.455 461.212 328.828C460.244 331.188 459.508 333.708 458.873 336.442Z" fill="#752911"/>
<path d="M455.345 347.308C457.352 349.481 459.687 351.295 462.231 352.828C463.511 353.601 464.851 354.268 466.301 354.801C467.759 355.308 469.315 355.735 471.112 355.588L471.799 355.468L472.395 355.348C472.665 355.321 472.944 355.188 473.205 355.201C473.737 355.148 474.247 355.201 474.716 355.375C475.692 355.655 476.427 356.575 476.94 357.668C477.925 359.961 477.587 362.881 476.759 365.668C478.588 363.415 479.86 360.268 479.015 356.961C478.611 355.361 477.5 353.695 475.739 352.921C475.304 352.721 474.853 352.575 474.388 352.521C473.92 352.415 473.465 352.428 473.005 352.441C472.536 352.428 472.123 352.588 471.681 352.655C471.424 352.721 471.353 352.708 471.211 352.735L470.828 352.801C469.729 352.908 468.413 352.641 467.127 352.295C465.815 351.961 464.533 351.388 463.217 350.881C460.616 349.788 458.024 348.535 455.345 347.308Z" fill="#F99893"/>
<path d="M455.939 279.308C455.939 279.308 460.676 270.708 459.056 265.935C459.056 265.935 455.933 278.308 441.567 275.188C427.201 272.082 408.377 275.562 394.697 289.188C381.019 302.815 357 345.642 360.48 362.762C363.959 379.882 371.429 390.162 385.821 398.255C400.215 406.348 403.247 414.308 400.677 418.508C400.677 418.508 406.039 414.695 406.597 407.508C406.597 407.508 412.4 411.868 410.641 418.455C410.641 418.455 417.943 404.668 411.921 396.722C411.921 396.722 426.921 406.615 428.147 412.188C428.147 412.188 430.667 399.015 407.648 380.202C407.648 380.202 419.324 327.335 404.569 307.375C404.569 307.375 420.215 326.028 418.865 334.802C418.865 334.802 431.441 317.535 420.368 296.668C420.368 296.668 438.885 290.082 447.859 291.028C456.519 291.948 474.533 300.042 475.724 300.788L460.84 282.962C460.84 282.962 467.405 280.735 468.956 272.562C468.956 272.562 460.527 280.082 455.939 279.308Z" fill="#752911"/>
<path d="M485.911 376.175C485.911 376.175 476.192 373.455 469.757 383.255C465.637 389.522 472.793 392.762 478.057 387.442C479.893 385.588 482.419 385.802 485.441 384.615C489.571 382.988 490.88 377.188 485.911 376.175Z" fill="#F99893"/>
<path d="M474.549 389.735C475.141 386.308 477.286 380.921 485.332 380.921C486.388 380.921 487.545 381.015 488.814 381.215C488.301 382.601 487.156 383.895 485.564 384.561C485.56 384.561 485.556 384.561 485.55 384.561C485.542 384.575 485.534 384.575 485.525 384.575C485.518 384.575 485.51 384.588 485.504 384.588C485.497 384.588 485.49 384.588 485.484 384.588C485.469 384.601 485.456 384.601 485.441 384.615C482.418 385.801 479.893 385.588 478.057 387.441C476.932 388.588 475.72 389.321 474.549 389.735Z" fill="#F67974"/>
<path d="M890.568 386.255C890.568 386.255 798.181 362.188 705.153 431.121C694.785 438.801 689.926 451.881 692.802 464.455L716.116 567.148C716.116 567.148 814.334 551.175 815.358 549.121C816.384 547.081 861.185 522.481 863.381 509.161C865.576 495.841 890.568 386.255 890.568 386.255Z" fill="#934A38"/>
<path d="M190.435 292.935L220.669 569.082C221.413 575.882 227.155 581.028 233.991 581.028H964.471L1003.14 446.802C1005.75 437.708 1002.04 427.975 994.044 422.922C957.737 400.015 852.084 347.935 737.545 427.615C723.772 437.188 716.767 453.868 719.355 470.442L732.055 551.802L247.599 549.122L216.16 293.842C214.305 278.775 219.356 263.668 229.933 252.788C265.104 216.575 352.156 148.735 501.617 233.135C501.617 233.135 453.069 170.455 322.667 187.868C257.84 196.535 224.02 221.828 206.407 241.855C194.109 255.842 188.408 274.428 190.435 292.935Z" fill="#B9704E"/>
<path d="M472.008 554.255H243.756L247.599 549.121L453.069 550.255L472.008 554.255Z" fill="#B1684A"/>
<path d="M707.857 530.775L692.803 464.455C689.927 451.882 694.785 438.802 705.153 431.122C777.135 377.788 848.716 380.122 877.429 383.908L882.92 384.722C882.92 384.722 853.278 374.388 835.856 366.188C818.433 358.002 794.351 350.815 767.704 348.255C741.059 345.695 701.089 339.042 677.005 321.095C652.921 303.162 626.277 304.188 626.277 304.188L606.804 304.175C606.804 304.175 558.636 328.788 557.612 330.322C556.587 331.868 519.693 375.415 516.106 380.535C512.518 385.668 484.848 486.095 484.848 486.095C484.848 486.095 487.41 552.708 502.27 558.868C517.13 565.015 571.96 561.935 597.068 556.815C622.177 551.695 652.409 563.482 665.22 566.042C673.669 567.722 699.504 567.495 716.116 567.148L707.857 530.775Z" fill="#01A9D6"/>
<path d="M712.608 551.695H712.606L707.857 530.775L694.165 470.455L712.608 551.695Z" fill="#B2E5F3"/>
<path d="M712.676 551.695H712.608L694.165 470.455C694.168 470.455 694.168 470.455 694.169 470.455L712.676 551.695Z" fill="#674235"/>
<path d="M707.221 567.308C710.358 567.255 713.364 567.202 716.116 567.148L712.606 551.695H712.608H712.676L716.196 567.148C713.423 567.202 710.389 567.255 707.221 567.308ZM665.792 566.148C665.708 566.135 665.625 566.108 665.544 566.095C665.625 566.108 665.706 566.135 665.792 566.148Z" fill="#81654A"/>
<path d="M694.66 567.401C682.825 567.401 671.302 567.108 665.798 566.148C665.798 566.148 665.799 566.148 665.797 566.148C665.795 566.148 665.793 566.148 665.792 566.148C665.707 566.135 665.625 566.108 665.544 566.095C665.528 566.095 665.51 566.095 665.493 566.095C665.442 566.081 665.392 566.068 665.342 566.055C665.301 566.055 665.26 566.041 665.22 566.041C654.655 563.921 632.24 555.535 610.621 555.535C606.028 555.535 601.468 555.921 597.068 556.815C581.841 559.921 555.686 562.281 534.141 562.281C520.16 562.281 508.118 561.281 502.27 558.868C487.41 552.708 484.848 486.095 484.848 486.095C484.848 486.095 484.848 486.095 484.849 486.095C484.85 486.095 484.85 486.095 484.852 486.081H484.853C484.857 486.068 484.861 486.055 484.868 486.028C484.868 486.028 484.869 486.028 484.87 486.015C484.872 486.015 484.874 486.001 484.877 485.988C484.889 485.948 484.904 485.895 484.921 485.841C484.921 485.828 484.921 485.828 484.923 485.828C484.924 485.828 484.925 485.828 484.926 485.815C484.928 485.815 484.929 485.801 484.931 485.801C486.092 481.588 499.402 433.402 508.362 403.642C514.401 417.575 526.325 437.895 546.338 444.681C577.852 455.361 587.845 477.641 619.359 483.788C621.88 484.281 624.655 484.508 627.651 484.508C644.94 484.508 669.512 477.041 694.165 470.455L707.857 530.775L712.606 551.695L716.116 567.148C713.364 567.201 710.358 567.255 707.221 567.308C703.168 567.361 698.894 567.401 694.66 567.401ZM672.872 505.188C672.104 505.188 671.345 505.655 671.078 506.495L667.917 516.561C667.733 517.148 667.27 517.615 666.681 517.801L656.597 520.895C655.113 521.361 654.797 523.321 656.062 524.215L664.66 530.335C665.162 530.695 665.456 531.268 665.446 531.895L665.282 542.441C665.264 543.561 666.183 544.348 667.164 544.348C667.54 544.348 667.925 544.228 668.272 543.975L676.745 537.681C677.073 537.441 677.465 537.321 677.862 537.321C678.066 537.321 678.271 537.348 678.469 537.415L688.45 540.828C688.658 540.908 688.867 540.935 689.067 540.935C690.28 540.935 691.259 539.735 690.833 538.468L687.473 528.468C687.277 527.881 687.381 527.241 687.752 526.748L694.085 518.308C695.013 517.068 694.128 515.308 692.588 515.308C692.581 515.308 692.574 515.308 692.568 515.308L682.017 515.415C682.012 515.415 682.006 515.415 682.001 515.415C681.39 515.415 680.817 515.121 680.467 514.615L674.398 505.988C674.017 505.441 673.442 505.188 672.872 505.188ZM553.754 500.761C553.074 500.761 552.396 501.121 552.06 501.828L547.552 511.375C547.288 511.935 546.767 512.321 546.159 512.415L535.744 514.121C534.21 514.361 533.629 516.268 534.76 517.321L542.438 524.561C542.888 524.988 543.1 525.601 543.006 526.215L541.4 536.641C541.215 537.841 542.173 538.801 543.252 538.801C543.55 538.801 543.857 538.735 544.152 538.575L553.405 533.495C553.685 533.348 553.996 533.268 554.306 533.268C554.594 533.268 554.884 533.335 555.149 533.468L564.57 538.228C564.849 538.361 565.136 538.428 565.415 538.428C566.519 538.428 567.485 537.415 567.254 536.201L565.295 525.828C565.18 525.228 565.37 524.601 565.805 524.161L573.234 516.668C574.328 515.575 573.682 513.695 572.142 513.495L561.676 512.161C561.064 512.081 560.531 511.708 560.248 511.161L555.418 501.775C555.069 501.095 554.412 500.761 553.754 500.761Z" fill="#0198CC"/>
<path d="M626.276 304.188C626.276 304.188 562.736 334.428 536.603 396.935C510.469 459.455 502.271 558.868 502.271 558.868C502.271 558.868 469.988 569.108 453.079 558.868C453.079 558.868 450.004 374.388 556.587 313.922C556.587 313.922 583.233 292.922 626.276 304.188Z" fill="#CEECF4"/>
<path d="M573.446 417.242C572.688 417.242 571.936 416.788 571.66 415.948L568.352 405.935C568.159 405.348 567.689 404.895 567.097 404.722L556.968 401.762C555.479 401.335 555.133 399.375 556.384 398.455L564.891 392.215C565.388 391.855 565.673 391.268 565.653 390.642L565.335 380.108C565.3 378.975 566.223 378.162 567.215 378.162C567.583 378.162 567.96 378.282 568.301 378.522L576.867 384.682C577.189 384.922 577.572 385.042 577.959 385.042C578.172 385.042 578.387 385.002 578.593 384.922L588.524 381.362C588.741 381.282 588.957 381.255 589.165 381.255C590.368 381.255 591.344 382.442 590.941 383.695L587.729 393.748C587.541 394.335 587.655 394.975 588.032 395.468L594.491 403.802C595.441 405.042 594.571 406.815 593.017 406.828L582.467 406.882C581.849 406.882 581.275 407.188 580.927 407.695L574.987 416.415C574.609 416.975 574.025 417.242 573.446 417.242Z" fill="#81CCDE"/>
<path d="M715.426 398.361C715.077 398.361 714.717 398.255 714.386 398.028L705.636 392.135C705.321 391.921 704.956 391.815 704.588 391.815C704.356 391.815 704.124 391.868 703.902 391.948L694.085 395.815C693.852 395.908 693.618 395.948 693.392 395.948C692.216 395.948 691.24 394.815 691.597 393.561L694.5 383.415C694.669 382.815 694.536 382.188 694.144 381.708L687.433 373.561C686.445 372.361 687.261 370.561 688.813 370.495L699.356 370.121C699.973 370.108 700.538 369.788 700.87 369.255L706.54 360.361C706.913 359.775 707.516 359.495 708.114 359.495C708.853 359.495 709.586 359.921 709.88 360.735L713.494 370.641C713.705 371.215 714.189 371.655 714.785 371.815L725 374.455C726.504 374.841 726.908 376.788 725.685 377.748L717.374 384.241C716.889 384.628 716.621 385.215 716.66 385.841L717.302 396.361C717.373 397.521 716.44 398.361 715.426 398.361Z" fill="#81CCDE"/>
<path d="M657.301 461.348C656.949 461.348 656.588 461.242 656.256 461.015L647.524 455.095C647.209 454.882 646.843 454.775 646.473 454.775C646.243 454.775 646.012 454.815 645.791 454.908L635.963 458.735C635.731 458.828 635.499 458.868 635.275 458.868C634.095 458.868 633.119 457.722 633.481 456.468L636.416 446.335C636.588 445.748 636.457 445.108 636.065 444.628L629.381 436.468C628.397 435.268 629.219 433.455 630.771 433.402L641.315 433.068C641.932 433.042 642.499 432.722 642.831 432.202L648.529 423.322C648.903 422.748 649.504 422.468 650.1 422.468C650.841 422.468 651.576 422.895 651.868 423.708L655.451 433.628C655.661 434.202 656.141 434.642 656.739 434.802L666.944 437.482C668.447 437.868 668.845 439.815 667.62 440.762L659.288 447.242C658.801 447.615 658.532 448.215 658.568 448.828L659.179 459.362C659.245 460.508 658.312 461.348 657.301 461.348Z" fill="#81CCDE"/>
<path d="M667.164 544.348C666.183 544.348 665.264 543.562 665.282 542.442L665.446 531.895C665.456 531.268 665.162 530.695 664.66 530.335L656.062 524.215C654.797 523.322 655.113 521.362 656.597 520.895L666.681 517.802C667.271 517.615 667.733 517.148 667.917 516.562L671.079 506.495C671.345 505.655 672.104 505.188 672.872 505.188C673.442 505.188 674.017 505.442 674.398 505.988L680.467 514.615C680.817 515.122 681.391 515.415 682.001 515.415C682.007 515.415 682.012 515.415 682.017 515.415L692.568 515.308C692.574 515.308 692.581 515.308 692.588 515.308C694.128 515.308 695.013 517.068 694.085 518.308L687.752 526.748C687.381 527.242 687.277 527.882 687.473 528.468L690.833 538.468C691.259 539.735 690.28 540.935 689.067 540.935C688.867 540.935 688.659 540.908 688.451 540.828L678.469 537.415C678.271 537.348 678.066 537.322 677.862 537.322C677.465 537.322 677.073 537.442 676.745 537.682L668.272 543.975C667.925 544.228 667.54 544.348 667.164 544.348Z" fill="#81C6DA"/>
<path d="M543.252 538.802C542.173 538.802 541.215 537.842 541.4 536.642L543.007 526.215C543.1 525.602 542.888 524.988 542.439 524.562L534.76 517.322C533.629 516.268 534.211 514.362 535.744 514.122L546.159 512.415C546.767 512.322 547.288 511.935 547.552 511.375L552.06 501.828C552.396 501.122 553.075 500.762 553.755 500.762C554.412 500.762 555.069 501.095 555.419 501.775L560.248 511.162C560.531 511.708 561.064 512.082 561.676 512.162L572.143 513.495C573.683 513.695 574.328 515.575 573.235 516.668L565.805 524.162C565.371 524.602 565.18 525.228 565.295 525.828L567.255 536.202C567.485 537.415 566.519 538.428 565.415 538.428C565.136 538.428 564.849 538.362 564.571 538.228L555.149 533.468C554.884 533.335 554.595 533.268 554.307 533.268C553.996 533.268 553.685 533.348 553.405 533.495L544.152 538.575C543.857 538.735 543.551 538.802 543.252 538.802Z" fill="#81C6DA"/>
<path d="M678.752 322.361C678.161 321.948 677.578 321.521 677.005 321.095C677.578 321.521 678.168 321.948 678.759 322.348L678.752 322.361ZM676.871 321.001C676.849 320.988 676.823 320.961 676.8 320.948C676.824 320.961 676.848 320.988 676.871 321.001ZM676.605 320.801C676.576 320.788 676.544 320.761 676.515 320.735C676.545 320.761 676.574 320.788 676.605 320.801ZM676.473 320.708C676.443 320.681 676.409 320.655 676.379 320.641C676.411 320.668 676.443 320.681 676.473 320.708ZM675.99 320.361C675.957 320.335 675.922 320.308 675.89 320.281C675.924 320.308 675.957 320.335 675.99 320.361ZM675.851 320.255C675.821 320.241 675.793 320.215 675.764 320.201C675.793 320.215 675.823 320.241 675.851 320.255Z" fill="#E6EFEF"/>
<path d="M655.633 343.335C654.652 343.335 653.736 342.548 653.753 341.428L653.917 330.881C653.926 330.268 653.632 329.681 653.129 329.321L644.533 323.215C643.266 322.308 643.584 320.348 645.068 319.895L655.152 316.788C655.741 316.601 656.204 316.148 656.388 315.561L657.97 310.521C663.609 312.761 669.541 315.802 675.365 319.908C675.366 319.908 675.369 319.908 675.37 319.921C675.414 319.948 675.457 319.975 675.5 320.002C675.518 320.015 675.538 320.028 675.557 320.042C675.582 320.068 675.608 320.081 675.633 320.095C675.658 320.121 675.684 320.135 675.708 320.161C675.726 320.175 675.745 320.188 675.764 320.202C675.793 320.215 675.821 320.241 675.85 320.255C675.864 320.268 675.877 320.281 675.89 320.281C675.922 320.308 675.957 320.335 675.99 320.361C675.992 320.361 675.994 320.361 675.996 320.361C676.114 320.441 676.232 320.535 676.349 320.615C676.358 320.628 676.368 320.628 676.378 320.642C676.409 320.655 676.442 320.682 676.473 320.708C676.488 320.722 676.501 320.735 676.514 320.735C676.544 320.762 676.576 320.788 676.605 320.802C676.621 320.815 676.637 320.828 676.653 320.842C676.681 320.855 676.709 320.882 676.737 320.908C676.758 320.922 676.78 320.935 676.8 320.948C676.822 320.961 676.849 320.988 676.87 321.002C676.916 321.028 676.96 321.068 677.005 321.095C677.578 321.521 678.161 321.948 678.752 322.361L676.221 325.735C675.852 326.228 675.746 326.868 675.944 327.455L679.304 337.455C679.728 338.721 678.752 339.935 677.537 339.935C677.336 339.935 677.129 339.895 676.921 339.828L666.938 336.415C666.741 336.348 666.536 336.308 666.332 336.308C665.936 336.308 665.544 336.441 665.216 336.681L656.742 342.961C656.396 343.228 656.01 343.335 655.633 343.335Z" fill="#81CCDE"/>
<path d="M780.152 376.068C779.171 376.068 778.253 375.295 778.271 374.162L778.435 363.615C778.444 363.002 778.151 362.415 777.648 362.068L769.051 355.948C767.785 355.042 768.101 353.082 769.585 352.628L779.183 349.668C787.712 350.935 795.893 352.655 803.584 354.682L800.74 358.468C800.369 358.962 800.265 359.602 800.463 360.188L803.823 370.188C804.247 371.455 803.269 372.668 802.055 372.668C801.855 372.668 801.647 372.628 801.439 372.562L791.457 369.148C791.259 369.082 791.055 369.042 790.851 369.042C790.453 369.042 790.061 369.175 789.735 369.415L781.26 375.695C780.915 375.962 780.528 376.068 780.152 376.068Z" fill="#81CCDE"/>
<path d="M874.182 437.801C874.182 428.001 880.025 419.588 888.412 415.828C885.402 414.468 882.068 413.708 878.556 413.708C865.253 413.708 854.47 424.495 854.47 437.801C854.47 451.095 865.253 461.881 878.556 461.881C882.068 461.881 885.402 461.121 888.412 459.775C880.025 456.001 874.182 447.588 874.182 437.801Z" fill="#934A38"/>
<path d="M878.556 461.881C865.253 461.881 854.47 451.095 854.47 437.801C854.47 424.495 865.253 413.708 878.556 413.708C879.421 413.708 880.277 413.761 881.12 413.841C869.022 415.121 859.594 425.361 859.594 437.801C859.594 450.228 869.022 460.468 881.12 461.748C880.304 461.828 879.474 461.881 878.637 461.881C878.609 461.881 878.582 461.881 878.556 461.881Z" fill="#873F2F"/>
<path d="M849.642 456.015C849.162 453.921 847.286 452.361 845.046 452.361C844.634 452.361 844.236 452.415 843.856 452.508C842.749 450.148 840.348 448.508 837.565 448.508C836.845 448.508 836.152 448.615 835.498 448.815C834 446.335 831.277 444.681 828.166 444.681C824.466 444.681 821.314 447.028 820.12 450.308C819.276 449.841 818.302 449.575 817.265 449.575C814.022 449.575 811.392 452.201 811.392 455.441C811.392 455.641 811.402 455.828 811.42 456.015H849.642Z" fill="#934A38"/>
<path d="M935.391 435.788C934.944 433.855 933.215 432.415 931.149 432.415C930.769 432.415 930.401 432.468 930.052 432.562C929.033 430.375 926.82 428.868 924.253 428.868C923.591 428.868 922.951 428.962 922.348 429.148C920.967 426.868 918.457 425.335 915.591 425.335C912.18 425.335 909.273 427.495 908.173 430.535C907.395 430.095 906.497 429.855 905.541 429.855C902.552 429.855 900.128 432.268 900.128 435.268C900.128 435.442 900.137 435.615 900.153 435.788H935.391Z" fill="#934A38"/>
<path d="M964.47 581.028H706.704C841.266 571.828 894.518 500.522 914.888 435.788H935.391C934.944 433.855 933.214 432.415 931.149 432.415C930.769 432.415 930.401 432.468 930.052 432.562C929.033 430.375 926.82 428.868 924.253 428.868C923.59 428.868 922.95 428.962 922.348 429.148C921.342 427.482 919.736 426.215 917.83 425.655C920.896 414.175 922.981 403.015 924.366 392.588C954.817 400.655 978.764 413.402 992.95 422.242C992.977 422.255 993.004 422.268 993.03 422.295H993.044C993.084 422.322 993.137 422.348 993.177 422.375C993.19 422.388 993.204 422.402 993.217 422.402C993.244 422.415 993.257 422.428 993.284 422.442C993.31 422.468 993.35 422.482 993.377 422.508C993.39 422.508 993.404 422.522 993.417 422.522C993.444 422.548 993.47 422.562 993.497 422.588C993.51 422.588 993.524 422.602 993.537 422.602C993.564 422.628 993.604 422.642 993.644 422.668C993.657 422.682 993.657 422.682 993.67 422.695C993.71 422.708 993.737 422.735 993.777 422.762C993.817 422.775 993.857 422.802 993.897 422.828C993.91 422.842 993.91 422.842 993.924 422.855C993.964 422.868 994.004 422.895 994.044 422.922C1000.32 426.882 1003.96 433.735 1003.96 440.908C1003.96 442.868 1003.7 444.855 1003.14 446.802L964.47 581.028Z" fill="#B1684A"/>
<path d="M935.391 435.788H914.888C915.957 432.388 916.935 429.015 917.831 425.655C919.736 426.215 921.343 427.482 922.348 429.148C922.951 428.962 923.591 428.868 924.253 428.868C926.82 428.868 929.033 430.375 930.052 432.562C930.401 432.468 930.769 432.415 931.149 432.415C933.215 432.415 934.944 433.855 935.391 435.788Z" fill="#934A38"/>
<path d="M368.145 265.935C368.984 265.935 369.811 265.882 370.628 265.802C358.529 264.522 349.103 254.282 349.103 241.842C349.103 229.415 358.529 219.175 370.628 217.895C369.785 217.815 368.931 217.762 368.064 217.762C371.577 217.762 374.909 218.522 377.92 219.868C369.533 223.642 363.691 232.055 363.691 241.842C363.691 251.642 369.533 260.055 377.92 263.828C374.933 265.162 371.628 265.922 368.145 265.935Z" fill="#742F22"/>
<path d="M368.064 265.935C354.761 265.935 343.979 255.148 343.979 241.842C343.979 228.548 354.761 217.762 368.064 217.762C368.931 217.762 369.785 217.815 370.628 217.895C358.529 219.175 349.103 229.415 349.103 241.842C349.103 254.282 358.529 264.522 370.628 265.802C369.811 265.882 368.984 265.935 368.145 265.935C368.119 265.935 368.091 265.935 368.064 265.935Z" fill="#702E21"/>
<path d="M339.152 260.068H300.929C300.91 259.882 300.901 259.695 300.901 259.495C300.901 256.255 303.53 253.628 306.774 253.628C307.81 253.628 308.782 253.895 309.628 254.362C310.822 251.082 313.974 248.735 317.674 248.735C320.785 248.735 323.508 250.388 325.006 252.868C325.66 252.668 326.353 252.562 327.073 252.562C329.857 252.562 332.257 254.202 333.364 256.562C333.744 256.455 334.142 256.402 334.553 256.402C336.796 256.402 338.67 257.975 339.152 260.068Z" fill="#742F22"/>
<path d="M424.895 239.842H389.661C389.645 239.668 389.636 239.495 389.636 239.308C389.636 236.322 392.06 233.895 395.049 233.895C396.005 233.895 396.903 234.148 397.681 234.588C398.781 231.548 401.688 229.388 405.099 229.388C407.965 229.388 410.476 230.922 411.856 233.202C412.459 233.015 413.099 232.922 413.761 232.922C416.328 232.922 418.54 234.428 419.56 236.602C419.911 236.522 420.279 236.468 420.657 236.468C422.724 236.468 424.452 237.908 424.895 239.842Z" fill="#742F22"/>
<path d="M712.674 551.695L720.049 581.028H737.216L732.054 551.802C732.054 551.802 722.098 534.775 720.561 535.802C719.024 536.828 712.674 551.695 712.674 551.695Z" fill="#934A38"/>
</g>
<defs>
<clipPath id="clip0_1_692">
<rect width="834" height="1194" fill="white" transform="translate(1194 0.333374) rotate(90)"/>
</clipPath>
</defs>
</svg>
