<svg width="1194" height="835" viewBox="0 0 1194 835" fill="none" xmlns="http://www.w3.org/2000/svg">
<g clip-path="url(#clip0_1_692)">
<path d="M900.461 606.237C900.461 606.237 900.275 606.423 899.935 606.717C856.27 571.516 737.145 546.249 596.992 546.249C454.472 546.249 333.676 572.382 291.899 608.511L276.241 609.084V636.393C276.241 686.185 419.844 726.538 596.992 726.538C774.141 726.538 917.759 686.185 917.759 636.393V607.753L900.461 606.237Z" fill="#934A38"/>
<path d="M917.759 609.084C917.759 658.875 774.141 699.228 596.992 699.228C419.844 699.228 276.241 658.875 276.241 609.084C276.241 559.292 419.844 518.939 596.992 518.939C774.141 518.939 917.759 559.292 917.759 609.084Z" fill="#B9704E"/>
<path d="M429.747 454.077C429.747 454.077 368.459 530.73 434.559 563.192L465.628 498.825V473.325L429.747 454.077Z" fill="#F2ABA7"/>
<path d="M853.872 630.622C838.075 630.622 824.18 628.796 816.212 626.042C819.12 626.831 821.674 627.172 823.546 627.172C823.824 627.172 824.072 627.156 824.319 627.141C824.35 627.141 824.381 627.141 824.412 627.141C824.428 627.141 824.459 627.141 824.474 627.141C829.379 626.769 831.375 625.949 833.711 625.624C834.516 625.531 835.228 625.485 835.862 625.485C836.496 625.485 837.193 625.531 837.997 625.624C840.333 625.949 842.33 626.769 847.235 627.141C847.529 627.156 847.838 627.172 848.163 627.172C854.368 627.172 868.076 623.412 877.298 612.147C890.11 613.911 898.635 617.052 898.635 620.642C898.635 626.15 878.598 630.622 853.872 630.622Z" fill="#AE6547"/>
<path d="M774.404 454.077C774.404 454.077 835.691 530.729 769.592 563.191L738.522 498.824V473.325L774.404 454.077Z" fill="#F2ABA7"/>
<path d="M578.363 450.286H636.866V347.748H578.363V450.286Z" fill="#FFC0BB"/>
<path d="M636.866 365.232V330.264L578.363 330.31V360.049C590.927 366.795 609.649 370.632 636.866 365.232Z" fill="#F99893"/>
<path d="M728.883 225.915C722.786 222.913 715.715 223.439 709.31 226.688C711.507 169.129 664.5 120.73 605.286 122.773C546.087 120.73 499.08 169.129 501.278 226.688C494.872 223.439 487.801 222.913 481.704 225.915C470.007 231.671 466.371 248.165 473.581 262.771C480.792 277.362 496.125 284.526 507.823 278.754C509.447 277.965 510.886 276.929 512.201 275.753C518.901 323.332 558.651 358.996 605.286 358.331C651.936 358.996 691.686 323.332 698.386 275.753C699.686 276.929 701.14 277.965 702.765 278.754C714.462 284.526 729.78 277.362 736.991 262.771C744.201 248.165 740.565 231.671 728.883 225.915Z" fill="#FFC0BB"/>
<path d="M581.21 250.238C581.458 254.725 578.008 258.563 573.521 258.81C569.033 259.058 565.181 255.607 564.933 251.12C564.686 246.648 568.136 242.811 572.623 242.564C577.126 242.316 580.963 245.751 581.21 250.238Z" fill="#333333"/>
<path d="M651.317 250.996C651.565 255.483 648.13 259.321 643.627 259.553C639.14 259.8 635.303 256.365 635.055 251.878C634.808 247.391 638.243 243.569 642.746 243.322C647.233 243.074 651.07 246.509 651.317 250.996Z" fill="#333333"/>
<path d="M594.145 233.589C590.076 232.181 586.193 231.067 582.324 230.386C578.472 229.705 574.665 229.52 570.936 229.922C567.238 230.371 563.509 231.129 559.95 232.723C557.877 233.496 559.579 232.769 554.52 235.214C552.678 236.127 550.992 237.287 548.965 238.2C550.048 236.359 551.286 234.564 552.725 232.924C554.319 231.469 555.789 229.736 557.723 228.622C561.343 226.008 565.846 224.538 570.364 224.027C574.897 223.547 579.524 224.259 583.64 225.93C587.724 227.663 591.484 230.139 594.145 233.589Z" fill="#752911"/>
<path d="M626.979 233.466C629.609 230 633.354 227.493 637.423 225.729C641.523 224.027 646.15 223.284 650.699 223.733C655.217 224.197 659.719 225.636 663.355 228.236C665.305 229.319 666.79 231.036 668.384 232.475C669.839 234.115 671.092 235.91 672.19 237.736C670.163 236.839 668.461 235.694 666.62 234.796C661.53 232.382 663.294 233.125 661.158 232.352C657.584 230.773 653.855 230.046 650.157 229.628C646.428 229.257 642.622 229.458 638.769 230.185C634.901 230.897 631.033 232.027 626.979 233.466Z" fill="#752911"/>
<path d="M609.68 239.113C609.278 243.384 609.587 247.654 610.376 251.894C610.794 254.029 611.367 256.118 612.187 258.207C613.038 260.28 614.09 262.369 615.993 264.179L616.782 264.798L617.494 265.324C617.788 265.587 618.19 265.757 618.422 266.067C619.01 266.577 619.444 267.181 619.707 267.862C620.357 269.192 620.063 270.863 619.382 272.473C617.865 275.768 614.368 278.213 610.547 280.039C614.755 279.838 619.397 278.151 622.151 274.051C623.497 272.055 624.225 269.239 623.358 266.593C623.142 265.928 622.879 265.293 622.476 264.736C622.136 264.133 621.687 263.653 621.223 263.173C620.774 262.663 620.217 262.353 619.707 261.951C619.397 261.734 619.335 261.642 619.165 261.518L618.732 261.162C617.54 260.079 616.566 258.392 615.699 256.659C614.786 254.926 614.167 252.992 613.44 251.074C612.109 247.206 610.949 243.183 609.68 239.113Z" fill="#F99893"/>
<path d="M715.684 202.087C715.684 202.087 732.38 202.845 738.445 196.764C738.445 196.764 717.201 201.328 711.12 177.036C705.055 152.744 697.458 126.935 666.342 116.321C635.226 105.691 545.669 103.416 522.135 121.628C498.601 139.839 482.664 156.55 481.148 184.633C479.631 212.716 469.76 223.331 461.404 222.573C461.404 222.573 471.276 227.895 482.664 223.331C482.664 223.331 480.389 235.477 469.001 237.751C469.001 237.751 495.568 238.51 503.15 223.331C503.15 223.331 499.359 253.704 491.777 259.769C491.777 259.769 513.78 253.704 525.168 204.361C525.168 204.361 614.725 182.343 634.081 144.775C634.081 144.775 617.386 182.73 602.965 187.279C602.965 187.279 639.403 186.521 662.922 153.889C662.922 153.889 690.247 178.939 695.57 193.36C700.691 207.27 697.334 241.682 697.102 244.064L702.734 236.374C705.736 232.274 709.449 228.731 713.75 226.023C714.849 225.327 715.824 224.801 716.474 224.692L713.781 212.33C713.781 212.33 722.137 220.685 735.799 216.879C735.799 216.879 717.959 209.668 715.684 202.087Z" fill="#752911"/>
<path d="M545.53 372.752H666.667C666.667 372.752 662.628 406.405 657.259 407.751C651.874 409.098 593.991 421.197 589.952 419.867C585.914 418.521 538.799 411.79 538.799 402.367C538.799 392.944 545.53 372.752 545.53 372.752Z" fill="#FFC0BB"/>
<path d="M727.243 383.521C717.232 374.516 682.712 372.953 665.63 372.736C665.63 372.736 654.551 401.021 606.106 401.021C557.645 401.021 546.566 372.736 546.566 372.736C529.5 372.953 494.965 374.516 484.969 383.521C471.508 395.636 427.085 449.466 427.085 449.466C427.085 449.466 455.354 501.965 491.7 512.735V559.834H606.106H720.512V512.735C756.858 501.965 785.111 449.466 785.111 449.466C785.111 449.466 740.704 395.636 727.243 383.521Z" fill="#CF283C"/>
<path d="M499.127 450.286C499.127 450.286 593.65 473.975 713.085 450.286L732.627 476.838L721.874 508.743C721.874 508.743 642.003 549.22 491.7 512.735L482.664 479.437L499.127 450.286Z" fill="#DCEAF4"/>
<path d="M515.93 374.485C502.871 375.97 490.354 378.663 484.969 383.521C471.508 395.636 427.085 449.466 427.085 449.466C427.085 449.466 455.354 501.966 491.7 512.735C491.7 512.735 501.138 408.541 515.93 374.485Z" fill="#CF283C"/>
<path d="M696.282 374.485C709.356 375.97 721.858 378.663 727.258 383.521C740.72 395.636 785.126 449.466 785.126 449.466C785.126 449.466 756.858 501.966 720.527 512.735C720.527 512.735 711.074 408.541 696.282 374.485Z" fill="#CF283C"/>
<path d="M674.62 372.953C671.309 372.829 668.26 372.767 665.63 372.736C665.63 372.736 654.567 401.021 606.106 401.021C557.645 401.021 546.582 372.736 546.582 372.736C544.277 372.767 541.646 372.814 538.799 372.907C538.799 372.907 556.299 407.751 604.76 407.751C651.178 407.751 672.871 375.661 674.62 372.953Z" fill="white"/>
<path d="M598.23 699.228C532.749 658.922 458.712 611.931 458.712 611.931L580.313 630.374V630.483C580.313 630.483 590.401 636.393 603.259 636.393C609.68 636.393 616.798 634.923 623.683 630.483V630.374V630.359L745.222 611.931C745.222 611.931 798.804 639.209 847.962 665.219C789.443 685.86 699.361 699.12 598.23 699.228Z" fill="#B1684A"/>
<path d="M598.107 423.224C598.107 423.224 577.574 391.923 526.142 384.573C474.711 377.223 456.561 382.623 456.561 382.623L460.012 413.538C460.012 413.538 585.357 437.738 585.574 437.088C585.79 436.438 598.107 423.224 598.107 423.224Z" fill="#A2DFF4"/>
<path d="M580.963 419.511L457.195 388.302L456.561 382.623C456.561 382.623 528.927 385.006 583.222 418.226C582.479 418.613 581.721 419.046 580.963 419.511Z" fill="#67C3E9"/>
<path d="M606.106 423.224C606.106 423.224 626.638 391.923 678.085 384.573C729.517 377.223 747.667 382.623 747.667 382.623L744.216 413.538C744.216 413.538 618.856 437.738 618.639 437.088C618.422 436.438 606.106 423.224 606.106 423.224Z" fill="#A2DFF4"/>
<path d="M623.683 420.006V419.913C623.683 419.913 622.6 419.279 620.681 418.412C675.022 385.006 747.667 382.624 747.667 382.624L746.816 390.267L623.683 420.006Z" fill="#67C3E9"/>
<path d="M444.307 387.172H452.662L582.99 420.021L580.313 421.893C580.313 421.893 559.425 438.31 554.674 438.31C549.924 438.31 461.311 421.027 459.145 416.277C456.979 411.511 444.307 387.172 444.307 387.172Z" fill="#768C33"/>
<path d="M444.307 387.173L580.313 420.021V630.374L458.712 611.931L444.307 387.173Z" fill="#83A530"/>
<path d="M759.627 387.172H751.272L620.945 420.021L623.621 421.893C623.621 421.893 644.51 438.31 649.26 438.31C654.01 438.31 742.623 421.027 744.789 416.277C746.955 411.511 759.627 387.172 759.627 387.172Z" fill="#768C33"/>
<path d="M759.627 387.173L623.621 420.021V630.374L745.222 611.931L759.627 387.173Z" fill="#8DB03C"/>
<path d="M580.313 419.913V630.483C580.313 630.483 603.011 643.789 623.683 630.483V630.374V420.021V419.913C623.683 419.913 601 406.606 580.313 419.913Z" fill="#768C33"/>
<path d="M580.313 419.913V420.021C580.313 420.021 607.87 427.216 623.683 420.021V419.913C623.683 419.913 601 406.606 580.313 419.913Z" fill="#70822E"/>
<path d="M623.683 630.297V527.31C625.246 531.689 652.153 603.498 745.222 611.761L623.683 630.189V630.297Z" fill="#85A737"/>
<path d="M444.384 387.172H444.322L444.307 386.987C444.307 386.987 444.338 387.049 444.384 387.172Z" fill="#F0F2EA"/>
<path d="M444.384 387.188L444.322 387.173H444.384C444.384 387.173 444.384 387.173 444.384 387.188Z" fill="#6F852F"/>
<path d="M580.313 630.189L458.712 611.76L444.322 387.172L444.384 387.188C446.627 392.542 493.99 503.915 580.313 524.648V630.189Z" fill="#7C9D2C"/>
<path d="M603.259 636.208C590.401 636.208 580.313 630.297 580.313 630.297V630.189V524.649C580.313 524.649 592.165 537.77 605.472 537.77C611.537 537.754 617.912 535.031 623.621 527.109C623.621 527.109 623.637 527.171 623.683 527.31V630.297C616.798 634.738 609.68 636.208 603.259 636.208Z" fill="#6F852F"/>
<path d="M451.238 495.374C451.238 495.374 448.562 492.991 445.529 500.774C442.512 508.557 421.33 518.274 424.997 543.788C428.679 569.288 456.345 577.504 470.177 579.221C483.995 580.954 499.777 578.355 498.91 574.254C498.044 570.154 485.078 572.738 482.71 568.205C480.327 563.671 504.094 568.421 505.177 558.488C505.177 558.488 505.393 556.755 503.243 556.321C501.076 555.888 486.052 555.997 484.32 554.913C482.602 553.83 518.576 542.922 517.926 536.222C517.276 529.523 485.078 540.539 481.844 537.398C478.595 534.273 512.526 520.657 511.01 512.007C511.01 512.007 511.227 509.857 507.56 509.857C503.893 509.857 466.417 518.753 452.523 515.272L451.238 495.374Z" fill="#FFC0BB"/>
<path d="M752.634 495.374C752.634 495.374 755.326 492.991 758.358 500.774C761.376 508.557 782.558 518.274 778.875 543.788C775.208 569.288 747.543 577.504 733.71 579.221C719.877 580.954 704.111 578.355 704.977 574.254C705.828 570.154 718.794 572.738 721.177 568.204C723.56 563.671 699.778 568.421 698.695 558.488C698.695 558.488 698.479 556.755 700.645 556.321C702.811 555.888 717.835 555.996 719.552 554.913C721.285 553.83 685.296 542.922 685.946 536.222C686.596 529.522 718.795 540.539 722.044 537.398C725.293 534.273 691.361 520.657 692.862 512.007C692.862 512.007 692.645 509.856 696.328 509.856C699.995 509.856 737.455 518.753 751.365 515.272L752.634 495.374Z" fill="#FFC0BB"/>
<path d="M838.275 529.213C838.275 529.213 832.024 537.073 834.515 552.933H838.275C838.275 552.933 838.446 542.736 845.548 531.983L838.275 529.213Z" fill="#B9704E"/>
<path d="M845.548 531.983C845.347 532.509 843.552 532.308 841.556 531.55C839.544 530.776 838.074 529.739 838.276 529.213C838.477 528.703 840.256 528.888 842.268 529.662C844.279 530.42 845.749 531.472 845.548 531.983Z" fill="#934A38"/>
<path d="M588.575 286.645C598.106 296.393 606.338 298.266 616.38 297.244C620.898 296.734 623.946 295.388 626.716 294.738C623.791 296.811 620.944 298.606 616.875 299.643C605.889 303.14 593.14 296.966 588.575 286.645Z" fill="#F99893"/>
<path d="M846.801 548.461C838.585 551.494 833.123 551.494 824.907 548.461C816.691 545.444 785.947 547.394 785.219 583.043C784.492 618.708 815.608 627.791 824.474 627.141C829.379 626.769 831.375 625.949 833.711 625.624C834.516 625.531 835.228 625.485 835.862 625.485C836.496 625.485 837.193 625.531 837.997 625.624C840.334 625.949 842.33 626.769 847.235 627.141C856.101 627.791 887.216 618.708 886.489 583.043C885.762 547.394 855.017 545.444 846.801 548.461Z" fill="#CF283C"/>
<path d="M886.443 581.697C886.443 581.651 886.443 581.62 886.443 581.573C886.443 581.604 886.443 581.651 886.443 581.697ZM884.741 570.587C884.741 570.557 884.725 570.541 884.725 570.51C884.725 570.541 884.741 570.572 884.741 570.587ZM884.555 569.953C884.555 569.953 884.555 569.922 884.54 569.922C884.555 569.938 884.555 569.938 884.555 569.953ZM884.509 569.783C884.509 569.783 884.493 569.767 884.493 569.752C884.493 569.767 884.493 569.767 884.509 569.783ZM884.338 569.272C884.338 569.257 884.338 569.272 884.338 569.257V569.272Z" fill="#AE543C"/>
<path d="M848.163 627.172C847.838 627.172 847.528 627.156 847.234 627.141C842.33 626.769 840.333 625.949 837.997 625.624C837.192 625.531 836.496 625.485 835.862 625.485C835.228 625.485 834.516 625.531 833.711 625.624C831.375 625.949 829.379 626.769 824.474 627.141C824.459 627.141 824.428 627.141 824.412 627.141C824.381 627.141 824.35 627.141 824.319 627.141C824.072 627.156 823.824 627.172 823.546 627.172C819.461 627.172 812.126 625.531 804.963 621.199C799.532 616.99 794.611 611.049 791.78 602.833C795.416 603.978 798.619 604.473 800.862 604.473C801.187 604.473 801.497 604.457 801.775 604.442C806.696 604.086 808.676 603.266 811.028 602.926C811.833 602.833 812.529 602.786 813.163 602.786C813.797 602.786 814.509 602.833 815.298 602.926C817.65 603.266 819.631 604.086 824.551 604.442C824.83 604.457 825.139 604.473 825.48 604.473C835.398 604.473 864.502 594.849 863.79 560.36C863.728 556.786 863.357 553.567 862.723 550.643C866.529 551.2 870.691 552.422 874.606 554.65C870.97 551.68 866.885 549.807 862.924 548.724C871.326 551.014 880.315 556.832 884.338 569.257C884.338 569.272 884.338 569.257 884.338 569.272C884.369 569.365 884.4 569.458 884.431 569.551C884.431 569.551 884.431 569.551 884.431 569.566C884.447 569.597 884.447 569.613 884.462 569.644C884.462 569.659 884.462 569.659 884.477 569.674C884.477 569.705 884.493 569.721 884.493 569.752C884.493 569.767 884.509 569.783 884.509 569.783C884.524 569.829 884.524 569.876 884.539 569.922C884.555 569.922 884.555 569.953 884.555 569.953C884.57 569.984 884.57 569.999 884.57 570.015C884.586 570.03 884.586 570.061 884.586 570.077C884.601 570.092 884.601 570.108 884.601 570.139C884.617 570.154 884.617 570.17 884.632 570.201C884.632 570.216 884.632 570.232 884.648 570.247C884.648 570.278 884.663 570.309 884.679 570.355C884.694 570.402 884.694 570.433 884.71 570.479C884.71 570.479 884.709 570.495 884.725 570.51C884.725 570.541 884.741 570.556 884.741 570.587C884.741 570.603 884.756 570.618 884.756 570.634C884.756 570.665 884.771 570.696 884.787 570.727V570.742C884.802 570.835 884.833 570.912 884.849 570.99C884.864 571.005 884.864 571.005 884.864 571.005C884.864 571.052 884.88 571.083 884.895 571.113C884.895 571.129 884.895 571.129 884.895 571.144C884.926 571.268 884.957 571.392 884.988 571.516C885.004 571.516 885.004 571.531 885.004 571.531C885.592 573.852 886.04 576.39 886.288 579.144C886.288 579.144 886.288 579.144 886.288 579.159C886.288 579.314 886.303 579.469 886.319 579.624C886.319 579.67 886.334 579.732 886.334 579.778C886.35 579.933 886.35 580.088 886.365 580.258C886.365 580.258 886.365 580.258 886.365 580.273C886.365 580.32 886.381 580.366 886.381 580.413C886.381 580.413 886.381 580.413 886.381 580.428C886.381 580.521 886.396 580.629 886.396 580.738C886.396 580.738 886.396 580.738 886.396 580.753C886.396 580.799 886.396 580.846 886.412 580.892V580.908C886.412 580.954 886.412 581.001 886.412 581.047C886.412 581.062 886.412 581.062 886.412 581.062C886.427 581.171 886.427 581.279 886.427 581.372C886.427 581.387 886.427 581.403 886.427 581.403C886.442 581.449 886.443 581.496 886.443 581.527C886.443 581.542 886.443 581.558 886.443 581.573C886.443 581.62 886.443 581.65 886.443 581.697C886.443 581.712 886.443 581.712 886.443 581.728C886.443 581.774 886.458 581.821 886.458 581.883C886.458 581.929 886.458 581.991 886.458 582.037C886.458 582.037 886.458 582.053 886.458 582.068C886.458 582.115 886.458 582.146 886.458 582.192C886.458 582.208 886.473 582.207 886.473 582.223C886.473 582.269 886.473 582.316 886.473 582.362V582.378C886.473 582.44 886.473 582.486 886.473 582.532C886.473 582.548 886.473 582.563 886.473 582.563C886.473 582.61 886.473 582.641 886.473 582.687C886.473 582.703 886.473 582.718 886.489 582.734C886.489 582.78 886.489 582.811 886.489 582.842C886.489 582.857 886.489 582.873 886.489 582.888C886.489 582.95 886.489 582.997 886.489 583.043C886.504 583.445 886.504 583.848 886.504 584.25C886.52 617.78 857.957 627.172 848.163 627.172Z" fill="#C31E2E"/>
<path d="M803.214 575.879C801.528 575.879 800.151 575.384 799.269 574.363C796.607 571.253 799.501 564.398 805.752 559.045C809.93 555.471 814.54 553.475 817.929 553.475C819.615 553.475 820.993 553.97 821.875 554.991C824.536 558.101 821.642 564.955 815.391 570.309C811.214 573.883 806.603 575.879 803.214 575.879Z" fill="#DD6977"/>
<path d="M785.266 586.911C785.266 586.896 785.266 586.865 785.266 586.849C785.266 586.865 785.266 586.88 785.266 586.911ZM785.25 586.555C785.25 586.509 785.25 586.478 785.25 586.447C785.25 586.478 785.25 586.524 785.25 586.555ZM785.235 586.184C785.235 586.138 785.235 586.091 785.235 586.06C785.235 586.107 785.235 586.138 785.235 586.184ZM785.219 585.194C785.219 585.163 785.219 585.116 785.219 585.07C785.219 585.116 785.219 585.147 785.219 585.194ZM785.204 584.621C785.204 584.559 785.204 584.513 785.204 584.467C785.204 584.513 785.204 584.575 785.204 584.621ZM785.204 584.033C785.204 583.971 785.204 583.925 785.219 583.863C785.204 583.91 785.204 583.971 785.204 584.033Z" fill="#C07F60"/>
<path d="M804.994 621.214C795.834 615.706 786.937 605.804 785.436 589.294C785.42 589.124 785.405 588.938 785.389 588.768C785.389 588.753 785.389 588.753 785.389 588.753C785.374 588.644 785.374 588.536 785.358 588.428C785.358 588.428 785.358 588.412 785.358 588.397C785.358 588.335 785.359 588.288 785.343 588.226C785.343 588.211 785.343 588.195 785.343 588.18C785.343 588.134 785.343 588.072 785.328 588.025C785.328 588.01 785.328 587.994 785.328 587.979C785.328 587.948 785.328 587.917 785.328 587.886C785.328 587.855 785.328 587.84 785.328 587.824C785.312 587.778 785.312 587.731 785.312 587.669C785.312 587.654 785.312 587.638 785.312 587.623C785.312 587.577 785.297 587.515 785.297 587.468C785.297 587.453 785.297 587.437 785.297 587.406C785.297 587.375 785.297 587.344 785.297 587.314C785.297 587.283 785.281 587.252 785.281 587.221C785.281 587.174 785.281 587.143 785.281 587.112C785.281 587.097 785.281 587.066 785.281 587.051C785.281 587.004 785.266 586.958 785.266 586.911C785.266 586.88 785.266 586.865 785.266 586.849C785.266 586.803 785.266 586.772 785.266 586.726C785.266 586.695 785.266 586.664 785.266 586.633C785.25 586.602 785.25 586.571 785.25 586.555C785.25 586.524 785.25 586.478 785.25 586.447C785.25 586.416 785.25 586.385 785.25 586.354C785.25 586.323 785.25 586.292 785.25 586.261C785.25 586.23 785.25 586.215 785.235 586.184C785.235 586.138 785.235 586.107 785.235 586.06C785.235 586.029 785.235 585.998 785.235 585.983C785.235 585.936 785.235 585.89 785.235 585.844C785.235 585.828 785.235 585.797 785.235 585.782C785.235 585.735 785.235 585.704 785.235 585.673C785.219 585.643 785.219 585.612 785.219 585.581C785.219 585.55 785.219 585.503 785.219 585.472C785.219 585.441 785.219 585.426 785.219 585.41C785.219 585.364 785.219 585.302 785.219 585.256C785.219 585.24 785.219 585.225 785.219 585.194C785.219 585.147 785.219 585.116 785.219 585.07C785.219 585.054 785.219 585.024 785.219 585.008C785.219 584.962 785.219 584.915 785.219 584.884C785.219 584.869 785.219 584.838 785.219 584.822C785.219 584.776 785.219 584.714 785.219 584.668C785.219 584.652 785.204 584.637 785.204 584.621C785.204 584.575 785.204 584.513 785.204 584.467C785.204 584.451 785.204 584.436 785.204 584.42C785.204 584.374 785.204 584.327 785.204 584.281C785.204 584.265 785.204 584.25 785.204 584.234C785.204 584.188 785.204 584.126 785.204 584.08C785.204 584.064 785.204 584.049 785.204 584.033C785.204 583.971 785.204 583.91 785.219 583.863C785.219 583.848 785.219 583.832 785.219 583.832C785.219 583.77 785.219 583.724 785.219 583.662V583.646C785.219 583.585 785.219 583.523 785.219 583.476C785.219 583.461 785.219 583.445 785.219 583.43C785.219 583.383 785.219 583.322 785.219 583.26C785.219 583.244 785.219 583.244 785.219 583.229C785.219 583.167 785.219 583.105 785.219 583.043C785.807 554.326 805.86 547.471 817.929 547.471C820.853 547.471 823.313 547.873 824.907 548.461C829.007 549.978 832.427 550.736 835.862 550.736C839.281 550.736 842.701 549.978 846.801 548.461C846.925 548.415 847.064 548.384 847.188 548.337H847.203C847.203 548.322 847.219 548.322 847.234 548.322C848.828 547.811 851.102 547.486 853.764 547.486C856.502 547.486 859.675 547.842 862.924 548.724C862.692 548.662 862.46 548.601 862.228 548.539C862.413 549.219 862.583 549.931 862.723 550.643C861.021 550.395 859.365 550.287 857.849 550.287C854.955 550.287 852.51 550.689 850.917 551.277C846.801 552.794 843.382 553.552 839.962 553.552C836.543 553.552 833.123 552.794 829.007 551.277C827.414 550.689 824.953 550.287 822.044 550.287C809.96 550.287 789.923 557.142 789.335 585.859C789.196 592.373 790.124 597.99 791.78 602.833C790.65 602.461 789.459 602.044 788.252 601.533C791.903 610.941 798.356 617.207 804.962 621.199C804.962 621.214 804.978 621.214 804.994 621.214Z" fill="#D43E50"/>
<path d="M804.963 621.199C798.356 617.207 791.904 610.941 788.252 601.533C789.459 602.044 790.65 602.461 791.78 602.833C794.611 611.049 799.532 616.99 804.963 621.199ZM874.606 554.65C870.691 552.422 866.529 551.2 862.723 550.643C862.584 549.931 862.413 549.219 862.228 548.539C862.46 548.601 862.692 548.662 862.924 548.724C866.885 549.807 870.97 551.68 874.606 554.65Z" fill="#C93543"/>
<path d="M839.328 546.156C839.328 546.156 852.294 550.658 862.166 535.309C862.166 535.309 843.242 531.302 839.328 546.156Z" fill="#99C049"/>
<path d="M843.815 546.775C841.138 546.775 839.374 546.187 839.328 546.156C840.473 545.769 849.617 538.698 862.166 535.309C855.93 544.995 848.472 546.775 843.815 546.775Z" fill="#87B239"/>
<path d="M637.376 454.835L744.216 427.325L742.267 460.019L637.376 489.123V454.835Z" fill="#768C33"/>
</g>
<defs>
<clipPath id="clip0_1_692">
<rect width="834" height="1194" fill="white" transform="translate(1194 0.333374) rotate(90)"/>
</clipPath>
</defs>
</svg>
